<svg viewBox="0 0 800 800" xmlns="http://www.w3.org/2000/svg" style="background-color:white">
<path stroke="black" fill="transparent" d="
M 328.90,661.85
L 388.42,685.79
"/>
<path stroke="black" fill="transparent" d="
M 296.00,236.06
L 318.31,239.11
"/>
<path stroke="black" fill="transparent" d="
M 757.17,727.89
L 754.15,746.48
"/>
<path stroke="black" fill="transparent" d="
M 689.63,438.10
L 643.84,428.36
L 637.18,440.19
"/>
<path stroke="black" fill="transparent" d="
M 732.72,494.41
L 725.68,518.29
"/>
<path stroke="black" fill="transparent" d="
M 396.92,286.37
L 379.81,295.85
"/>
<path stroke="black" fill="transparent" d="
M 481.97,287.11
L 469.68,295.42
"/>
<path stroke="black" fill="transparent" d="
M 85.91,365.82
L 109.74,371.89
"/>
<path stroke="black" fill="transparent" d="
M 271.55,311.66
L 251.62,321.23
"/>
<path stroke="black" fill="transparent" d="
M 428.37,338.12
L 414.63,347.88
"/>
<path stroke="black" fill="transparent" d="
M 243.41,303.95
L 221.12,313.91
"/>
<path stroke="black" fill="transparent" d="
M 504.91,263.07
L 493.99,270.21
"/>
<path stroke="black" fill="transparent" d="
M 141.12,305.60
L 114.19,316.00
"/>
<path stroke="black" fill="transparent" d="
M 427.42,294.87
L 456.75,299.59
"/>
<path stroke="black" fill="transparent" d="
M 249.80,321.23
L 246.98,322.58
"/>
<path stroke="black" fill="transparent" d="
M 478.35,254.03
L 466.78,260.81
"/>
<path stroke="black" fill="transparent" d="
M 311.23,267.47
L 310.72,256.89
"/>
<path stroke="black" fill="transparent" d="
M 454.40,271.70
L 482.48,275.78
"/>
<path stroke="black" fill="transparent" d="
M 355.71,365.58
L 336.36,378.42
"/>
<path stroke="black" fill="transparent" d="
M 474.12,417.25
L 453.51,437.67
"/>
<path stroke="black" fill="transparent" d="
M 326.45,250.35
L 310.72,256.89
"/>
<path stroke="black" fill="transparent" d="
M 252.09,271.66
L 276.69,275.70
"/>
<path stroke="black" fill="transparent" d="
M 302.10,279.91
L 327.53,284.09
"/>
<path stroke="black" fill="transparent" d="
M 677.50,683.43
L 761.30,712.01
"/>
<path stroke="black" fill="transparent" d="
M 560.57,276.33
L 561.55,265.18
"/>
<path stroke="black" fill="transparent" d="
M -0.23,462.40
L 17.89,468.72
"/>
<path stroke="black" fill="transparent" d="
M 286.95,253.36
L 310.72,256.89
"/>
<path stroke="black" fill="transparent" d="
M 728.52,502.71
L 719.35,533.43
"/>
<path stroke="black" fill="transparent" d="
M 252.35,274.86
L 252.09,271.66
"/>
<path stroke="black" fill="transparent" d="
M 707.61,412.29
L 711.06,393.34
"/>
<path stroke="black" fill="transparent" d="
M 457.98,508.19
L 457.79,508.41
"/>
<path stroke="black" fill="transparent" d="
M 482.05,285.27
L 499.75,287.93
"/>
<path stroke="black" fill="transparent" d="
M 23.21,367.18
L 16.95,338.41
"/>
<path stroke="black" fill="transparent" d="
M 187.17,457.69
L 147.88,482.61
"/>
<path stroke="black" fill="transparent" d="
M 114.35,317.01
L 141.86,322.90
"/>
<path stroke="black" fill="transparent" d="
M 94.24,704.67
L 157.92,736.76
"/>
<path stroke="black" fill="transparent" d="
M 673.00,374.45
L 672.87,374.68
"/>
<path stroke="black" fill="transparent" d="
M 726.52,350.89
L 771.43,358.30
"/>
<path stroke="black" fill="transparent" d="
M 82.26,384.59
L 113.68,393.06
"/>
<path stroke="black" fill="transparent" d="
M 271.13,305.89
L 300.20,311.26
"/>
<path stroke="black" fill="transparent" d="
M 252.41,579.46
L 215.80,612.32
"/>
<path stroke="black" fill="transparent" d="
M 533.61,507.28
L 535.29,487.21
"/>
<path stroke="black" fill="transparent" d="
M 409.18,390.36
L 449.71,399.28
"/>
<path stroke="black" fill="transparent" d="
M 232.20,350.03
L 230.91,336.58
"/>
<path stroke="black" fill="transparent" d="
M 272.98,377.07
L 273.25,377.13
"/>
<path stroke="black" fill="transparent" d="
M 758.90,404.69
L 759.38,402.42
"/>
<path stroke="black" fill="transparent" d="
M 108.45,436.11
L 144.08,446.87
"/>
<path stroke="black" fill="transparent" d="
M 17.74,398.21
L 15.92,390.12
"/>
<path stroke="black" fill="transparent" d="
M 503.18,672.98
L 505.47,641.30
"/>
<path stroke="black" fill="transparent" d="
M 758.69,745.92
L 800.44,760.88
"/>
<path stroke="black" fill="transparent" d="
M 273.02,373.95
L 245.79,389.90
"/>
<path stroke="black" fill="transparent" d="
M 364.44,446.25
L 364.34,441.86
L 346.47,456.59
"/>
<path stroke="black" fill="transparent" d="
M 407.44,426.52
L 453.51,437.67
"/>
<path stroke="black" fill="transparent" d="
M 231.95,490.04
L 232.30,490.15
"/>
<path stroke="black" fill="transparent" d="
M 371.30,262.68
L 399.06,266.76
"/>
<path stroke="black" fill="transparent" d="
M 145.21,359.51
L 120.43,370.98
"/>
<path stroke="black" fill="transparent" d="
M 678.04,300.33
L 678.69,296.13
L 676.07,299.83
"/>
<path stroke="black" fill="transparent" d="
M 440.19,254.24
L 427.30,261.14
"/>
<path stroke="black" fill="transparent" d="
M 265.29,632.26
L 216.18,681.57
"/>
<path stroke="black" fill="transparent" d="
M 61.88,499.60
L 101.19,513.78
"/>
<path stroke="black" fill="transparent" d="
M 291.43,296.40
L 291.32,294.62
"/>
<path stroke="black" fill="transparent" d="
M 764.87,383.22
L 764.80,383.47
"/>
<path stroke="black" fill="transparent" d="
M 644.07,426.76
L 654.46,408.34
L 608.98,399.19
L 598.32,414.44
"/>
<path stroke="black" fill="transparent" d="
M 310.64,292.38
L 338.39,297.13
"/>
<path stroke="black" fill="transparent" d="
M 375.34,260.39
L 375.28,256.40
"/>
<path stroke="black" fill="transparent" d="
M 562.44,298.89
L 551.76,308.41
"/>
<path stroke="black" fill="transparent" d="
M 427.63,287.96
L 436.32,289.33
"/>
<path stroke="black" fill="transparent" d="
M 276.97,275.58
L 276.69,275.70
"/>
<path stroke="black" fill="transparent" d="
M 640.14,353.58
L 640.85,348.41
"/>
<path stroke="black" fill="transparent" d="
M 622.50,590.94
L 603.60,634.01
"/>
<path stroke="black" fill="transparent" d="
M 770.26,363.79
L 800.74,368.91
"/>
<path stroke="black" fill="transparent" d="
M 652.83,419.22
L 654.46,408.34
"/>
<path stroke="black" fill="transparent" d="
M 478.12,259.29
L 478.35,254.03
"/>
<path stroke="black" fill="transparent" d="
M 300.25,312.26
L 326.36,317.10
"/>
<path stroke="black" fill="transparent" d="
M 113.94,392.93
L 113.68,393.06
"/>
<path stroke="black" fill="transparent" d="
M 20.66,480.54
L 60.89,494.92
"/>
<path stroke="black" fill="transparent" d="
M 143.67,348.95
L 173.99,355.99
"/>
<path stroke="black" fill="transparent" d="
M 205.66,363.36
L 231.66,369.40
"/>
<path stroke="black" fill="transparent" d="
M 264.00,251.33
L 246.52,257.89
"/>
<path stroke="black" fill="transparent" d="
M 758.15,747.97
L 749.94,800.42
"/>
<path stroke="black" fill="transparent" d="
M 702.69,423.92
L 707.61,412.25
L 753.77,421.38
"/>
<path stroke="black" fill="transparent" d="
M 370.32,369.57
L 409.25,377.84
"/>
<path stroke="black" fill="transparent" d="
M 195.33,520.65
L 156.88,548.91
"/>
<path stroke="black" fill="transparent" d="
M 383.53,281.69
L 412.82,286.29
"/>
<path stroke="black" fill="transparent" d="
M 223.78,254.35
L 246.52,257.89
"/>
<path stroke="black" fill="transparent" d="
M 731.42,500.72
L 732.73,494.35
"/>
<path stroke="black" fill="transparent" d="
M 114.82,344.90
L 115.04,344.95
"/>
<path stroke="black" fill="transparent" d="
M 680.11,286.90
L 714.95,291.64
"/>
<path stroke="black" fill="transparent" d="
M 500.09,284.34
L 530.95,288.92
"/>
<path stroke="black" fill="transparent" d="
M 342.29,338.18
L 342.10,332.24
"/>
<path stroke="black" fill="transparent" d="
M 564.15,335.04
L 601.73,341.46
"/>
<path stroke="black" fill="transparent" d="
M 432.58,666.63
L 433.72,616.52
"/>
<path stroke="black" fill="transparent" d="
M 441.22,286.66
L 441.51,273.65
"/>
<path stroke="black" fill="transparent" d="
M 750.01,302.02
L 787.04,307.15
"/>
<path stroke="black" fill="transparent" d="
M 552.06,347.17
L 581.64,352.46
"/>
<path stroke="black" fill="transparent" d="
M 145.66,416.03
L 145.40,414.32
"/>
<path stroke="black" fill="transparent" d="
M 800.09,469.75
L 797.41,486.50
"/>
<path stroke="black" fill="transparent" d="
M 64.40,444.47
L 17.89,468.72
"/>
<path stroke="black" fill="transparent" d="
M 796.69,489.43
L 797.41,486.50
"/>
<path stroke="black" fill="transparent" d="
M 309.23,473.16
L 277.11,498.84
"/>
<path stroke="black" fill="transparent" d="
M 537.57,362.24
L 500.39,355.23
L 486.91,367.28
"/>
<path stroke="black" fill="transparent" d="
M 464.75,574.50
L 433.72,616.52
"/>
<path stroke="black" fill="transparent" d="
M 454.71,269.34
L 457.62,269.75
"/>
<path stroke="black" fill="transparent" d="
M 541.90,281.80
L 544.88,282.22
"/>
<path stroke="black" fill="transparent" d="
M 428.88,374.95
L 468.09,383.12
"/>
<path stroke="black" fill="transparent" d="
M 506.17,320.77
L 506.99,306.92
L 493.67,317.27
"/>
<path stroke="black" fill="transparent" d="
M 271.81,310.58
L 271.48,310.74
"/>
<path stroke="black" fill="transparent" d="
M -0.56,334.08
L 16.95,338.41
"/>
<path stroke="black" fill="transparent" d="
M 54.95,343.30
L 54.70,343.40
"/>
<path stroke="black" fill="transparent" d="
M 348.09,402.62
L 347.90,402.75
"/>
<path stroke="black" fill="transparent" d="
M 368.07,615.41
L 328.88,661.48
"/>
<path stroke="black" fill="transparent" d="
M 621.36,374.01
L 610.14,389.72
"/>
<path stroke="black" fill="transparent" d="
M 320.93,351.36
L 321.19,351.42
"/>
<path stroke="black" fill="transparent" d="
M 551.61,277.10
L 551.98,272.64
"/>
<path stroke="black" fill="transparent" d="
M 311.00,299.74
L 310.31,285.75
L 291.32,294.62
"/>
<path stroke="black" fill="transparent" d="
M 394.44,331.87
L 394.41,322.37
"/>
<path stroke="black" fill="transparent" d="
M 703.85,593.52
L 776.97,614.76
"/>
<path stroke="black" fill="transparent" d="
M 611.51,378.57
L 599.22,395.35
"/>
<path stroke="black" fill="transparent" d="
M 749.85,440.35
L 749.76,440.66
"/>
<path stroke="black" fill="transparent" d="
M 481.80,290.76
L 482.48,275.78
"/>
<path stroke="black" fill="transparent" d="
M 769.49,660.65
L 771.17,654.09
"/>
<path stroke="black" fill="transparent" d="
M 143.27,332.59
L 141.86,322.90
"/>
<path stroke="black" fill="transparent" d="
M 341.64,247.14
L 341.41,247.24
"/>
<path stroke="black" fill="transparent" d="
M 206.30,371.23
L 206.55,371.29
"/>
<path stroke="black" fill="transparent" d="
M 496.61,277.79
L 504.37,272.53
L 521.88,275.00
"/>
<path stroke="black" fill="transparent" d="
M 142.56,304.73
L 163.98,309.04
"/>
<path stroke="black" fill="transparent" d="
M 584.17,427.75
L 586.62,405.52
"/>
<path stroke="black" fill="transparent" d="
M 646.47,779.74
L 697.76,800.11
"/>
<path stroke="black" fill="transparent" d="
M 708.10,309.04
L 745.21,314.43
"/>
<path stroke="black" fill="transparent" d="
M 355.71,365.58
L 321.51,358.33
L 311.77,364.26
"/>
<path stroke="black" fill="transparent" d="
M 113.89,394.31
L 112.78,387.69
"/>
<path stroke="black" fill="transparent" d="
M 567.82,463.08
L 569.30,448.61
L 620.34,460.48
"/>
<path stroke="black" fill="transparent" d="
M 725.25,518.59
L 728.52,502.71
"/>
<path stroke="black" fill="transparent" d="
M 294.60,527.80
L 278.95,522.72
L 259.85,538.80
"/>
<path stroke="black" fill="transparent" d="
M 63.03,505.08
L 61.88,499.60
"/>
<path stroke="black" fill="transparent" d="
M 98.65,723.43
L 98.40,723.66
"/>
<path stroke="black" fill="transparent" d="
M 551.90,348.93
L 552.33,344.04
"/>
<path stroke="black" fill="transparent" d="
M 376.76,533.72
L 376.51,517.32
L 344.18,549.57
"/>
<path stroke="black" fill="transparent" d="
M 375.73,343.88
L 406.46,349.91
"/>
<path stroke="black" fill="transparent" d="
M 246.87,262.05
L 267.67,265.35
"/>
<path stroke="black" fill="transparent" d="
M 514.79,340.96
L 500.48,353.69
"/>
<path stroke="black" fill="transparent" d="
M 499.81,289.46
L 500.09,284.34
"/>
<path stroke="black" fill="transparent" d="
M 319.86,301.35
L 300.20,311.26
"/>
<path stroke="black" fill="transparent" d="
M 764.31,385.75
L 759.38,402.42
"/>
<path stroke="black" fill="transparent" d="
M 572.38,554.65
L 574.90,532.05
"/>
<path stroke="black" fill="transparent" d="
M 355.66,363.35
L 375.82,350.07
L 399.56,354.82
"/>
<path stroke="black" fill="transparent" d="
M 179.41,397.83
L 177.15,380.36
"/>
<path stroke="black" fill="transparent" d="
M 779.63,339.10
L 779.68,338.83
"/>
<path stroke="black" fill="transparent" d="
M 380.10,322.02
L 379.81,295.85
"/>
<path stroke="black" fill="transparent" d="
M 51.24,325.78
L 16.95,338.41
"/>
<path stroke="black" fill="transparent" d="
M 653.97,516.58
L 719.35,533.44
"/>
<path stroke="black" fill="transparent" d="
M 630.67,367.00
L 672.87,374.68
"/>
<path stroke="black" fill="transparent" d="
M 604.13,298.25
L 604.33,296.52
"/>
<path stroke="black" fill="transparent" d="
M 468.10,382.90
L 449.71,399.28
"/>
<path stroke="black" fill="transparent" d="
M 333.46,369.09
L 309.51,384.47
"/>
<path stroke="black" fill="transparent" d="
M 561.55,265.18
L 551.98,272.64
"/>
<path stroke="black" fill="transparent" d="
M 797.68,477.09
L 795.80,488.65
"/>
<path stroke="black" fill="transparent" d="
M 492.76,334.74
L 493.67,317.27
"/>
<path stroke="black" fill="transparent" d="
M 229.10,781.25
L 266.52,800.31
"/>
<path stroke="black" fill="transparent" d="
M 216.95,416.51
L 215.97,407.48
"/>
<path stroke="black" fill="transparent" d="
M 232.57,489.95
L 232.30,490.15
"/>
<path stroke="black" fill="transparent" d="
M 663.85,392.13
L 654.37,408.96
"/>
<path stroke="black" fill="transparent" d="
M 480.97,474.77
L 452.55,467.40
L 447.83,472.40
"/>
<path stroke="black" fill="transparent" d="
M 314.62,390.75
L 333.80,378.11
L 362.41,384.48
"/>
<path stroke="black" fill="transparent" d="
M 326.64,255.09
L 326.45,250.35
"/>
<path stroke="black" fill="transparent" d="
M 691.47,636.01
L 691.51,635.79
"/>
<path stroke="black" fill="transparent" d="
M 310.97,261.91
L 321.95,263.58
"/>
<path stroke="black" fill="transparent" d="
M 726.52,350.89
L 732.30,337.85
L 775.51,344.67
L 771.43,358.30
"/>
<path stroke="black" fill="transparent" d="
M 629.30,312.11
L 620.62,322.45
"/>
<path stroke="black" fill="transparent" d="
M 185.05,269.76
L 205.05,262.58
L 228.15,266.36
"/>
<path stroke="black" fill="transparent" d="
M 738.68,476.19
L 742.84,456.24
"/>
<path stroke="black" fill="transparent" d="
M 779.66,338.92
L 783.02,323.34
L 779.72,334.53
"/>
<path stroke="black" fill="transparent" d="
M 201.23,341.43
L 201.02,341.53
"/>
<path stroke="black" fill="transparent" d="
M 252.49,580.30
L 252.41,579.46
"/>
<path stroke="black" fill="transparent" d="
M 640.99,348.21
L 640.85,348.41
"/>
<path stroke="black" fill="transparent" d="
M 271.86,316.03
L 271.13,305.89
"/>
<path stroke="black" fill="transparent" d="
M 574.90,532.05
L 639.47,549.97
"/>
<path stroke="black" fill="transparent" d="
M 341.45,248.27
L 326.62,254.56
"/>
<path stroke="black" fill="transparent" d="
M 48.35,611.48
L 45.02,597.38
"/>
<path stroke="black" fill="transparent" d="
M 348.27,414.84
L 347.66,394.95
"/>
<path stroke="black" fill="transparent" d="
M 371.77,277.08
L 371.53,277.20
"/>
<path stroke="black" fill="transparent" d="
M 283.28,717.78
L 283.08,715.35
"/>
<path stroke="black" fill="transparent" d="
M 64.40,444.47
L 27.06,432.58
L -0.35,445.86
"/>
<path stroke="black" fill="transparent" d="
M 427.99,305.94
L 417.76,312.45
"/>
<path stroke="black" fill="transparent" d="
M 169.25,800.52
L 157.92,736.76
"/>
<path stroke="black" fill="transparent" d="
M 258.13,286.00
L 238.21,294.53
"/>
<path stroke="black" fill="transparent" d="
M 91.34,303.12
L 101.39,305.20
"/>
<path stroke="black" fill="transparent" d="
M 674.38,699.38
L 679.63,672.61
"/>
<path stroke="black" fill="transparent" d="
M 681.44,356.91
L 683.63,343.34
"/>
<path stroke="black" fill="transparent" d="
M 717.92,377.67
L 718.37,375.20
"/>
<path stroke="black" fill="transparent" d="
M 277.81,507.90
L 245.59,534.18
"/>
<path stroke="black" fill="transparent" d="
M 291.82,342.63
L 310.22,332.51
L 341.04,338.58
"/>
<path stroke="black" fill="transparent" d="
M 171.28,335.05
L 201.02,341.53
"/>
<path stroke="black" fill="transparent" d="
M 318.56,244.94
L 318.31,239.11
"/>
<path stroke="black" fill="transparent" d="
M 454.39,278.36
L 454.19,278.48
"/>
<path stroke="black" fill="transparent" d="
M 76.15,395.91
L 37.47,414.01
"/>
<path stroke="black" fill="transparent" d="
M 555.52,744.29
L 558.68,716.72
"/>
<path stroke="black" fill="transparent" d="
M 263.72,252.26
L 264.07,252.32
"/>
<path stroke="black" fill="transparent" d="
M 800.29,370.82
L 769.86,365.68
L 765.37,380.78
"/>
<path stroke="black" fill="transparent" d="
M 717.84,540.85
L 707.36,576.11
"/>
<path stroke="black" fill="transparent" d="
M 228.74,272.67
L 228.15,266.36
L 212.60,272.22
"/>
<path stroke="black" fill="transparent" d="
M 361.94,321.53
L 376.27,324.17
"/>
<path stroke="black" fill="transparent" d="
M 112.78,387.69
L 132.45,392.91
"/>
<path stroke="black" fill="transparent" d="
M 283.71,406.72
L 309.79,389.72
L 347.78,398.60
"/>
<path stroke="black" fill="transparent" d="
M 557.10,309.84
L 561.84,305.52
L 591.85,310.17
"/>
<path stroke="black" fill="transparent" d="
M 481.22,476.70
L 481.39,473.27
"/>
<path stroke="black" fill="transparent" d="
M 707.75,311.11
L 708.10,309.04
"/>
<path stroke="black" fill="transparent" d="
M 663.22,396.24
L 671.92,380.68
L 713.06,388.29
"/>
<path stroke="black" fill="transparent" d="
M 84.29,395.54
L 80.14,373.13
"/>
<path stroke="black" fill="transparent" d="
M 504.38,272.33
L 504.91,263.07
"/>
<path stroke="black" fill="transparent" d="
M 605.28,500.14
L 605.16,500.34
"/>
<path stroke="black" fill="transparent" d="
M 788.32,306.20
L 790.17,297.64
L 787.70,305.96
"/>
<path stroke="black" fill="transparent" d="
M 217.20,689.42
L 216.19,681.57
"/>
<path stroke="black" fill="transparent" d="
M 361.74,320.79
L 342.10,332.24
"/>
<path stroke="black" fill="transparent" d="
M 153.75,594.41
L 103.61,574.13
L 50.64,612.11
"/>
<path stroke="black" fill="transparent" d="
M 397.58,673.59
L 397.58,673.35
L 465.08,699.84
"/>
<path stroke="black" fill="transparent" d="
M 681.99,353.54
L 724.67,360.80
"/>
<path stroke="black" fill="transparent" d="
M 761.74,397.84
L 764.80,383.47
"/>
<path stroke="black" fill="transparent" d="
M 473.50,431.31
L 474.12,417.25
"/>
<path stroke="black" fill="transparent" d="
M 563.31,305.57
L 571.68,297.91
L 600.08,302.17
"/>
<path stroke="black" fill="transparent" d="
M 276.90,278.83
L 276.46,272.33
"/>
<path stroke="black" fill="transparent" d="
M 351.22,339.70
L 362.00,333.15
L 385.20,337.59
"/>
<path stroke="black" fill="transparent" d="
M 697.11,324.70
L 700.62,325.24
"/>
<path stroke="black" fill="transparent" d="
M 302.10,279.91
L 319.24,272.19
L 344.98,276.25
"/>
<path stroke="black" fill="transparent" d="
M 329.16,283.89
L 344.98,276.30
L 350.73,277.20
"/>
<path stroke="black" fill="transparent" d="
M 504.24,658.29
L 575.07,683.82
"/>
<path stroke="black" fill="transparent" d="
M 323.81,318.47
L 300.36,314.10
L 296.52,316.05
"/>
<path stroke="black" fill="transparent" d="
M 416.21,303.95
L 427.38,297.07
L 440.53,299.21
"/>
<path stroke="black" fill="transparent" d="
M 370.48,378.99
L 370.32,369.57
"/>
<path stroke="black" fill="transparent" d="
M 584.58,324.83
L 585.01,320.68
"/>
<path stroke="black" fill="transparent" d="
M 689.31,340.95
L 690.91,331.23
"/>
<path stroke="black" fill="transparent" d="
M 654.94,514.07
L 605.04,501.27
L 603.41,504.20
"/>
<path stroke="black" fill="transparent" d="
M 652.80,523.90
L 653.97,516.58
"/>
<path stroke="black" fill="transparent" d="
M 728.20,347.06
L 689.34,340.73
L 681.99,353.54
"/>
<path stroke="black" fill="transparent" d="
M 413.69,259.23
L 399.06,266.76
"/>
<path stroke="black" fill="transparent" d="
M 399.06,273.57
L 399.06,266.76
"/>
<path stroke="black" fill="transparent" d="
M 115.95,326.96
L 114.19,316.00
"/>
<path stroke="black" fill="transparent" d="
M 103.62,574.19
L 101.30,562.24
"/>
<path stroke="black" fill="transparent" d="
M 101.74,564.51
L 46.44,603.38
"/>
<path stroke="black" fill="transparent" d="
M 228.02,268.82
L 228.38,268.88
"/>
<path stroke="black" fill="transparent" d="
M 205.91,365.58
L 157.63,390.38
"/>
<path stroke="black" fill="transparent" d="
M 558.01,722.58
L 650.49,758.19
"/>
<path stroke="black" fill="transparent" d="
M 355.72,366.00
L 355.66,363.35
L 373.62,367.14
"/>
<path stroke="black" fill="transparent" d="
M 449.45,408.24
L 446.74,410.71
"/>
<path stroke="black" fill="transparent" d="
M 146.93,371.26
L 143.66,348.95
"/>
<path stroke="black" fill="transparent" d="
M 321.51,358.37
L 321.19,351.42
"/>
<path stroke="black" fill="transparent" d="
M 364.75,238.24
L 389.18,241.48
"/>
<path stroke="black" fill="transparent" d="
M 713.59,299.48
L 714.95,291.64
"/>
<path stroke="black" fill="transparent" d="
M 413.61,269.54
L 441.51,273.65
"/>
<path stroke="black" fill="transparent" d="
M 611.74,329.90
L 611.77,329.63
"/>
<path stroke="black" fill="transparent" d="
M 210.71,386.72
L 208.21,386.10
L 184.25,399.20
"/>
<path stroke="black" fill="transparent" d="
M -0.57,663.76
L 38.10,683.46
"/>
<path stroke="black" fill="transparent" d="
M 552.15,478.81
L 553.76,461.74
L 535.29,487.21
"/>
<path stroke="black" fill="transparent" d="
M 396.95,300.98
L 396.92,286.37
"/>
<path stroke="black" fill="transparent" d="
M 223.92,446.83
L 223.66,447.00
"/>
<path stroke="black" fill="transparent" d="
M 110.83,447.78
L 110.52,447.94
"/>
<path stroke="black" fill="transparent" d="
M 85.91,365.82
L 116.28,352.59
L 145.21,359.51
"/>
<path stroke="black" fill="transparent" d="
M 653.98,516.58
L 666.67,487.79
L 728.52,502.71
"/>
<path stroke="black" fill="transparent" d="
M 141.70,298.74
L 130.03,303.14
"/>
<path stroke="black" fill="transparent" d="
M 643.29,335.04
L 611.74,329.87
L 601.70,341.71
L 640.85,348.41
"/>
<path stroke="black" fill="transparent" d="
M 348.26,414.55
L 347.78,398.60
L 322.84,416.45
"/>
<path stroke="black" fill="transparent" d="
M 100.03,634.43
L 38.10,683.46
"/>
<path stroke="black" fill="transparent" d="
M 263.87,289.82
L 291.32,294.62
"/>
<path stroke="black" fill="transparent" d="
M 634.63,581.28
L 639.47,549.96
"/>
<path stroke="black" fill="transparent" d="
M 662.33,402.02
L 663.85,392.13
"/>
<path stroke="black" fill="transparent" d="
M 678.04,300.31
L 680.11,286.90
"/>
<path stroke="black" fill="transparent" d="
M 231.74,484.79
L 277.11,498.84
"/>
<path stroke="black" fill="transparent" d="
M 783.15,576.16
L 786.62,562.34
"/>
<path stroke="black" fill="transparent" d="
M 662.35,401.84
L 662.59,400.30
"/>
<path stroke="black" fill="transparent" d="
M 264.35,296.31
L 263.87,289.82
"/>
<path stroke="black" fill="transparent" d="
M 711.06,393.34
L 759.38,402.42
"/>
<path stroke="black" fill="transparent" d="
M 608.96,399.36
L 611.52,378.57
"/>
<path stroke="black" fill="transparent" d="
M 169.04,797.83
L 168.81,798.08
"/>
<path stroke="black" fill="transparent" d="
M 619.57,330.92
L 619.87,328.55
"/>
<path stroke="black" fill="transparent" d="
M 191.20,300.41
L 171.74,308.33
"/>
<path stroke="black" fill="transparent" d="
M 530.59,293.88
L 522.35,300.42
"/>
<path stroke="black" fill="transparent" d="
M 375.82,350.32
L 375.73,343.88
"/>
<path stroke="black" fill="transparent" d="
M 436.15,766.68
L 435.99,766.96
"/>
<path stroke="black" fill="transparent" d="
M 84.30,395.57
L 82.26,384.59
"/>
<path stroke="black" fill="transparent" d="
M 287.51,262.49
L 286.95,253.36
"/>
<path stroke="black" fill="transparent" d="
M 252.37,275.04
L 252.26,273.67
"/>
<path stroke="black" fill="transparent" d="
M 278.97,523.09
L 277.11,498.84
"/>
<path stroke="black" fill="transparent" d="
M 343.97,549.49
L 344.18,549.57
"/>
<path stroke="black" fill="transparent" d="
M 164.82,285.17
L 141.02,293.98
"/>
<path stroke="black" fill="transparent" d="
M 612.63,473.61
L 567.85,462.83
L 556.22,479.65
"/>
<path stroke="black" fill="transparent" d="
M 212.09,283.70
L 187.39,279.33
L 208.28,271.52
L 232.56,275.62
L 212.09,283.70
"/>
<path stroke="black" fill="transparent" d="
M 697.69,319.67
L 690.91,331.23
"/>
<path stroke="black" fill="transparent" d="
M 653.35,275.74
L 646.26,283.94
"/>
<path stroke="black" fill="transparent" d="
M 628.53,318.10
L 629.22,312.71
"/>
<path stroke="black" fill="transparent" d="
M 695.52,332.67
L 697.69,319.67
"/>
<path stroke="black" fill="transparent" d="
M 144.83,372.31
L 177.15,380.36
"/>
<path stroke="black" fill="transparent" d="
M 769.50,660.62
L 775.97,635.42
L 768.06,686.03
"/>
<path stroke="black" fill="transparent" d="
M 188.22,283.40
L 187.88,283.53
"/>
<path stroke="black" fill="transparent" d="
M 608.97,399.26
L 610.14,389.72
"/>
<path stroke="black" fill="transparent" d="
M 375.32,259.55
L 362.23,265.78
"/>
<path stroke="black" fill="transparent" d="
M 159.81,747.38
L 229.31,782.87
"/>
<path stroke="black" fill="transparent" d="
M 235.95,537.44
L 195.71,523.59
L 160.10,549.95
"/>
<path stroke="black" fill="transparent" d="
M 506.85,312.44
L 506.65,312.59
"/>
<path stroke="black" fill="transparent" d="
M 539.86,324.30
L 540.26,319.27
"/>
<path stroke="black" fill="transparent" d="
M 389.24,251.48
L 389.18,241.48
"/>
<path stroke="black" fill="transparent" d="
M 287.51,262.51
L 287.09,255.56
"/>
<path stroke="black" fill="transparent" d="
M 356.41,511.20
L 355.97,495.45
"/>
<path stroke="black" fill="transparent" d="
M 646.00,291.48
L 652.19,284.13
L 679.77,287.90
"/>
<path stroke="black" fill="transparent" d="
M 449.35,411.47
L 449.71,399.28
"/>
<path stroke="black" fill="transparent" d="
M 51.24,325.78
L 23.82,319.45
L -0.81,328.04
"/>
<path stroke="black" fill="transparent" d="
M 255.62,324.50
L 230.91,336.58
"/>
<path stroke="black" fill="transparent" d="
M 338.68,305.57
L 338.39,297.13
"/>
<path stroke="black" fill="transparent" d="
M 310.31,285.75
L 283.41,281.25
L 263.87,289.82
"/>
<path stroke="black" fill="transparent" d="
M 155.64,606.01
L 153.74,594.41
L 100.50,636.75
"/>
<path stroke="black" fill="transparent" d="
M 474.36,684.80
L 474.38,684.54
L 558.68,716.71
"/>
<path stroke="black" fill="transparent" d="
M 280.57,245.79
L 280.30,241.58
"/>
<path stroke="black" fill="transparent" d="
M 742.92,465.08
L 749.39,434.23
"/>
<path stroke="black" fill="transparent" d="
M 309.89,326.03
L 342.10,332.24
"/>
<path stroke="black" fill="transparent" d="
M 788.91,545.37
L 800.46,548.31
"/>
<path stroke="black" fill="transparent" d="
M 77.56,453.05
L 74.37,436.73
"/>
<path stroke="black" fill="transparent" d="
M 620.69,603.26
L 622.50,590.94
"/>
<path stroke="black" fill="transparent" d="
M 769.52,660.53
L 769.58,660.31
"/>
<path stroke="black" fill="transparent" d="
M 749.53,304.49
L 745.21,314.43
"/>
<path stroke="black" fill="transparent" d="
M 319.25,272.28
L 319.10,268.83
L 301.91,276.46
"/>
<path stroke="black" fill="transparent" d="
M 295.99,235.80
L 280.30,241.58
"/>
<path stroke="black" fill="transparent" d="
M 454.06,283.04
L 454.19,278.48
"/>
<path stroke="black" fill="transparent" d="
M 364.76,241.30
L 355.44,240.05
L 341.37,245.95
L 360.11,248.56
"/>
<path stroke="black" fill="transparent" d="
M 349.87,747.38
L 283.25,717.38
L 229.10,781.25
"/>
<path stroke="black" fill="transparent" d="
M 231.63,800.79
L 229.10,781.25
"/>
<path stroke="black" fill="transparent" d="
M 195.76,523.97
L 194.67,515.51
"/>
<path stroke="black" fill="transparent" d="
M 189.46,475.33
L 187.17,457.69
"/>
<path stroke="black" fill="transparent" d="
M 179.45,398.12
L 177.15,380.34
"/>
<path stroke="black" fill="transparent" d="
M 174.30,358.34
L 173.99,355.99
"/>
<path stroke="black" fill="transparent" d="
M 171.50,336.73
L 171.28,335.05
"/>
<path stroke="black" fill="transparent" d="
M 170.19,326.61
L 168.30,312.05
"/>
<path stroke="black" fill="transparent" d="
M 264.06,252.10
L 287.09,255.56
"/>
<path stroke="black" fill="transparent" d="
M 677.50,683.43
L 691.51,635.79
L 769.58,660.31
L 761.30,712.00
"/>
<path stroke="black" fill="transparent" d="
M 341.57,252.05
L 341.37,245.95
"/>
<path stroke="black" fill="transparent" d="
M 601.74,341.33
L 601.09,342.10
"/>
<path stroke="black" fill="transparent" d="
M 412.70,303.33
L 412.82,286.29
"/>
<path stroke="black" fill="transparent" d="
M 680.11,286.90
L 686.25,278.46
L 720.06,282.89
L 714.95,291.64
"/>
<path stroke="black" fill="transparent" d="
M 87.80,376.26
L 82.19,345.28
"/>
<path stroke="black" fill="transparent" d="
M 572.26,291.82
L 604.33,296.52
"/>
<path stroke="black" fill="transparent" d="
M 467.07,409.00
L 467.08,408.70
"/>
<path stroke="black" fill="transparent" d="
M 221.81,455.30
L 185.49,444.70
L 171.96,453.01
"/>
<path stroke="black" fill="transparent" d="
M 748.62,446.09
L 751.18,433.89
L 745.14,454.51
"/>
<path stroke="black" fill="transparent" d="
M 416.81,558.83
L 431.60,541.42
L 484.02,557.49
"/>
<path stroke="black" fill="transparent" d="
M 572.39,554.59
L 572.48,553.78
"/>
<path stroke="black" fill="transparent" d="
M 350.48,252.86
L 375.28,256.40
"/>
<path stroke="black" fill="transparent" d="
M 413.56,275.63
L 413.61,269.54
"/>
<path stroke="black" fill="transparent" d="
M 513.24,439.96
L 473.53,430.62
L 492.10,411.63
L 536.73,421.53
L 527.21,432.85
"/>
<path stroke="black" fill="transparent" d="
M 106.12,468.97
L 147.88,482.61
"/>
<path stroke="black" fill="transparent" d="
M 757.05,728.35
L 757.17,727.89
"/>
<path stroke="black" fill="transparent" d="
M 748.61,446.09
L 753.51,422.85
"/>
<path stroke="black" fill="transparent" d="
M 138.00,375.58
L 114.77,369.72
L 82.26,384.59
"/>
<path stroke="black" fill="transparent" d="
M 235.05,281.86
L 252.35,274.83
L 276.90,278.92
L 259.41,286.43
"/>
<path stroke="black" fill="transparent" d="
M 95.75,402.96
L 113.86,394.10
L 124.48,396.98
"/>
<path stroke="black" fill="transparent" d="
M 444.96,328.32
L 455.25,330.16
"/>
<path stroke="black" fill="transparent" d="
M 355.51,357.71
L 321.16,350.59
L 342.29,338.03
L 375.74,344.61
L 355.51,357.71
L 355.72,365.96
"/>
<path stroke="black" fill="transparent" d="
M 98.40,723.66
L 111.21,782.14
L 55.42,751.22
L 40.77,693.91
"/>
<path stroke="black" fill="transparent" d="
M 283.21,399.40
L 265.32,410.82
"/>
<path stroke="black" fill="transparent" d="
M 17.73,398.16
L 13.72,380.33
L 41.19,388.03
"/>
<path stroke="black" fill="transparent" d="
M 221.63,427.91
L 253.59,408.02
L 294.31,418.38
"/>
<path stroke="black" fill="transparent" d="
M 328.88,661.50
L 283.08,715.35
"/>
<path stroke="black" fill="transparent" d="
M 457.71,510.44
L 457.96,503.73
L 514.28,519.50
"/>
<path stroke="black" fill="transparent" d="
M 238.29,295.51
L 238.21,294.53
"/>
<path stroke="black" fill="transparent" d="
M 191.17,303.49
L 191.56,303.56
"/>
<path stroke="black" fill="transparent" d="
M -0.35,376.53
L 23.17,367.01
L 36.70,370.64
"/>
<path stroke="black" fill="transparent" d="
M 287.35,255.45
L 287.09,255.56
"/>
<path stroke="black" fill="transparent" d="
M 469.53,299.40
L 469.86,290.87
L 456.75,299.59
"/>
<path stroke="black" fill="transparent" d="
M 356.08,491.01
L 355.86,491.21
"/>
<path stroke="black" fill="transparent" d="
M 701.90,321.21
L 739.90,326.98
"/>
<path stroke="black" fill="transparent" d="
M 567.84,462.90
L 568.53,456.22
"/>
<path stroke="black" fill="transparent" d="
M 100.29,636.66
L 100.50,636.75
"/>
<path stroke="black" fill="transparent" d="
M 102.15,644.79
L 100.03,634.43
"/>
<path stroke="black" fill="transparent" d="
M 707.56,412.56
L 707.88,410.77
L 702.36,423.84
"/>
<path stroke="black" fill="transparent" d="
M 295.73,441.08
L 294.31,418.38
L 263.60,439.39
"/>
<path stroke="black" fill="transparent" d="
M 362.01,333.39
L 362.00,332.85
L 385.71,337.38
"/>
<path stroke="black" fill="transparent" d="
M 783.15,576.14
L 776.97,614.76
"/>
<path stroke="black" fill="transparent" d="
M 61.88,499.60
L 106.87,473.15
L 148.54,486.88
"/>
<path stroke="black" fill="transparent" d="
M 54.88,546.14
L 54.33,543.62
L 101.30,562.24
"/>
<path stroke="black" fill="transparent" d="
M 318.92,264.93
L 344.76,268.89
"/>
<path stroke="black" fill="transparent" d="
M 397.58,673.35
L 355.17,731.48
"/>
<path stroke="black" fill="transparent" d="
M 246.61,322.61
L 249.79,321.09
L 258.01,322.72
"/>
<path stroke="black" fill="transparent" d="
M 678.05,300.25
L 678.51,297.29
"/>
<path stroke="black" fill="transparent" d="
M 691.74,634.65
L 769.88,659.14
"/>
<path stroke="black" fill="transparent" d="
M 413.57,275.54
L 413.58,272.97
"/>
<path stroke="black" fill="transparent" d="
M 338.67,296.99
L 338.39,297.13
"/>
<path stroke="black" fill="transparent" d="
M 376.58,519.25
L 388.74,522.94
"/>
<path stroke="black" fill="transparent" d="
M 469.53,299.53
L 469.55,298.93
"/>
<path stroke="black" fill="transparent" d="
M 121.02,772.35
L 111.21,782.14
"/>
<path stroke="black" fill="transparent" d="
M 427.42,294.87
L 441.22,286.44
L 469.86,290.87
"/>
<path stroke="black" fill="transparent" d="
M 779.06,340.96
L 779.68,338.83
L 800.49,342.06
"/>
<path stroke="black" fill="transparent" d="
M 337.58,285.40
L 328.35,283.89
L 310.64,292.38
"/>
<path stroke="black" fill="transparent" d="
M 221.30,315.75
L 221.12,313.91
"/>
<path stroke="black" fill="transparent" d="
M 309.80,389.86
L 309.51,384.47
"/>
<path stroke="black" fill="transparent" d="
M 620.09,383.93
L 622.94,361.67
"/>
<path stroke="black" fill="transparent" d="
M 628.51,318.27
L 629.30,312.11
"/>
<path stroke="black" fill="transparent" d="
M 387.30,457.81
L 407.38,439.80
L 407.44,426.52
"/>
<path stroke="black" fill="transparent" d="
M 202.06,350.70
L 199.72,330.02
L 230.91,336.58
"/>
<path stroke="black" fill="transparent" d="
M 405.05,506.14
L 405.09,493.52
L 457.79,508.41
"/>
<path stroke="black" fill="transparent" d="
M 52.96,741.61
L 38.11,683.46
"/>
<path stroke="black" fill="transparent" d="
M 394.29,324.44
L 380.10,321.86
L 362.00,332.85
"/>
<path stroke="black" fill="transparent" d="
M 532.44,595.79
L 505.47,641.30
"/>
<path stroke="black" fill="transparent" d="
M 503.19,672.89
L 503.20,672.66
L 569.26,697.01
"/>
<path stroke="black" fill="transparent" d="
M 224.16,258.26
L 223.78,254.35
"/>
<path stroke="black" fill="transparent" d="
M 224.41,454.01
L 221.63,427.91
L 263.60,439.39
"/>
<path stroke="black" fill="transparent" d="
M 756.81,757.69
L 800.14,773.48
"/>
<path stroke="black" fill="transparent" d="
M 103.64,574.31
L 101.74,564.51
"/>
<path stroke="black" fill="transparent" d="
M 474.12,417.25
L 429.74,407.16
L 407.44,426.52
"/>
<path stroke="black" fill="transparent" d="
M 108.45,436.11
L 145.66,416.00
L 183.13,426.48
"/>
<path stroke="black" fill="transparent" d="
M 258.61,243.03
L 258.26,238.46
L 280.30,241.58
"/>
<path stroke="black" fill="transparent" d="
M 481.81,290.57
L 481.97,287.11
"/>
<path stroke="black" fill="transparent" d="
M 206.76,371.17
L 206.55,371.29
"/>
<path stroke="black" fill="transparent" d="
M 212.34,286.12
L 212.09,283.70
"/>
<path stroke="black" fill="transparent" d="
M 3.24,578.83
L 54.82,545.84
L 101.74,564.51
"/>
<path stroke="black" fill="transparent" d="
M 629.33,377.05
L 629.37,376.76
L 669.62,384.29
"/>
<path stroke="black" fill="transparent" d="
M 783.02,323.34
L 744.58,317.69
L 740.68,326.72
"/>
<path stroke="black" fill="transparent" d="
M 246.92,262.72
L 246.85,261.84
"/>
<path stroke="black" fill="transparent" d="
M 790.17,297.64
L 754.03,292.80
L 750.01,302.02
"/>
<path stroke="black" fill="transparent" d="
M 319.91,302.38
L 319.86,301.35
"/>
<path stroke="black" fill="transparent" d="
M 742.86,465.35
L 742.94,465.01
L 739.75,475.95
"/>
<path stroke="black" fill="transparent" d="
M 238.29,295.52
L 237.86,290.62
"/>
<path stroke="black" fill="transparent" d="
M 481.81,290.57
L 482.05,285.27
"/>
<path stroke="black" fill="transparent" d="
M 714.39,557.74
L 719.35,533.44
"/>
<path stroke="black" fill="transparent" d="
M 452.54,467.75
L 453.51,437.67
"/>
<path stroke="black" fill="transparent" d="
M 738.69,476.15
L 740.12,469.32
"/>
<path stroke="black" fill="transparent" d="
M 774.36,350.02
L 775.51,344.67
"/>
<path stroke="black" fill="transparent" d="
M 536.46,424.87
L 538.85,395.63
L 586.62,405.52
"/>
<path stroke="black" fill="transparent" d="
M 431.61,541.01
L 484.28,557.14
"/>
<path stroke="black" fill="transparent" d="
M 571.66,298.09
L 572.47,289.59
"/>
<path stroke="black" fill="transparent" d="
M 271.86,316.06
L 271.55,311.66
"/>
<path stroke="black" fill="transparent" d="
M 505.69,552.32
L 512.63,542.30
L 569.67,559.01
"/>
<path stroke="black" fill="transparent" d="
M 769.48,660.72
L 769.88,659.14
"/>
<path stroke="black" fill="transparent" d="
M 321.51,358.53
L 321.07,348.67
"/>
<path stroke="black" fill="transparent" d="
M 405.05,506.37
L 405.09,494.91
"/>
<path stroke="black" fill="transparent" d="
M 464.75,574.38
L 464.76,574.16
L 433.73,616.17
"/>
<path stroke="black" fill="transparent" d="
M 149.75,528.35
L 104.06,511.97
L 54.32,543.62
"/>
<path stroke="black" fill="transparent" d="
M 536.69,327.10
L 539.87,324.22
L 569.76,329.22
"/>
<path stroke="black" fill="transparent" d="
M 115.97,327.09
L 114.35,317.01
"/>
<path stroke="black" fill="transparent" d="
M 287.29,258.90
L 272.72,264.77
"/>
<path stroke="black" fill="transparent" d="
M 223.78,254.35
L 241.63,247.98
L 264.00,251.33
"/>
<path stroke="black" fill="transparent" d="
M 273.46,377.01
L 273.25,377.13
"/>
<path stroke="black" fill="transparent" d="
M 402.43,235.49
L 378.46,232.43
L 364.75,238.24
"/>
<path stroke="black" fill="transparent" d="
M 112.03,417.41
L 109.81,404.41
"/>
<path stroke="black" fill="transparent" d="
M 155.31,602.62
L 155.11,602.78
"/>
<path stroke="black" fill="transparent" d="
M 801.08,616.46
L 778.21,609.87
L 771.17,654.09
"/>
<path stroke="black" fill="transparent" d="
M 356.59,286.69
L 337.93,283.64
L 355.19,275.23
L 383.51,279.65
L 376.89,283.12
"/>
<path stroke="black" fill="transparent" d="
M 208.24,386.39
L 205.66,363.36
"/>
<path stroke="black" fill="transparent" d="
M 581.60,283.63
L 581.84,281.26
"/>
<path stroke="black" fill="transparent" d="
M 645.23,291.54
L 646.26,283.94
"/>
<path stroke="black" fill="transparent" d="
M 604.15,298.04
L 612.65,289.32
L 643.12,293.65
"/>
<path stroke="black" fill="transparent" d="
M 469.53,299.44
L 469.68,295.42
"/>
<path stroke="black" fill="transparent" d="
M 216.45,612.69
L 252.49,580.29
L 302.38,598.68
"/>
<path stroke="black" fill="transparent" d="
M 761.78,397.68
L 765.37,380.78
"/>
<path stroke="black" fill="transparent" d="
M 360.46,261.57
L 335.14,257.85
L 318.92,264.93
"/>
<path stroke="black" fill="transparent" d="
M 653.24,321.90
L 628.54,318.04
L 619.87,328.56
L 645.05,332.65
"/>
<path stroke="black" fill="transparent" d="
M 553.76,461.74
L 502.21,449.27
L 481.39,473.27
L 535.29,487.20
"/>
<path stroke="black" fill="transparent" d="
M 464.75,574.50
L 402.01,554.43
L 367.60,593.34
L 433.72,616.52
"/>
<path stroke="black" fill="transparent" d="
M 267.75,287.88
L 258.15,286.22
L 238.23,294.75
"/>
<path stroke="black" fill="transparent" d="
M 676.41,471.42
L 621.44,458.69
L 607.36,483.19
"/>
<path stroke="black" fill="transparent" d="
M 673.16,298.55
L 638.57,293.62
L 630.47,303.01
"/>
<path stroke="black" fill="transparent" d="
M 194.39,314.99
L 193.64,308.51
L 221.12,313.91
"/>
<path stroke="black" fill="transparent" d="
M 84.31,395.64
L 84.25,395.34
"/>
<path stroke="black" fill="transparent" d="
M 161.00,310.20
L 142.82,306.52
L 142.44,306.67
"/>
<path stroke="black" fill="transparent" d="
M 492.15,410.68
L 509.06,393.42
L 538.43,399.57
"/>
<path stroke="black" fill="transparent" d="
M 748.61,446.13
L 748.68,445.80
L 743.15,464.80
"/>
<path stroke="black" fill="transparent" d="
M 402.41,252.82
L 402.43,235.49
L 389.18,241.48
"/>
<path stroke="black" fill="transparent" d="
M 540.66,295.08
L 541.80,280.46
L 530.95,288.92
"/>
<path stroke="black" fill="transparent" d="
M 481.97,287.11
L 454.06,282.88
L 447.08,287.22
"/>
<path stroke="black" fill="transparent" d="
M 590.00,666.29
L 603.34,635.83
L 531.01,612.04
L 504.24,658.29
"/>
<path stroke="black" fill="transparent" d="
M 622.67,458.94
L 633.67,439.71
L 686.02,451.22
L 675.86,474.64
"/>
<path stroke="black" fill="transparent" d="
M 231.74,484.79
L 265.34,460.57
L 309.23,473.16
"/>
<path stroke="black" fill="transparent" d="
M 537.83,326.04
L 506.17,320.70
L 492.93,331.47
"/>
<path stroke="black" fill="transparent" d="
M 643.84,428.35
L 644.42,424.35
L 635.59,439.94
"/>
<path stroke="black" fill="transparent" d="
M 264.34,252.22
L 264.07,252.32
"/>
<path stroke="black" fill="transparent" d="
M 188.67,290.25
L 186.57,272.31
"/>
<path stroke="black" fill="transparent" d="
M 195.39,521.09
L 232.66,493.66
L 277.81,507.90
"/>
<path stroke="black" fill="transparent" d="
M 309.49,477.77
L 355.86,491.21
"/>
<path stroke="black" fill="transparent" d="
M 295.36,432.28
L 314.99,437.44
"/>
<path stroke="black" fill="transparent" d="
M 533.81,504.89
L 552.16,478.73
L 606.19,492.32
"/>
<path stroke="black" fill="transparent" d="
M 142.83,306.56
L 141.02,293.98
"/>
<path stroke="black" fill="transparent" d="
M 407.38,439.80
L 453.07,451.22
"/>
<path stroke="black" fill="transparent" d="
M 447.24,350.52
L 485.45,357.85
"/>
<path stroke="black" fill="transparent" d="
M 332.80,233.46
L 318.31,239.11
"/>
<path stroke="black" fill="transparent" d="
M 509.05,393.65
L 509.60,385.05
L 542.19,391.72
"/>
<path stroke="black" fill="transparent" d="
M 182.61,360.08
L 202.05,350.58
L 221.92,355.03
"/>
<path stroke="black" fill="transparent" d="
M 629.37,376.76
L 624.17,384.34
"/>
<path stroke="black" fill="transparent" d="
M 210.16,381.22
L 245.79,389.90
"/>
<path stroke="black" fill="transparent" d="
M 368.09,616.00
L 367.60,593.34
"/>
<path stroke="black" fill="transparent" d="
M 364.43,446.08
L 363.75,414.21
"/>
<path stroke="black" fill="transparent" d="
M 67.49,326.93
L 89.19,318.74
L 115.56,324.52
L 101.65,330.06
"/>
<path stroke="black" fill="transparent" d="
M 724.77,360.58
L 724.67,360.80
"/>
<path stroke="black" fill="transparent" d="
M 800.61,432.20
L 753.51,422.85
L 758.94,404.50
L 800.72,412.39
"/>
<path stroke="black" fill="transparent" d="
M 257.89,352.35
L 257.86,352.07
"/>
<path stroke="black" fill="transparent" d="
M 323.54,431.66
L 322.84,416.45
"/>
<path stroke="black" fill="transparent" d="
M 797.65,477.23
L 800.04,467.46
"/>
<path stroke="black" fill="transparent" d="
M 785.15,568.21
L 716.01,549.78
L 725.29,518.39
L 790.47,534.65
L 785.14,568.22
"/>
<path stroke="black" fill="transparent" d="
M 192.20,309.10
L 190.54,294.74
"/>
<path stroke="black" fill="transparent" d="
M -0.62,385.36
L 15.92,390.12
"/>
<path stroke="black" fill="transparent" d="
M 101.42,400.10
L 84.25,395.34
L 78.17,398.21
"/>
<path stroke="black" fill="transparent" d="
M 284.34,415.84
L 283.71,406.72
L 322.84,416.45
"/>
<path stroke="black" fill="transparent" d="
M 540.66,295.15
L 541.44,285.08
L 572.47,289.59
"/>
<path stroke="black" fill="transparent" d="
M 310.23,332.70
L 309.52,318.69
"/>
<path stroke="black" fill="transparent" d="
M 487.83,297.80
L 499.82,289.23
L 530.59,293.88
"/>
<path stroke="black" fill="transparent" d="
M 581.62,283.44
L 582.04,279.17
L 613.33,283.52
"/>
<path stroke="black" fill="transparent" d="
M 435.34,791.04
L 435.99,766.96
"/>
<path stroke="black" fill="transparent" d="
M 446.96,360.82
L 447.14,354.28
"/>
<path stroke="black" fill="transparent" d="
M 796.67,489.52
L 800.03,475.87
"/>
<path stroke="black" fill="transparent" d="
M 400.87,257.41
L 427.30,261.13
"/>
<path stroke="black" fill="transparent" d="
M 142.86,306.77
L 141.70,298.74
"/>
<path stroke="black" fill="transparent" d="
M 51.64,327.79
L 59.07,325.03
L 77.40,329.23
"/>
<path stroke="black" fill="transparent" d="
M 273.02,373.95
L 238.29,366.00
L 210.16,381.22
"/>
<path stroke="black" fill="transparent" d="
M 97.19,459.14
L 77.52,452.82
L 70.14,456.81
"/>
<path stroke="black" fill="transparent" d="
M 758.69,745.92
L 768.02,686.18
L 800.65,696.85
"/>
<path stroke="black" fill="transparent" d="
M 336.36,378.67
L 355.72,365.83
L 370.88,369.04
"/>
<path stroke="black" fill="transparent" d="
M 283.50,407.86
L 283.79,407.94
"/>
<path stroke="black" fill="transparent" d="
M 392.31,453.18
L 364.43,445.92
L 350.27,457.71
"/>
<path stroke="black" fill="transparent" d="
M 149.74,528.35
L 101.30,562.24
"/>
<path stroke="black" fill="transparent" d="
M 602.95,638.69
L 602.98,638.46
L 590.69,666.60
"/>
<path stroke="black" fill="transparent" d="
M 574.84,371.41
L 579.31,366.16
L 621.36,374.00
"/>
<path stroke="black" fill="transparent" d="
M 604.13,298.29
L 604.15,298.04
L 631.29,302.04
"/>
<path stroke="black" fill="transparent" d="
M 245.84,390.54
L 245.79,389.90
"/>
<path stroke="black" fill="transparent" d="
M 707.60,412.32
L 708.92,405.10
"/>
<path stroke="black" fill="transparent" d="
M 516.03,302.31
L 487.45,297.82
L 480.73,302.61
"/>
<path stroke="black" fill="transparent" d="
M 265.36,460.82
L 263.60,439.39
"/>
<path stroke="black" fill="transparent" d="
M 368.08,615.86
L 367.94,609.11
"/>
<path stroke="black" fill="transparent" d="
M 364.43,446.17
L 364.38,443.51
"/>
<path stroke="black" fill="transparent" d="
M 362.01,333.35
L 361.74,320.79
"/>
<path stroke="black" fill="transparent" d="
M 355.47,740.35
L 355.18,731.48
L 435.99,766.96
"/>
<path stroke="black" fill="transparent" d="
M 350.56,255.92
L 350.48,252.86
"/>
<path stroke="black" fill="transparent" d="
M 602.93,638.83
L 603.34,635.83
"/>
<path stroke="black" fill="transparent" d="
M 652.16,284.32
L 653.35,275.74
"/>
<path stroke="black" fill="transparent" d="
M 778.33,340.96
L 780.10,332.74
"/>
<path stroke="black" fill="transparent" d="
M 777.69,340.90
L 780.10,332.74
L 740.27,326.70
L 735.27,338.23
L 776.22,344.70
"/>
<path stroke="black" fill="transparent" d="
M 107.64,764.51
L 107.40,764.74
"/>
<path stroke="black" fill="transparent" d="
M 195.74,523.77
L 195.39,521.09
L 237.93,535.65
"/>
<path stroke="black" fill="transparent" d="
M 413.95,263.62
L 422.23,264.81
"/>
<path stroke="black" fill="transparent" d="
M 439.99,263.80
L 440.19,254.24
"/>
<path stroke="black" fill="transparent" d="
M 584.58,324.83
L 585.67,314.41
L 576.41,323.83
"/>
<path stroke="black" fill="transparent" d="
M 580.55,353.88
L 551.92,348.73
L 539.68,361.19
"/>
<path stroke="black" fill="transparent" d="
M 283.27,717.63
L 283.25,717.38
"/>
<path stroke="black" fill="transparent" d="
M 309.74,482.20
L 309.35,475.28
"/>
<path stroke="black" fill="transparent" d="
M 300.36,314.17
L 300.20,311.26
"/>
<path stroke="black" fill="transparent" d="
M 296.67,248.08
L 295.99,235.80
"/>
<path stroke="black" fill="transparent" d="
M 256.52,338.50
L 256.76,338.55
"/>
<path stroke="black" fill="transparent" d="
M 601.64,342.18
L 601.74,341.33
"/>
<path stroke="black" fill="transparent" d="
M 46.05,603.20
L 46.44,603.37
"/>
<path stroke="black" fill="transparent" d="
M 111.88,577.44
L 152.81,547.59
L 196.09,563.67
"/>
<path stroke="black" fill="transparent" d="
M 671.92,380.68
L 672.87,374.68
"/>
<path stroke="black" fill="transparent" d="
M 681.42,357.06
L 681.99,353.54
"/>
<path stroke="black" fill="transparent" d="
M 582.03,279.18
L 560.58,276.20
L 558.54,277.86
"/>
<path stroke="black" fill="transparent" d="
M 474.10,418.95
L 482.75,420.92
"/>
<path stroke="black" fill="transparent" d="
M 242.55,366.96
L 264.36,355.05
L 296.81,362.12
"/>
<path stroke="black" fill="transparent" d="
M 431.61,541.00
L 457.72,510.29
L 513.79,526.20
"/>
<path stroke="black" fill="transparent" d="
M 665.19,314.61
L 666.13,308.29
"/>
<path stroke="black" fill="transparent" d="
M 669.48,716.05
L 674.46,698.98
L 757.17,727.90
"/>
<path stroke="black" fill="transparent" d="
M 541.44,285.08
L 551.61,277.02
L 581.84,281.26
L 572.47,289.59
"/>
<path stroke="black" fill="transparent" d="
M 564.16,334.94
L 564.44,331.87
L 552.33,344.04
"/>
<path stroke="black" fill="transparent" d="
M 609.45,399.01
L 620.11,383.74
L 663.85,392.13
"/>
<path stroke="black" fill="transparent" d="
M 536.49,424.57
L 536.81,420.56
"/>
<path stroke="black" fill="transparent" d="
M 514.28,519.49
L 534.99,490.74
L 481.22,476.72
L 457.96,503.73
"/>
<path stroke="black" fill="transparent" d="
M 143.67,348.95
L 171.47,336.52
L 201.19,343.02
L 173.99,355.99
"/>
<path stroke="black" fill="transparent" d="
M 552.13,479.07
L 553.38,465.75
"/>
<path stroke="black" fill="transparent" d="
M 674.78,481.03
L 674.84,480.66
L 732.73,494.35
"/>
<path stroke="black" fill="transparent" d="
M 187.50,283.46
L 187.88,283.53
"/>
<path stroke="black" fill="transparent" d="
M 671.91,380.70
L 673.48,370.77
L 717.37,378.66
"/>
<path stroke="black" fill="transparent" d="
M 368.07,615.41
L 307.77,593.46
L 265.64,636.05
L 328.88,661.50
"/>
<path stroke="black" fill="transparent" d="
M 464.76,574.16
L 532.44,595.79
"/>
<path stroke="black" fill="transparent" d="
M 215.94,681.46
L 216.18,681.57
"/>
<path stroke="black" fill="transparent" d="
M 261.93,356.34
L 232.18,349.83
L 205.66,363.36
"/>
<path stroke="black" fill="transparent" d="
M 530.78,800.45
L 555.55,743.98
L 646.40,780.08
L 640.29,800.60
"/>
<path stroke="black" fill="transparent" d="
M 731.66,500.06
L 738.72,476.00
L 796.76,489.16
L 792.63,514.89
"/>
<path stroke="black" fill="transparent" d="
M 132.23,423.04
L 112.00,417.22
L 74.37,436.73
L 110.52,447.94
"/>
<path stroke="black" fill="transparent" d="
M 514.59,344.06
L 515.02,337.43
L 552.33,344.04
"/>
<path stroke="black" fill="transparent" d="
M 779.65,338.99
L 784.52,316.37
"/>
<path stroke="black" fill="transparent" d="
M 371.53,277.71
L 371.30,262.68
"/>
<path stroke="black" fill="transparent" d="
M 603.60,634.01
L 531.17,610.26
L 530.99,612.29
L 532.44,595.79
"/>
<path stroke="black" fill="transparent" d="
M 579.30,366.26
L 580.56,354.05
L 622.94,361.67
"/>
<path stroke="black" fill="transparent" d="
M 800.75,404.88
L 761.78,397.66
L 759.80,404.42
"/>
<path stroke="black" fill="transparent" d="
M 347.60,402.68
L 347.90,402.75
"/>
<path stroke="black" fill="transparent" d="
M 790.46,534.70
L 791.16,531.88
"/>
<path stroke="black" fill="transparent" d="
M 800.12,354.12
L 774.37,349.98
L 770.26,363.79
"/>
<path stroke="black" fill="transparent" d="
M 265.67,636.37
L 265.29,632.26
"/>
<path stroke="black" fill="transparent" d="
M 383.55,284.17
L 383.51,279.65
"/>
<path stroke="black" fill="transparent" d="
M 700.94,424.26
L 701.19,423.67
L 751.19,433.89
"/>
<path stroke="black" fill="transparent" d="
M 503.20,672.66
L 492.61,691.33
"/>
<path stroke="black" fill="transparent" d="
M 522.66,268.61
L 551.98,272.64
"/>
<path stroke="black" fill="transparent" d="
M 16.22,389.99
L 15.92,390.12
"/>
<path stroke="black" fill="transparent" d="
M 217.91,299.03
L 237.86,290.62
L 212.33,286.06
L 190.54,294.74
L 215.29,299.38
"/>
<path stroke="black" fill="transparent" d="
M 554.29,570.58
L 554.64,567.10
L 531.47,606.85
"/>
<path stroke="black" fill="transparent" d="
M 529.93,370.25
L 538.90,361.15
L 577.13,368.33
"/>
<path stroke="black" fill="transparent" d="
M 206.79,609.09
L 206.76,608.87
L 265.29,632.26
"/>
<path stroke="black" fill="transparent" d="
M 76.52,397.88
L 76.15,395.91
"/>
<path stroke="black" fill="transparent" d="
M 407.56,253.95
L 389.24,251.42
L 375.30,258.00
L 379.64,258.63
"/>
<path stroke="black" fill="transparent" d="
M 81.35,378.96
L 87.77,376.08
L 95.88,378.20
"/>
<path stroke="black" fill="transparent" d="
M 396.92,286.37
L 366.77,281.58
L 348.92,290.71
"/>
<path stroke="black" fill="transparent" d="
M 284.01,407.80
L 283.79,407.94
"/>
<path stroke="black" fill="transparent" d="
M 520.63,373.93
L 485.01,366.91
L 468.14,381.89
L 509.26,390.42
"/>
<path stroke="black" fill="transparent" d="
M 723.04,363.92
L 681.46,356.78
L 673.48,370.77
"/>
<path stroke="black" fill="transparent" d="
M 349.70,318.54
L 348.92,290.71
L 379.81,295.85
"/>
<path stroke="black" fill="transparent" d="
M 106.06,468.66
L 66.70,455.81
L 20.66,480.54
"/>
<path stroke="black" fill="transparent" d="
M 211.42,392.59
L 210.16,381.22
"/>
<path stroke="black" fill="transparent" d="
M 489.91,413.79
L 467.08,408.70
L 461.30,414.20
"/>
<path stroke="black" fill="transparent" d="
M 24.38,496.44
L 17.89,468.72
"/>
<path stroke="black" fill="transparent" d="
M 361.74,320.79
L 330.32,315.02
L 309.89,326.03
"/>
<path stroke="black" fill="transparent" d="
M 604.99,501.64
L 606.19,492.32
L 600.02,503.22
"/>
<path stroke="black" fill="transparent" d="
M 194.14,312.83
L 169.75,323.25
"/>
<path stroke="black" fill="transparent" d="
M 371.05,267.20
L 360.55,265.63
L 344.89,273.05
L 371.53,277.20
"/>
<path stroke="black" fill="transparent" d="
M 117.09,293.94
L 116.35,289.21
"/>
<path stroke="black" fill="transparent" d="
M 587.24,428.25
L 597.00,414.35
L 644.42,424.34
"/>
<path stroke="black" fill="transparent" d="
M -0.46,359.18
L 22.82,365.40
L -0.73,374.89
"/>
<path stroke="black" fill="transparent" d="
M 311.17,266.04
L 308.64,267.13
"/>
<path stroke="black" fill="transparent" d="
M 405.30,494.70
L 405.09,494.91
"/>
<path stroke="black" fill="transparent" d="
M 684.97,457.26
L 687.23,444.22
L 742.84,456.24
"/>
<path stroke="black" fill="transparent" d="
M 159.81,747.38
L 217.16,689.06
L 282.30,718.45
"/>
<path stroke="black" fill="transparent" d="
M 724.67,360.82
L 726.52,350.89
"/>
<path stroke="black" fill="transparent" d="
M 454.40,271.70
L 466.65,264.42
L 494.09,268.25
"/>
<path stroke="black" fill="transparent" d="
M 80.89,321.86
L 64.78,318.27
L 92.22,308.25
L 92.99,308.41
"/>
<path stroke="black" fill="transparent" d="
M 561.86,376.68
L 525.12,369.55
L 509.60,385.05
"/>
<path stroke="black" fill="transparent" d="
M 183.16,426.70
L 215.97,407.48
L 179.43,397.96
L 145.69,416.22
L 183.16,426.70
L 185.53,445.02
"/>
<path stroke="black" fill="transparent" d="
M 642.93,294.16
L 645.24,291.42
L 678.69,296.13
"/>
<path stroke="black" fill="transparent" d="
M 665.75,715.04
L 665.80,714.79
"/>
<path stroke="black" fill="transparent" d="
M 797.60,477.44
L 797.68,477.09
"/>
<path stroke="black" fill="transparent" d="
M 52.96,741.60
L 1.28,713.29
L -0.20,708.15
"/>
<path stroke="black" fill="transparent" d="
M 276.91,278.95
L 276.69,275.70
"/>
<path stroke="black" fill="transparent" d="
M 596.97,414.61
L 600.15,387.38
"/>
<path stroke="black" fill="transparent" d="
M 90.06,463.32
L 111.14,451.45
L 127.26,456.49
"/>
<path stroke="black" fill="transparent" d="
M 294.81,527.88
L 324.77,501.69
L 376.51,517.32
"/>
<path stroke="black" fill="transparent" d="
M 273.66,382.67
L 273.02,373.95
"/>
<path stroke="black" fill="transparent" d="
M 264.31,255.53
L 264.00,251.33
"/>
<path stroke="black" fill="transparent" d="
M 428.37,338.12
L 394.44,331.79
L 375.73,343.88
"/>
<path stroke="black" fill="transparent" d="
M 284.33,415.75
L 283.21,399.40
"/>
<path stroke="black" fill="transparent" d="
M 405.09,493.52
L 430.49,467.92
L 477.75,480.36
"/>
<path stroke="black" fill="transparent" d="
M 309.74,482.27
L 309.23,473.16
"/>
<path stroke="black" fill="transparent" d="
M 217.20,689.37
L 215.84,678.88
L 157.92,736.76
"/>
<path stroke="black" fill="transparent" d="
M 646.47,779.74
L 665.80,714.79
L 758.15,747.98
"/>
<path stroke="black" fill="transparent" d="
M 602.98,638.46
L 681.25,664.33
"/>
<path stroke="black" fill="transparent" d="
M 37.21,413.93
L 37.47,414.01
"/>
<path stroke="black" fill="transparent" d="
M 467.07,408.94
L 468.14,381.89
"/>
<path stroke="black" fill="transparent" d="
M 732.72,494.41
L 674.83,480.71
L 671.42,488.64
"/>
<path stroke="black" fill="transparent" d="
M 111.20,451.79
L 110.52,447.94
"/>
<path stroke="black" fill="transparent" d="
M 431.60,541.42
L 431.61,541.01
"/>
<path stroke="black" fill="transparent" d="
M 106.88,473.19
L 106.06,468.66
L 60.89,494.92
"/>
<path stroke="black" fill="transparent" d="
M 210.13,263.33
L 224.16,258.24
L 246.85,261.84
L 228.38,268.88
"/>
<path stroke="black" fill="transparent" d="
M 333.81,378.26
L 333.46,369.09
"/>
<path stroke="black" fill="transparent" d="
M 581.79,520.12
L 533.62,507.11
L 513.04,536.56
"/>
<path stroke="black" fill="transparent" d="
M 205.50,562.09
L 241.63,532.88
L 270.47,542.67
"/>
<path stroke="black" fill="transparent" d="
M 764.31,385.75
L 717.96,377.45
L 711.06,393.34
"/>
<path stroke="black" fill="transparent" d="
M 413.57,275.47
L 413.68,259.23
"/>
<path stroke="black" fill="transparent" d="
M 427.38,297.28
L 427.68,277.78
L 412.82,286.29
"/>
<path stroke="black" fill="transparent" d="
M 389.24,251.58
L 389.23,249.85
L 375.28,256.40
"/>
<path stroke="black" fill="transparent" d="
M 1.53,713.09
L 1.28,713.29
"/>
<path stroke="black" fill="transparent" d="
M 344.99,276.36
L 344.76,268.89
"/>
<path stroke="black" fill="transparent" d="
M 344.99,276.48
L 344.98,276.25
L 328.90,283.97
"/>
<path stroke="black" fill="transparent" d="
M 205.91,365.58
L 174.28,358.19
L 112.78,387.69
"/>
<path stroke="black" fill="transparent" d="
M 504.91,263.07
L 478.12,259.43
L 469.53,264.58
"/>
<path stroke="black" fill="transparent" d="
M 738.71,329.88
L 701.40,324.16
L 696.70,332.47
"/>
<path stroke="black" fill="transparent" d="
M 374.03,464.22
L 338.22,454.55
L 309.49,477.77
"/>
<path stroke="black" fill="transparent" d="
M 619.63,330.48
L 584.59,324.75
L 584.28,325.08
"/>
<path stroke="black" fill="transparent" d="
M 494.96,292.55
L 481.81,290.53
L 469.55,298.93
L 482.78,301.04
"/>
<path stroke="black" fill="transparent" d="
M 53.21,741.39
L 52.96,741.61
"/>
<path stroke="black" fill="transparent" d="
M 800.19,565.92
L 786.62,562.34
L 780.62,600.37
"/>
<path stroke="black" fill="transparent" d="
M 309.89,330.82
L 310.14,330.87
"/>
<path stroke="black" fill="transparent" d="
M 243.61,248.28
L 258.60,242.91
L 279.89,245.99
"/>
<path stroke="black" fill="transparent" d="
M 278.95,522.83
L 277.81,507.90
"/>
<path stroke="black" fill="transparent" d="
M 652.81,523.85
L 653.85,517.34
"/>
<path stroke="black" fill="transparent" d="
M 310.47,330.69
L 310.14,330.87
"/>
<path stroke="black" fill="transparent" d="
M 243.64,306.52
L 243.41,303.95
"/>
<path stroke="black" fill="transparent" d="
M 643.83,428.43
L 644.07,426.76
"/>
<path stroke="black" fill="transparent" d="
M 141.28,306.66
L 141.12,305.60
"/>
<path stroke="black" fill="transparent" d="
M 665.75,715.02
L 669.76,694.15
"/>
<path stroke="black" fill="transparent" d="
M -0.14,535.26
L 8.93,538.95
"/>
<path stroke="black" fill="transparent" d="
M -0.39,509.90
L 24.31,496.12
L 57.21,508.25
"/>
<path stroke="black" fill="transparent" d="
M 602.92,638.87
L 603.60,634.01
"/>
<path stroke="black" fill="transparent" d="
M 283.21,399.40
L 245.82,390.28
L 216.00,407.76
L 242.51,414.67
"/>
<path stroke="black" fill="transparent" d="
M 252.55,273.55
L 252.26,273.67
"/>
<path stroke="black" fill="transparent" d="
M 506.16,320.93
L 506.65,312.59
"/>
<path stroke="black" fill="transparent" d="
M 252.50,580.40
L 250.55,560.28
"/>
<path stroke="black" fill="transparent" d="
M 571.66,298.12
L 572.26,291.82
"/>
<path stroke="black" fill="transparent" d="
M 629.34,377.00
L 633.24,347.66
"/>
<path stroke="black" fill="transparent" d="
M 428.88,374.95
L 446.97,360.59
L 483.73,367.86
"/>
<path stroke="black" fill="transparent" d="
M -0.26,475.47
L 21.28,483.22
"/>
<path stroke="black" fill="transparent" d="
M 493.60,277.68
L 494.09,268.25
L 482.48,275.77
"/>
<path stroke="black" fill="transparent" d="
M 717.09,299.77
L 720.06,282.89
"/>
<path stroke="black" fill="transparent" d="
M 449.77,519.07
L 405.05,506.09
L 378.18,533.88
"/>
<path stroke="black" fill="transparent" d="
M 427.86,314.21
L 427.96,307.41
L 460.16,312.83
"/>
<path stroke="black" fill="transparent" d="
M 645.17,786.68
L 646.47,779.74
"/>
<path stroke="black" fill="transparent" d="
M 466.78,260.81
L 440.13,257.15
L 452.28,250.57
L 478.35,254.03
"/>
<path stroke="black" fill="transparent" d="
M 492.76,334.67
L 492.93,331.47
L 516.78,335.67
"/>
<path stroke="black" fill="transparent" d="
M 690.97,330.86
L 651.24,324.59
L 642.48,336.56
"/>
<path stroke="black" fill="transparent" d="
M 533.81,504.89
L 582.95,518.09
"/>
<path stroke="black" fill="transparent" d="
M -0.49,401.56
L 2.99,402.60
"/>
<path stroke="black" fill="transparent" d="
M 501.92,355.31
L 514.60,343.93
L 550.27,350.38
"/>
<path stroke="black" fill="transparent" d="
M 474.38,684.54
L 436.52,747.55
L 527.26,786.33
"/>
<path stroke="black" fill="transparent" d="
M 717.84,540.85
L 652.81,523.82
L 638.42,556.73
L 707.36,576.11
"/>
<path stroke="black" fill="transparent" d="
M 102.16,644.85
L 100.50,636.75
"/>
<path stroke="black" fill="transparent" d="
M 112.00,417.22
L 110.29,407.23
L 72.34,426.36
"/>
<path stroke="black" fill="transparent" d="
M 87.73,310.36
L 115.09,300.35
L 141.12,305.60
"/>
<path stroke="black" fill="transparent" d="
M 265.66,636.30
L 265.64,636.07
"/>
<path stroke="black" fill="transparent" d="
M 628.52,318.23
L 630.47,303.01
L 666.13,308.29
"/>
<path stroke="black" fill="transparent" d="
M 53.73,338.45
L 58.04,360.39
L 51.24,325.78
"/>
<path stroke="black" fill="transparent" d="
M 530.99,612.26
L 531.01,612.04
"/>
<path stroke="black" fill="transparent" d="
M 702.97,314.89
L 708.84,304.74
L 672.99,299.62
L 665.97,309.39
"/>
<path stroke="black" fill="transparent" d="
M 540.58,315.23
L 552.03,305.13
L 519.22,300.03
L 506.82,309.76
L 540.57,315.23
L 539.86,324.25
"/>
<path stroke="black" fill="transparent" d="
M 569.31,448.61
L 584.18,427.69
L 633.82,438.59
"/>
<path stroke="black" fill="transparent" d="
M 742.91,465.13
L 745.14,454.51
"/>
<path stroke="black" fill="transparent" d="
M 449.45,408.24
L 409.13,399.16
L 407.85,400.20
"/>
<path stroke="black" fill="transparent" d="
M 792.64,515.23
L 800.14,484.96
"/>
<path stroke="black" fill="transparent" d="
M 425.26,548.75
L 376.75,533.62
L 356.49,554.50
"/>
<path stroke="black" fill="transparent" d="
M 13.07,536.68
L 12.67,535.05
L 48.61,549.52
"/>
<path stroke="black" fill="transparent" d="
M 776.99,614.71
L 769.88,659.14
"/>
<path stroke="black" fill="transparent" d="
M 364.57,443.35
L 364.38,443.51
"/>
<path stroke="black" fill="transparent" d="
M 301.91,276.46
L 302.09,279.76
L 328.35,284.08
L 310.65,292.57
"/>
<path stroke="black" fill="transparent" d="
M 12.67,535.05
L 63.03,505.06
L 95.77,517.00
"/>
<path stroke="black" fill="transparent" d="
M 360.55,265.68
L 360.46,261.57
L 344.76,268.89
"/>
<path stroke="black" fill="transparent" d="
M 618.17,275.06
L 590.85,271.40
L 582.04,279.17
"/>
<path stroke="black" fill="transparent" d="
M 238.23,294.75
L 258.75,298.47
"/>
<path stroke="black" fill="transparent" d="
M 562.22,572.47
L 572.41,554.40
L 635.94,572.83
L 622.78,603.50
"/>
<path stroke="black" fill="transparent" d="
M 154.74,651.92
L 154.70,651.69
"/>
<path stroke="black" fill="transparent" d="
M 421.31,800.62
L 435.76,775.69
L 355.46,740.02
L 311.92,800.46
"/>
<path stroke="black" fill="transparent" d="
M 100.02,634.43
L 48.27,611.15
L -0.41,645.89
"/>
<path stroke="black" fill="transparent" d="
M 106.12,468.97
L 146.51,445.47
L 187.17,457.69
"/>
<path stroke="black" fill="transparent" d="
M 604.33,296.52
L 612.83,287.84
L 581.62,283.43
L 572.26,291.82
"/>
<path stroke="black" fill="transparent" d="
M 326.65,255.42
L 326.62,254.56
"/>
<path stroke="black" fill="transparent" d="
M 70.64,325.67
L 65.97,324.61
L 62.87,325.77
"/>
<path stroke="black" fill="transparent" d="
M 564.15,335.04
L 575.37,323.67
L 611.77,329.63
L 601.73,341.46
"/>
<path stroke="black" fill="transparent" d="
M 800.72,307.98
L 787.56,306.16
L 784.52,316.37
L 800.64,318.69
"/>
<path stroke="black" fill="transparent" d="
M 264.37,355.15
L 264.35,354.85
L 297.07,361.97
"/>
<path stroke="black" fill="transparent" d="
M 460.39,312.67
L 460.16,312.83
"/>
<path stroke="black" fill="transparent" d="
M 311.05,248.07
L 318.57,245.06
L 341.45,248.27
"/>
<path stroke="black" fill="transparent" d="
M 631.01,302.12
L 604.14,298.16
L 595.65,306.88
"/>
<path stroke="black" fill="transparent" d="
M 795.83,502.32
L 800.82,503.48
"/>
<path stroke="black" fill="transparent" d="
M 397.15,296.55
L 412.73,299.12
L 407.19,302.45
"/>
<path stroke="black" fill="transparent" d="
M 653.35,275.74
L 621.79,271.58
L 613.81,279.50
L 646.26,283.94
"/>
<path stroke="black" fill="transparent" d="
M 748.65,445.92
L 749.76,440.66
"/>
<path stroke="black" fill="transparent" d="
M 409.13,399.44
L 409.25,377.84
"/>
<path stroke="black" fill="transparent" d="
M 284.56,717.78
L 329.06,665.14
L 386.51,688.37
"/>
<path stroke="black" fill="transparent" d="
M 98.40,723.66
L 40.78,693.91
L 102.08,644.45
L 142.10,662.73
"/>
<path stroke="black" fill="transparent" d="
M 164.20,280.44
L 186.57,272.31
L 162.61,268.19
L 139.86,276.04
L 164.20,280.44
L 166.18,295.70
"/>
<path stroke="black" fill="transparent" d="
M 128.81,520.81
L 151.47,505.64
L 195.33,520.65
"/>
<path stroke="black" fill="transparent" d="
M 271.13,305.89
L 291.43,296.34
L 319.86,301.35
"/>
<path stroke="black" fill="transparent" d="
M 758.08,748.23
L 758.15,747.97
"/>
<path stroke="black" fill="transparent" d="
M 257.87,352.21
L 255.58,324.01
"/>
<path stroke="black" fill="transparent" d="
M 389.23,249.85
L 364.91,246.51
L 350.48,252.86
"/>
<path stroke="black" fill="transparent" d="
M 622.94,361.67
L 633.25,347.66
L 592.36,340.65
L 580.56,354.05
"/>
<path stroke="black" fill="transparent" d="
M 514.79,340.96
L 479.07,334.56
L 473.19,339.22
"/>
<path stroke="black" fill="transparent" d="
M 605.00,501.56
L 607.36,483.19
L 662.53,496.78
"/>
<path stroke="black" fill="transparent" d="
M 142.45,332.74
L 115.93,326.89
L 105.85,330.93
"/>
<path stroke="black" fill="transparent" d="
M 114.35,317.01
L 141.27,306.58
L 168.30,312.05
L 141.86,322.90
"/>
<path stroke="black" fill="transparent" d="
M 585.41,316.84
L 595.13,306.88
L 629.30,312.11
"/>
<path stroke="black" fill="transparent" d="
M 37.04,411.99
L 4.27,402.16
L -0.25,404.14
"/>
<path stroke="black" fill="transparent" d="
M 110.29,407.23
L 76.50,397.75
L 37.88,415.93
L 72.34,426.36
"/>
<path stroke="black" fill="transparent" d="
M 531.17,610.26
L 554.31,570.36
L 622.50,590.94
"/>
<path stroke="black" fill="transparent" d="
M 253.46,354.43
L 257.86,352.07
L 266.06,353.85
"/>
<path stroke="black" fill="transparent" d="
M 279.13,265.81
L 287.51,262.38
L 311.17,266.04
"/>
<path stroke="black" fill="transparent" d="
M 89.23,318.94
L 87.73,310.36
L 114.19,316.00
"/>
<path stroke="black" fill="transparent" d="
M 283.91,299.66
L 264.34,296.16
L 243.55,305.49
L 271.48,310.74
"/>
<path stroke="black" fill="transparent" d="
M 564.44,331.87
L 528.29,325.75
L 515.02,337.43
"/>
<path stroke="black" fill="transparent" d="
M 229.54,782.60
L 229.31,782.87
"/>
<path stroke="black" fill="transparent" d="
M 48.33,611.39
L 46.44,603.37
"/>
<path stroke="black" fill="transparent" d="
M 558.68,716.72
L 527.26,786.33
"/>
<path stroke="black" fill="transparent" d="
M 338.68,305.64
L 337.93,283.64
"/>
<path stroke="black" fill="transparent" d="
M 380.11,322.04
L 379.98,310.65
L 405.75,315.17
"/>
<path stroke="black" fill="transparent" d="
M 264.35,354.85
L 288.11,341.88
L 321.07,348.67
L 299.27,361.55
"/>
<path stroke="black" fill="transparent" d="
M 579.25,434.10
L 536.49,424.55
L 529.34,433.10
"/>
<path stroke="black" fill="transparent" d="
M 445.04,317.17
L 428.53,328.54
"/>
<path stroke="black" fill="transparent" d="
M 633.63,439.98
L 633.82,438.59
L 622.21,458.87
"/>
<path stroke="black" fill="transparent" d="
M 432.58,666.64
L 433.73,616.17
L 505.47,641.30
"/>
<path stroke="black" fill="transparent" d="
M 273.18,376.10
L 298.10,361.41
L 333.46,369.09
"/>
<path stroke="black" fill="transparent" d="
M 141.70,298.74
L 117.08,293.90
L 91.34,303.12
"/>
<path stroke="black" fill="transparent" d="
M 371.30,262.68
L 386.54,255.40
L 413.69,259.23
"/>
<path stroke="black" fill="transparent" d="
M 624.83,604.10
L 634.69,580.90
L 701.55,600.60
"/>
<path stroke="black" fill="transparent" d="
M 164.82,285.17
L 140.53,280.71
L 116.35,289.21
L 141.02,293.98
"/>
<path stroke="black" fill="transparent" d="
M 492.09,411.67
L 492.15,410.68
L 536.81,420.56
"/>
<path stroke="black" fill="transparent" d="
M 63.04,505.12
L 60.89,494.92
"/>
<path stroke="black" fill="transparent" d="
M 332.18,255.97
L 341.56,251.92
L 350.30,253.17
"/>
<path stroke="black" fill="transparent" d="
M 310.97,261.91
L 326.64,255.25
L 345.70,258.04
"/>
<path stroke="black" fill="transparent" d="
M 391.54,566.07
L 344.22,550.51
L 307.40,587.30
L 367.94,609.11
"/>
<path stroke="black" fill="transparent" d="
M 761.73,397.92
L 764.32,385.75
"/>
<path stroke="black" fill="transparent" d="
M 24.32,496.19
L 21.28,483.22
L -0.51,495.00
"/>
<path stroke="black" fill="transparent" d="
M 630.67,367.00
L 640.15,353.48
L 679.23,360.27
"/>
<path stroke="black" fill="transparent" d="
M 115.27,344.85
L 115.04,344.95
"/>
<path stroke="black" fill="transparent" d="
M 66.01,324.78
L 64.78,318.27
"/>
<path stroke="black" fill="transparent" d="
M 490.40,336.44
L 492.77,334.49
L 514.95,338.43
"/>
<path stroke="black" fill="transparent" d="
M 258.13,286.00
L 233.11,281.67
L 219.24,287.28
"/>
<path stroke="black" fill="transparent" d="
M 584.09,664.60
L 584.12,664.35
L 669.76,694.15
L 650.48,758.19
"/>
<path stroke="black" fill="transparent" d="
M 456.74,299.84
L 456.75,299.59
"/>
<path stroke="black" fill="transparent" d="
M 286.95,253.36
L 303.11,247.01
L 326.45,250.35
"/>
<path stroke="black" fill="transparent" d="
M 800.19,460.78
L 797.57,476.81
"/>
<path stroke="black" fill="transparent" d="
M -1.02,442.90
L 2.99,444.24
"/>
<path stroke="black" fill="transparent" d="
M 201.61,324.43
L 221.29,315.60
L 249.80,321.23
"/>
<path stroke="black" fill="transparent" d="
M 584.58,324.90
L 585.41,316.84
L 620.62,322.45
"/>
<path stroke="black" fill="transparent" d="
M 243.41,303.95
L 216.46,298.92
L 193.64,308.51
"/>
<path stroke="black" fill="transparent" d="
M 501.02,344.36
L 485.45,357.85
"/>
<path stroke="black" fill="transparent" d="
M 784.31,316.98
L 748.11,311.78
L 745.56,317.73
"/>
<path stroke="black" fill="transparent" d="
M 776.89,615.08
L 778.21,609.87
"/>
<path stroke="black" fill="transparent" d="
M 287.38,330.32
L 255.58,324.01
L 278.46,312.84
L 309.52,318.69
L 287.38,330.32
L 288.13,342.15
"/>
<path stroke="black" fill="transparent" d="
M 500.09,284.34
L 511.73,276.17
L 541.80,280.46
"/>
<path stroke="black" fill="transparent" d="
M 586.62,405.52
L 600.15,387.38
L 554.26,378.39
L 538.85,395.63
"/>
<path stroke="black" fill="transparent" d="
M 148.54,486.88
L 107.53,513.16
"/>
<path stroke="black" fill="transparent" d="
M 258.15,286.24
L 258.13,286.00
"/>
<path stroke="black" fill="transparent" d="
M 740.35,326.68
L 744.85,316.30
L 707.79,310.88
L 701.90,321.21
"/>
<path stroke="black" fill="transparent" d="
M 485.00,366.95
L 485.45,357.85
"/>
<path stroke="black" fill="transparent" d="
M 504.86,449.82
L 520.64,431.48
L 569.90,442.78
L 553.38,465.75
"/>
<path stroke="black" fill="transparent" d="
M 47.28,387.64
L 80.14,373.13
L 49.98,365.25
L 13.73,380.33
"/>
<path stroke="black" fill="transparent" d="
M 140.55,280.90
L 139.86,276.04
"/>
<path stroke="black" fill="transparent" d="
M 76.15,395.91
L 43.96,386.92
L 7.29,403.02
"/>
<path stroke="black" fill="transparent" d="
M 116.33,352.86
L 113.05,332.70
"/>
<path stroke="black" fill="transparent" d="
M 288.21,267.27
L 270.17,264.42
L 252.09,271.66
"/>
<path stroke="black" fill="transparent" d="
M 94.24,704.67
L 107.40,764.74
L 168.81,798.08
"/>
<path stroke="black" fill="transparent" d="
M 555.50,744.40
L 558.01,722.58
"/>
<path stroke="black" fill="transparent" d="
M 601.66,342.03
L 601.73,341.46
"/>
<path stroke="black" fill="transparent" d="
M 512.84,440.45
L 473.51,431.19
L 453.04,452.15
L 491.26,461.72
"/>
<path stroke="black" fill="transparent" d="
M 748.07,311.96
L 750.00,302.02
"/>
<path stroke="black" fill="transparent" d="
M 601.74,341.33
L 564.16,334.91
L 552.06,347.17
"/>
<path stroke="black" fill="transparent" d="
M 258.26,238.46
L 274.31,232.83
L 295.99,235.80
"/>
<path stroke="black" fill="transparent" d="
M 758.09,748.21
L 758.69,745.92
"/>
<path stroke="black" fill="transparent" d="
M 265.64,636.07
L 216.70,685.55
L 283.08,715.35
"/>
<path stroke="black" fill="transparent" d="
M 341.41,247.24
L 318.52,244.04
L 332.98,238.27
L 352.98,240.97
"/>
<path stroke="black" fill="transparent" d="
M 308.40,390.56
L 273.64,382.41
L 256.37,392.78
"/>
<path stroke="black" fill="transparent" d="
M 506.17,320.71
L 506.82,309.76
"/>
<path stroke="black" fill="transparent" d="
M 300.36,314.12
L 300.25,312.26
"/>
<path stroke="black" fill="transparent" d="
M 116.32,352.80
L 114.99,344.60
"/>
<path stroke="black" fill="transparent" d="
M 42.37,436.79
L 37.04,411.99
L -0.09,429.27
"/>
<path stroke="black" fill="transparent" d="
M 693.58,625.41
L 679.63,672.61
"/>
<path stroke="black" fill="transparent" d="
M 301.91,276.46
L 276.46,272.33
L 294.13,264.95
L 319.10,268.83
"/>
<path stroke="black" fill="transparent" d="
M 512.62,542.48
L 513.04,536.56
L 572.48,553.78
"/>
<path stroke="black" fill="transparent" d="
M 111.17,451.60
L 108.45,436.11
"/>
<path stroke="black" fill="transparent" d="
M 267.74,461.03
L 295.71,440.76
L 338.13,452.15
L 309.35,475.28
"/>
<path stroke="black" fill="transparent" d="
M 325.21,431.75
L 348.26,414.52
L 363.77,418.30
"/>
<path stroke="black" fill="transparent" d="
M 370.32,369.57
L 391.35,355.05
L 429.08,362.64
"/>
<path stroke="black" fill="transparent" d="
M 300.25,312.26
L 319.91,302.33
L 349.39,307.54
L 334.39,315.70
"/>
<path stroke="black" fill="transparent" d="
M 452.55,467.54
L 453.04,452.15
"/>
<path stroke="black" fill="transparent" d="
M 306.88,443.72
L 323.53,431.33
L 364.34,441.86
"/>
<path stroke="black" fill="transparent" d="
M 748.09,311.87
L 749.52,304.49
"/>
<path stroke="black" fill="transparent" d="
M 194.60,401.81
L 211.40,392.42
L 232.78,397.79
"/>
<path stroke="black" fill="transparent" d="
M 612.63,289.52
L 613.80,279.50
"/>
<path stroke="black" fill="transparent" d="
M 58.85,323.87
L 51.41,326.62
"/>
<path stroke="black" fill="transparent" d="
M 732.73,494.35
L 740.12,469.32
L 685.01,457.02
L 674.84,480.66
"/>
<path stroke="black" fill="transparent" d="
M 82.19,345.28
L 53.73,338.45
L 85.05,326.38
L 113.05,332.70
L 82.19,345.28
"/>
<path stroke="black" fill="transparent" d="
M 605.02,501.46
L 605.16,500.34
"/>
<path stroke="black" fill="transparent" d="
M 691.43,636.19
L 691.74,634.65
"/>
<path stroke="black" fill="transparent" d="
M 355.46,740.27
L 355.46,740.02
"/>
<path stroke="black" fill="transparent" d="
M 273.66,382.63
L 273.18,376.10
L 309.51,384.47
"/>
<path stroke="black" fill="transparent" d="
M 59.12,325.25
L 58.85,323.87
"/>
<path stroke="black" fill="transparent" d="
M 412.70,303.35
L 412.73,299.12
"/>
<path stroke="black" fill="transparent" d="
M 246.92,262.73
L 246.52,257.89
"/>
<path stroke="black" fill="transparent" d="
M 152.85,547.88
L 149.74,528.35
"/>
<path stroke="black" fill="transparent" d="
M 456.44,800.24
L 435.35,790.69
L 429.62,800.77
"/>
<path stroke="black" fill="transparent" d="
M 179.20,396.14
L 145.40,414.32
"/>
<path stroke="black" fill="transparent" d="
M 428.17,350.55
L 428.53,328.54
"/>
<path stroke="black" fill="transparent" d="
M 198.99,615.53
L 154.22,597.34
L 200.47,560.34
L 252.41,579.46
"/>
<path stroke="black" fill="transparent" d="
M 640.13,353.62
L 642.48,336.56
L 683.63,343.34
"/>
<path stroke="black" fill="transparent" d="
M 662.31,402.11
L 663.22,396.24
L 708.92,405.10
"/>
<path stroke="black" fill="transparent" d="
M 257.88,352.31
L 255.62,324.50
"/>
<path stroke="black" fill="transparent" d="
M 224.24,274.21
L 228.72,272.47
L 249.47,275.95
"/>
<path stroke="black" fill="transparent" d="
M 744.54,317.87
L 745.21,314.43
"/>
<path stroke="black" fill="transparent" d="
M 674.78,481.04
L 676.41,471.42
L 669.03,488.35
"/>
<path stroke="black" fill="transparent" d="
M 343.19,507.15
L 355.97,495.45
L 309.72,481.92
L 277.81,507.95
L 306.69,517.06
"/>
<path stroke="black" fill="transparent" d="
M 501.02,344.36
L 463.99,337.61
L 447.24,350.52
"/>
<path stroke="black" fill="transparent" d="
M 454.56,266.06
L 427.29,262.20
L 413.61,269.54
"/>
<path stroke="black" fill="transparent" d="
M 208.54,325.94
L 197.06,323.58
L 171.28,335.05
"/>
<path stroke="black" fill="transparent" d="
M 296.64,282.08
L 276.90,278.80
L 259.40,286.31
"/>
<path stroke="black" fill="transparent" d="
M 257.97,298.96
L 238.28,295.38
L 226.17,300.58
"/>
<path stroke="black" fill="transparent" d="
M 435.35,790.96
L 436.52,747.55
"/>
<path stroke="black" fill="transparent" d="
M 446.97,360.64
L 447.24,350.52
"/>
<path stroke="black" fill="transparent" d="
M 703.82,593.65
L 707.36,576.11
"/>
<path stroke="black" fill="transparent" d="
M 191.64,475.47
L 224.38,453.71
L 260.13,464.08
"/>
<path stroke="black" fill="transparent" d="
M 413.80,272.85
L 413.58,272.97
"/>
<path stroke="black" fill="transparent" d="
M 561.55,265.18
L 532.94,261.38
L 522.66,268.61
"/>
<path stroke="black" fill="transparent" d="
M 605.15,638.95
L 620.73,602.94
L 693.58,625.41
"/>
<path stroke="black" fill="transparent" d="
M 232.68,493.85
L 231.74,484.79
"/>
<path stroke="black" fill="transparent" d="
M 674.37,699.43
L 681.25,664.33
L 666.25,714.80
"/>
<path stroke="black" fill="transparent" d="
M 206.76,608.87
L 157.10,652.60
"/>
<path stroke="black" fill="transparent" d="
M 674.80,480.91
L 675.86,474.64
"/>
<path stroke="black" fill="transparent" d="
M 701.39,324.23
L 702.97,314.89
"/>
<path stroke="black" fill="transparent" d="
M 233.12,420.52
L 216.92,416.21
L 184.33,435.75
L 223.66,447.00
"/>
<path stroke="black" fill="transparent" d="
M 765.37,380.78
L 800.17,386.92
"/>
<path stroke="black" fill="transparent" d="
M 652.82,419.29
L 652.86,418.97
L 694.21,427.56
"/>
<path stroke="black" fill="transparent" d="
M 94.24,704.67
L 154.70,651.69
L 215.84,678.88
"/>
<path stroke="black" fill="transparent" d="
M 167.92,338.03
L 143.27,332.59
L 114.99,344.60
L 144.02,351.39
"/>
<path stroke="black" fill="transparent" d="
M 742.94,465.01
L 797.68,477.09
"/>
<path stroke="black" fill="transparent" d="
M 222.81,315.78
L 243.63,306.40
L 271.55,311.66
"/>
<path stroke="black" fill="transparent" d="
M 265.66,636.28
L 265.64,636.05
"/>
<path stroke="black" fill="transparent" d="
M 233.12,281.74
L 232.56,275.62
"/>
<path stroke="black" fill="transparent" d="
M 47.56,550.44
L 13.03,536.51
L -0.53,544.62
"/>
<path stroke="black" fill="transparent" d="
M 459.68,327.12
L 460.20,311.66
"/>
<path stroke="black" fill="transparent" d="
M 561.83,305.64
L 562.44,298.89
"/>
<path stroke="black" fill="transparent" d="
M 493.67,317.27
L 460.20,311.66
L 474.43,301.69
L 506.99,306.92
"/>
<path stroke="black" fill="transparent" d="
M 500.38,355.50
L 501.02,344.36
"/>
<path stroke="black" fill="transparent" d="
M 379.03,402.20
L 347.66,394.95
L 370.48,378.77
L 409.20,387.22
L 395.94,397.64
"/>
<path stroke="black" fill="transparent" d="
M 87.82,376.36
L 87.77,376.08
"/>
<path stroke="black" fill="transparent" d="
M 356.41,511.18
L 355.57,480.87
L 405.09,494.91
"/>
<path stroke="black" fill="transparent" d="
M 454.06,283.06
L 454.56,266.06
L 441.51,273.65
"/>
<path stroke="black" fill="transparent" d="
M 512.60,542.66
L 514.28,519.49
"/>
<path stroke="black" fill="transparent" d="
M 530.57,294.13
L 530.59,293.88
"/>
<path stroke="black" fill="transparent" d="
M 329.09,665.57
L 328.88,661.48
"/>
<path stroke="black" fill="transparent" d="
M 311.00,299.71
L 310.64,292.38
"/>
<path stroke="black" fill="transparent" d="
M 92.26,308.47
L 91.34,303.12
"/>
<path stroke="black" fill="transparent" d="
M 194.67,515.51
L 232.10,488.30
L 189.41,474.98
L 150.69,500.61
"/>
<path stroke="black" fill="transparent" d="
M 619.63,330.48
L 619.35,330.82
"/>
<path stroke="black" fill="transparent" d="
M 665.18,314.65
L 665.97,309.39
L 702.97,314.89
"/>
<path stroke="black" fill="transparent" d="
M 689.32,340.87
L 690.97,330.86
L 683.63,343.34
"/>
<path stroke="black" fill="transparent" d="
M 570.05,299.35
L 540.68,294.92
L 540.02,295.46
"/>
<path stroke="black" fill="transparent" d="
M 142.56,304.73
L 166.17,295.63
L 191.20,300.41
"/>
<path stroke="black" fill="transparent" d="
M 54.26,343.29
L 54.70,343.40
"/>
<path stroke="black" fill="transparent" d="
M 375.34,260.66
L 375.30,258.00
"/>
<path stroke="black" fill="transparent" d="
M 472.89,302.59
L 443.02,297.77
L 427.96,307.41
"/>
<path stroke="black" fill="transparent" d="
M 427.99,305.94
L 396.95,300.74
L 379.98,310.65
"/>
<path stroke="black" fill="transparent" d="
M 769.80,365.97
L 771.43,358.30
"/>
<path stroke="black" fill="transparent" d="
M 726.15,518.57
L 731.48,500.39
L 792.68,515.05
L 789.58,534.39
"/>
<path stroke="black" fill="transparent" d="
M 145.41,414.32
L 109.81,404.41
L 144.40,387.11
L 179.20,396.14
"/>
<path stroke="black" fill="transparent" d="
M 466.35,301.48
L 469.53,299.29
L 482.31,301.33
"/>
<path stroke="black" fill="transparent" d="
M 185.50,444.77
L 183.13,426.48
L 149.52,446.14
"/>
<path stroke="black" fill="transparent" d="
M 429.74,407.13
L 429.77,405.44
"/>
<path stroke="black" fill="transparent" d="
M 584.12,664.35
L 558.01,722.58
"/>
<path stroke="black" fill="transparent" d="
M 469.46,295.38
L 469.68,295.42
"/>
<path stroke="black" fill="transparent" d="
M 459.81,340.74
L 444.52,337.92
L 428.18,349.94
L 446.93,353.57
"/>
<path stroke="black" fill="transparent" d="
M 709.03,404.84
L 708.92,405.10
"/>
<path stroke="black" fill="transparent" d="
M 572.62,553.51
L 572.48,553.78
"/>
<path stroke="black" fill="transparent" d="
M 298.92,248.53
L 280.58,245.88
L 264.06,252.10
"/>
<path stroke="black" fill="transparent" d="
M 185.26,271.59
L 185.05,269.76
L 204.06,273.00
"/>
<path stroke="black" fill="transparent" d="
M 427.29,262.28
L 427.30,261.14
"/>
<path stroke="black" fill="transparent" d="
M 776.97,614.78
L 780.62,600.37
L 801.21,606.19
"/>
<path stroke="black" fill="transparent" d="
M 488.74,336.15
L 492.86,332.79
L 459.69,326.93
L 444.51,338.10
L 459.54,340.88
"/>
<path stroke="black" fill="transparent" d="
M 183.98,329.34
L 170.16,326.41
L 151.77,334.35
"/>
<path stroke="black" fill="transparent" d="
M 27.00,320.11
L 33.06,317.99
L 58.85,323.87
"/>
<path stroke="black" fill="transparent" d="
M 302.09,279.76
L 294.81,283.04
"/>
<path stroke="black" fill="transparent" d="
M 453.07,451.22
L 435.55,469.13
"/>
<path stroke="black" fill="transparent" d="
M 691.46,636.06
L 693.58,625.41
"/>
<path stroke="black" fill="transparent" d="
M 255.62,324.50
L 225.11,318.43
L 199.72,330.02
"/>
<path stroke="black" fill="transparent" d="
M 440.19,254.24
L 414.32,250.72
L 400.87,257.41
"/>
<path stroke="black" fill="transparent" d="
M 749.53,304.49
L 713.59,299.46
L 708.10,309.04
"/>
<path stroke="black" fill="transparent" d="
M 778.30,341.10
L 779.72,334.53
"/>
<path stroke="black" fill="transparent" d="
M 757.05,728.33
L 768.07,686.03
L 800.70,696.70
"/>
<path stroke="black" fill="transparent" d="
M 192.87,621.04
L 155.59,605.68
L 105.99,646.01
"/>
<path stroke="black" fill="transparent" d="
M 732.00,338.37
L 695.53,332.60
L 690.90,340.73
"/>
<path stroke="black" fill="transparent" d="
M 200.57,274.20
L 185.26,271.57
L 184.62,271.81
"/>
<path stroke="black" fill="transparent" d="
M 287.29,258.90
L 264.30,255.40
L 246.87,262.05
"/>
<path stroke="black" fill="transparent" d="
M 407.45,424.74
L 363.75,414.21
L 387.56,395.89
L 429.77,405.44
L 407.45,424.74
L 407.38,440.11
"/>
<path stroke="black" fill="transparent" d="
M 783.15,576.13
L 714.44,557.53
L 691.74,634.65
"/>
<path stroke="black" fill="transparent" d="
M 306.97,580.36
L 250.55,560.29
L 289.88,526.29
L 343.98,543.87
L 306.97,580.36
L 307.78,593.57
"/>
<path stroke="black" fill="transparent" d="
M 364.90,246.41
L 364.75,238.24
"/>
<path stroke="black" fill="transparent" d="
M 567.83,462.97
L 569.90,442.78
"/>
<path stroke="black" fill="transparent" d="
M 512.61,542.51
L 513.79,526.21
L 497.12,549.63
"/>
<path stroke="black" fill="transparent" d="
M 328.90,661.84
L 368.08,615.76
L 433.20,639.47
L 406.60,676.85
"/>
<path stroke="black" fill="transparent" d="
M 466.65,264.41
L 466.78,260.81
"/>
<path stroke="black" fill="transparent" d="
M 559.62,379.29
L 567.57,370.23
L 611.51,378.57
"/>
<path stroke="black" fill="transparent" d="
M 612.63,289.53
L 613.33,283.52
"/>
<path stroke="black" fill="transparent" d="
M 427.68,277.79
L 399.06,273.47
L 383.53,281.69
"/>
<path stroke="black" fill="transparent" d="
M 619.56,331.01
L 620.62,322.45
"/>
<path stroke="black" fill="transparent" d="
M 672.96,299.83
L 673.16,298.55
L 666.13,308.29
"/>
<path stroke="black" fill="transparent" d="
M 470.91,575.84
L 491.08,548.04
L 554.64,567.10
"/>
<path stroke="black" fill="transparent" d="
M 429.32,468.96
L 382.86,456.69
L 355.57,480.87
"/>
<path stroke="black" fill="transparent" d="
M 213.95,318.73
L 194.37,314.81
L 170.01,325.28
L 185.58,328.57
"/>
<path stroke="black" fill="transparent" d="
M 748.68,445.80
L 800.01,456.60
"/>
<path stroke="black" fill="transparent" d="
M 191.91,303.42
L 191.56,303.56
"/>
<path stroke="black" fill="transparent" d="
M 797.62,477.33
L 800.10,467.21
"/>
<path stroke="black" fill="transparent" d="
M 338.23,454.61
L 338.13,452.15
"/>
<path stroke="black" fill="transparent" d="
M 319.25,272.30
L 318.92,264.93
"/>
<path stroke="black" fill="transparent" d="
M -0.32,577.41
L 45.02,597.39
L -0.17,628.76
"/>
<path stroke="black" fill="transparent" d="
M 102.12,644.67
L 102.08,644.45
"/>
<path stroke="black" fill="transparent" d="
M 792.60,515.37
L 795.84,502.32
L 791.16,531.88
L 800.69,534.24
"/>
<path stroke="black" fill="transparent" d="
M 343.76,259.01
L 350.56,255.98
L 375.32,259.55
"/>
<path stroke="black" fill="transparent" d="
M 344.23,550.83
L 343.98,543.86
"/>
<path stroke="black" fill="transparent" d="
M 332.98,238.34
L 332.80,233.46
"/>
<path stroke="black" fill="transparent" d="
M 444.52,337.97
L 445.04,317.17
"/>
<path stroke="black" fill="transparent" d="
M 77.58,453.16
L 72.34,426.36
"/>
<path stroke="black" fill="transparent" d="
M 76.24,371.96
L 86.23,367.58
L 58.03,360.36
L 34.63,370.05
"/>
<path stroke="black" fill="transparent" d="
M 525.89,800.46
L 527.26,786.33
"/>
<path stroke="black" fill="transparent" d="
M 774.77,349.72
L 777.36,340.99
L 800.05,344.53
"/>
<path stroke="black" fill="transparent" d="
M 252.26,273.67
L 228.46,269.73
L 246.92,262.66
L 266.60,265.79
"/>
<path stroke="black" fill="transparent" d="
M 186.56,311.21
L 192.18,308.86
L 193.37,309.09
"/>
<path stroke="black" fill="transparent" d="
M 768.02,686.18
L 757.07,728.25
L 761.30,712.00
"/>
<path stroke="black" fill="transparent" d="
M 574.12,324.84
L 540.26,319.27
L 551.70,309.05
L 585.67,314.41
"/>
<path stroke="black" fill="transparent" d="
M 551.68,309.26
L 552.03,305.13
"/>
<path stroke="black" fill="transparent" d="
M 562.44,298.89
L 530.58,294.07
L 522.52,300.46
"/>
<path stroke="black" fill="transparent" d="
M 640.87,801.00
L 645.25,786.23
L 679.98,800.15
"/>
<path stroke="black" fill="transparent" d="
M 714.43,557.53
L 716.02,549.78
"/>
<path stroke="black" fill="transparent" d="
M 742.84,456.25
L 749.39,434.23
L 696.36,423.38
L 687.23,444.22
"/>
<path stroke="black" fill="transparent" d="
M 775.97,635.42
L 800.87,642.91
"/>
<path stroke="black" fill="transparent" d="
M 506.71,279.39
L 493.61,277.50
L 482.05,285.27
"/>
<path stroke="black" fill="transparent" d="
M 66.22,452.78
L 76.44,447.34
L 42.31,436.49
L 41.37,436.96
"/>
<path stroke="black" fill="transparent" d="
M 144.25,351.29
L 144.02,351.39
"/>
<path stroke="black" fill="transparent" d="
M 147.88,482.61
L 151.51,505.90
L 150.69,500.61
L 194.67,515.51
"/>
<path stroke="black" fill="transparent" d="
M 764.80,383.47
L 718.37,375.20
L 724.69,360.69
L 768.95,368.22
"/>
<path stroke="black" fill="transparent" d="
M 296.00,236.06
L 310.88,230.57
L 332.80,233.46
"/>
<path stroke="black" fill="transparent" d="
M 522.05,277.60
L 522.66,268.61
"/>
<path stroke="black" fill="transparent" d="
M 530.57,294.12
L 530.95,288.92
"/>
<path stroke="black" fill="transparent" d="
M 585.17,320.52
L 585.01,320.68
"/>
<path stroke="black" fill="transparent" d="
M 645.20,786.50
L 646.40,780.07
"/>
<path stroke="black" fill="transparent" d="
M 55.66,751.00
L 55.42,751.22
"/>
<path stroke="black" fill="transparent" d="
M 428.99,368.43
L 447.14,354.28
L 410.65,347.20
L 397.87,356.17
"/>
<path stroke="black" fill="transparent" d="
M 697.69,319.67
L 659.30,313.86
L 651.45,324.59
"/>
<path stroke="black" fill="transparent" d="
M 445.04,317.17
L 411.85,311.45
L 394.41,322.37
L 428.53,328.54
"/>
<path stroke="black" fill="transparent" d="
M 662.73,400.05
L 662.59,400.30
"/>
<path stroke="black" fill="transparent" d="
M 428.88,374.97
L 429.08,362.64
L 409.25,377.84
"/>
<path stroke="black" fill="transparent" d="
M 645.17,786.67
L 650.49,758.19
"/>
<path stroke="black" fill="transparent" d="
M 701.36,324.40
L 701.90,321.21
"/>
<path stroke="black" fill="transparent" d="
M 66.75,456.04
L 64.40,444.47
"/>
<path stroke="black" fill="transparent" d="
M 503.18,673.01
L 504.24,658.29
"/>
<path stroke="black" fill="transparent" d="
M 421.44,682.52
L 432.59,666.20
L 493.65,689.42
"/>
<path stroke="black" fill="transparent" d="
M 703.86,593.47
L 776.99,614.71
"/>
<path stroke="black" fill="transparent" d="
M 707.77,310.97
L 708.84,304.74
"/>
<path stroke="black" fill="transparent" d="
M 160.52,310.48
L 167.72,307.57
L 194.14,312.83
"/>
<path stroke="black" fill="transparent" d="
M 574.90,532.05
L 592.69,501.54
L 653.85,517.34
L 639.47,549.96
"/>
<path stroke="black" fill="transparent" d="
M 427.86,314.05
L 427.99,305.94
"/>
<path stroke="black" fill="transparent" d="
M 409.18,390.36
L 428.88,374.73
L 468.10,382.90
"/>
<path stroke="black" fill="transparent" d="
M 197.77,291.80
L 188.65,290.12
L 171.87,296.66
"/>
<path stroke="black" fill="transparent" d="
M 707.88,410.77
L 662.36,401.80
L 652.86,418.97
"/>
<path stroke="black" fill="transparent" d="
M 652.81,419.32
L 652.86,419.00
L 647.29,429.07
"/>
<path stroke="red" fill="transparent" d="
M 0.00,0.00
L 800.00,0.00
L 800.00,800.00
L 0.00,800.00
L 0.00,0.00
"/>
</svg>
