<svg viewBox="0 0 800 800" xmlns="http://www.w3.org/2000/svg" style="background-color:white">
<path stroke="black" fill="transparent" d="
M 571.12,324.72
L 574.68,330.69
"/>
<path stroke="black" fill="transparent" d="
M 228.88,324.72
L 232.97,319.48
"/>
<path stroke="black" fill="transparent" d="
M 569.68,478.00
L 564.16,485.45
"/>
<path stroke="black" fill="transparent" d="
M 236.61,406.00
L 229.67,399.41
L 224.01,392.65
"/>
<path stroke="black" fill="transparent" d="
M 249.27,467.82
L 239.55,461.05
"/>
<path stroke="black" fill="transparent" d="
M 331.82,464.63
L 315.99,461.33
"/>
<path stroke="black" fill="transparent" d="
M 208.22,408.31
L 208.84,400.73
"/>
<path stroke="black" fill="transparent" d="
M 448.44,538.77
L 432.55,540.74
"/>
<path stroke="black" fill="transparent" d="
M 484.01,461.33
L 468.18,464.63
"/>
<path stroke="black" fill="transparent" d="
M 586.43,416.96
L 581.98,424.45
L 576.20,431.82
"/>
<path stroke="black" fill="transparent" d="
M 305.18,543.82
L 304.69,543.52
"/>
<path stroke="black" fill="transparent" d="
M 580.12,408.98
L 574.38,416.09
L 567.32,423.02
L 558.95,429.71
"/>
<path stroke="black" fill="transparent" d="
M 340.43,248.96
L 342.77,247.25
"/>
<path stroke="black" fill="transparent" d="
M 313.67,548.25
L 305.18,543.82
"/>
<path stroke="black" fill="transparent" d="
M 466.61,243.99
L 472.85,246.02
"/>
<path stroke="black" fill="transparent" d="
M 263.19,299.77
L 263.14,295.32
L 263.94,290.91
"/>
<path stroke="black" fill="transparent" d="
M 342.22,271.91
L 339.85,270.09
"/>
<path stroke="black" fill="transparent" d="
M 589.57,421.33
L 589.61,421.81
"/>
<path stroke="black" fill="transparent" d="
M 527.81,317.55
L 523.32,321.82
"/>
<path stroke="black" fill="transparent" d="
M 317.08,307.66
L 311.33,304.82
"/>
<path stroke="black" fill="transparent" d="
M 500.04,490.37
L 484.84,494.57
"/>
<path stroke="black" fill="transparent" d="
M 338.44,250.74
L 340.43,248.96
"/>
<path stroke="black" fill="transparent" d="
M 549.45,499.70
L 540.30,506.37
"/>
<path stroke="black" fill="transparent" d="
M 498.76,504.61
L 483.75,508.84
"/>
<path stroke="black" fill="transparent" d="
M 225.32,330.69
L 228.88,324.72
"/>
<path stroke="black" fill="transparent" d="
M 322.85,552.26
L 313.67,548.25
"/>
<path stroke="black" fill="transparent" d="
M 499.07,457.38
L 484.01,461.33
"/>
<path stroke="black" fill="transparent" d="
M 540.30,506.37
L 530.00,512.65
L 518.62,518.48
"/>
<path stroke="black" fill="transparent" d="
M 493.78,301.81
L 488.67,304.82
"/>
<path stroke="black" fill="transparent" d="
M 587.79,365.71
L 589.54,372.75
"/>
<path stroke="black" fill="transparent" d="
M 414.52,558.15
L 400.00,558.51
L 385.48,558.15
L 371.10,557.08
"/>
<path stroke="black" fill="transparent" d="
M 260.24,474.20
L 249.27,467.82
"/>
<path stroke="black" fill="transparent" d="
M 430.93,549.86
L 415.53,551.00
"/>
<path stroke="black" fill="transparent" d="
M 272.39,480.13
L 260.24,474.20
"/>
<path stroke="black" fill="transparent" d="
M 578.78,343.14
L 579.21,349.54
"/>
<path stroke="black" fill="transparent" d="
M 490.65,369.03
L 479.20,372.21
"/>
<path stroke="black" fill="transparent" d="
M 254.26,418.42
L 244.82,412.35
L 236.61,406.00
"/>
<path stroke="black" fill="transparent" d="
M 574.68,330.69
L 577.25,336.84
L 578.78,343.14
"/>
<path stroke="black" fill="transparent" d="
M 383.65,541.92
L 367.45,540.74
"/>
<path stroke="black" fill="transparent" d="
M 584.55,401.75
L 580.12,408.98
"/>
<path stroke="black" fill="transparent" d="
M 492.90,528.52
L 478.75,532.63
L 463.89,536.06
L 448.44,538.77
"/>
<path stroke="black" fill="transparent" d="
M 458.16,348.35
L 447.13,350.24
"/>
<path stroke="black" fill="transparent" d="
M 467.36,555.83
L 457.01,558.91
"/>
<path stroke="black" fill="transparent" d="
M 216.22,351.45
L 218.96,344.90
L 221.68,340.31
"/>
<path stroke="black" fill="transparent" d="
M 432.47,428.54
L 416.31,429.55
"/>
<path stroke="black" fill="transparent" d="
M 520.48,270.49
L 525.02,274.29
"/>
<path stroke="black" fill="transparent" d="
M 318.29,521.54
L 303.63,517.34
"/>
<path stroke="black" fill="transparent" d="
M 210.66,423.71
L 208.81,415.99
L 208.22,408.31
"/>
<path stroke="black" fill="transparent" d="
M 288.31,329.93
L 282.07,325.96
L 276.68,321.82
L 272.19,317.55
"/>
<path stroke="black" fill="transparent" d="
M 208.00,394.35
L 208.62,386.94
L 210.14,380.79
"/>
<path stroke="black" fill="transparent" d="
M 265.25,501.14
L 254.63,494.74
L 245.20,487.95
"/>
<path stroke="black" fill="transparent" d="
M 332.04,512.37
L 316.25,508.84
"/>
<path stroke="black" fill="transparent" d="
M 242.96,387.88
L 236.23,381.74
"/>
<path stroke="black" fill="transparent" d="
M 446.03,547.97
L 430.93,549.86
"/>
<path stroke="black" fill="transparent" d="
M 303.63,517.34
L 289.83,512.51
L 277.01,507.09
L 265.25,501.14
"/>
<path stroke="black" fill="transparent" d="
M 251.14,481.88
L 241.52,475.05
"/>
<path stroke="black" fill="transparent" d="
M 523.32,321.82
L 517.93,325.96
L 511.69,329.93
"/>
<path stroke="black" fill="transparent" d="
M 226.13,460.49
L 220.40,452.89
L 215.98,445.16
"/>
<path stroke="black" fill="transparent" d="
M 287.12,528.42
L 276.25,522.79
"/>
<path stroke="black" fill="transparent" d="
M 451.97,558.30
L 439.38,560.58
"/>
<path stroke="black" fill="transparent" d="
M 435.10,502.85
L 417.63,504.06
L 400.00,504.47
"/>
<path stroke="black" fill="transparent" d="
M 382.60,518.41
L 365.36,517.18
"/>
<path stroke="black" fill="transparent" d="
M 509.91,281.74
L 508.99,285.20
"/>
<path stroke="black" fill="transparent" d="
M 299.83,474.63
L 285.52,469.90
"/>
<path stroke="black" fill="transparent" d="
M 388.20,565.86
L 376.51,564.97
L 365.01,563.51
"/>
<path stroke="black" fill="transparent" d="
M 583.04,450.38
L 579.94,458.16
"/>
<path stroke="black" fill="transparent" d="
M 463.73,424.59
L 448.32,426.88
L 432.47,428.54
"/>
<path stroke="black" fill="transparent" d="
M 464.12,555.43
L 451.97,558.30
"/>
<path stroke="black" fill="transparent" d="
M 381.14,321.97
L 371.90,321.17
"/>
<path stroke="black" fill="transparent" d="
M 463.68,266.29
L 462.12,268.21
"/>
<path stroke="black" fill="transparent" d="
M 400.00,504.47
L 382.37,504.07
L 364.90,502.85
L 347.78,500.84
L 331.14,498.07
"/>
<path stroke="black" fill="transparent" d="
M 212.86,437.37
L 211.00,429.57
L 210.39,421.81
L 210.43,421.33
"/>
<path stroke="black" fill="transparent" d="
M 475.72,551.97
L 464.12,555.43
"/>
<path stroke="black" fill="transparent" d="
M 549.54,296.59
L 552.43,301.52
"/>
<path stroke="black" fill="transparent" d="
M 536.06,290.91
L 536.86,295.32
L 536.81,299.77
"/>
<path stroke="black" fill="transparent" d="
M 575.99,392.65
L 570.33,399.41
L 563.39,406.00
L 555.18,412.35
"/>
<path stroke="black" fill="transparent" d="
M 389.11,284.64
L 383.77,284.21
L 378.54,283.62
L 373.46,282.86
"/>
<path stroke="black" fill="transparent" d="
M 270.00,512.65
L 259.70,506.37
L 250.55,499.70
"/>
<path stroke="black" fill="transparent" d="
M 427.68,380.36
L 413.90,381.16
"/>
<path stroke="black" fill="transparent" d="
M 336.80,252.59
L 338.44,250.74
"/>
<path stroke="black" fill="transparent" d="
M 321.25,532.63
L 307.10,528.52
L 293.78,523.79
"/>
<path stroke="black" fill="transparent" d="
M 510.14,278.28
L 509.91,281.74
"/>
<path stroke="black" fill="transparent" d="
M 411.80,565.86
L 400.00,566.15
L 388.21,565.86
"/>
<path stroke="black" fill="transparent" d="
M 294.31,536.81
L 284.07,531.48
L 274.76,525.72
L 266.46,519.60
"/>
<path stroke="black" fill="transparent" d="
M 561.91,489.26
L 556.56,496.48
"/>
<path stroke="black" fill="transparent" d="
M 474.86,542.06
L 460.72,545.36
L 446.03,547.97
"/>
<path stroke="black" fill="transparent" d="
M 501.33,365.47
L 490.65,369.03
"/>
<path stroke="black" fill="transparent" d="
M 462.12,268.21
L 460.15,270.09
L 457.78,271.91
"/>
<path stroke="black" fill="transparent" d="
M 347.71,484.87
L 331.05,482.16
L 315.05,478.73
L 299.83,474.63
"/>
<path stroke="black" fill="transparent" d="
M 498.22,298.66
L 493.78,301.81
"/>
<path stroke="black" fill="transparent" d="
M 509.52,263.45
L 515.30,266.88
L 520.48,270.49
"/>
<path stroke="black" fill="transparent" d="
M 460.03,242.15
L 466.61,243.99
"/>
<path stroke="black" fill="transparent" d="
M 400.00,353.69
L 387.96,353.47
"/>
<path stroke="black" fill="transparent" d="
M 448.33,242.62
L 451.59,244.07
"/>
<path stroke="black" fill="transparent" d="
M 452.22,500.84
L 435.10,502.85
"/>
<path stroke="black" fill="transparent" d="
M 400.00,470.67
L 382.54,470.28
L 365.25,469.14
"/>
<path stroke="black" fill="transparent" d="
M 542.39,510.28
L 533.61,516.73
"/>
<path stroke="black" fill="transparent" d="
M 417.46,470.29
L 400.00,470.67
"/>
<path stroke="black" fill="transparent" d="
M 277.29,527.55
L 272.84,523.61
"/>
<path stroke="black" fill="transparent" d="
M 365.25,469.14
L 348.29,467.25
L 331.82,464.63
"/>
<path stroke="black" fill="transparent" d="
M 525.02,274.29
L 528.89,278.25
L 532.04,282.35
"/>
<path stroke="black" fill="transparent" d="
M 431.42,281.94
L 426.54,282.86
"/>
<path stroke="black" fill="transparent" d="
M 545.80,291.81
L 549.54,296.59
"/>
<path stroke="black" fill="transparent" d="
M 279.85,357.31
L 271.84,352.79
L 264.82,348.05
"/>
<path stroke="black" fill="transparent" d="
M 525.99,494.29
L 512.88,499.75
L 498.76,504.61
"/>
<path stroke="black" fill="transparent" d="
M 587.68,394.46
L 584.55,401.75
"/>
<path stroke="black" fill="transparent" d="
M 531.40,313.18
L 527.81,317.55
"/>
<path stroke="black" fill="transparent" d="
M 560.65,445.94
L 550.92,452.56
L 539.94,458.81
"/>
<path stroke="black" fill="transparent" d="
M 270.32,404.77
L 260.04,399.45
L 250.91,393.81
L 242.96,387.88
"/>
<path stroke="black" fill="transparent" d="
M 589.86,380.79
L 591.38,386.94
L 592.00,394.35
"/>
<path stroke="black" fill="transparent" d="
M 428.90,557.08
L 414.52,558.15
"/>
<path stroke="black" fill="transparent" d="
M 557.94,305.40
L 562.12,310.73
"/>
<path stroke="black" fill="transparent" d="
M 334.42,262.35
L 334.09,260.37
L 334.17,258.39
"/>
<path stroke="black" fill="transparent" d="
M 462.16,314.98
L 454.21,316.95
"/>
<path stroke="black" fill="transparent" d="
M 288.81,361.55
L 279.85,357.31
"/>
<path stroke="black" fill="transparent" d="
M 444.61,278.34
L 440.49,279.67
"/>
<path stroke="black" fill="transparent" d="
M 224.43,465.87
L 220.06,458.16
"/>
<path stroke="black" fill="transparent" d="
M 313.31,547.99
L 303.07,543.50
"/>
<path stroke="black" fill="transparent" d="
M 324.28,551.97
L 313.31,547.99
"/>
<path stroke="black" fill="transparent" d="
M 576.20,431.82
L 569.08,439.00
L 560.65,445.94
"/>
<path stroke="black" fill="transparent" d="
M 400.00,542.32
L 383.65,541.92
"/>
<path stroke="black" fill="transparent" d="
M 589.53,387.16
L 587.67,394.46
"/>
<path stroke="black" fill="transparent" d="
M 558.95,429.71
L 549.31,436.10
L 538.43,442.13
L 526.38,447.72
"/>
<path stroke="black" fill="transparent" d="
M 589.54,372.75
L 590.13,379.91
L 589.53,387.16
"/>
<path stroke="black" fill="transparent" d="
M 569.29,375.43
L 563.77,381.74
L 557.04,387.88
L 549.09,393.81
"/>
<path stroke="black" fill="transparent" d="
M 409.77,234.83
L 414.59,235.17
L 419.33,235.66
"/>
<path stroke="black" fill="transparent" d="
M 527.16,523.61
L 522.71,527.55
"/>
<path stroke="black" fill="transparent" d="
M 245.17,322.28
L 244.32,317.00
L 244.46,311.75
"/>
<path stroke="black" fill="transparent" d="
M 220.06,458.16
L 216.96,450.38
L 215.10,442.60
L 215.04,441.86
"/>
<path stroke="black" fill="transparent" d="
M 400.00,322.62
L 390.53,322.46
L 381.14,321.97
"/>
<path stroke="black" fill="transparent" d="
M 441.21,379.06
L 427.68,380.36
"/>
<path stroke="black" fill="transparent" d="
M 443.03,555.29
L 428.90,557.08
"/>
<path stroke="black" fill="transparent" d="
M 555.68,317.00
L 554.83,322.28
"/>
<path stroke="black" fill="transparent" d="
M 321.45,421.68
L 307.33,418.21
L 294.04,414.20
"/>
<path stroke="black" fill="transparent" d="
M 390.01,565.53
L 380.10,564.78
L 374.92,564.12
"/>
<path stroke="black" fill="transparent" d="
M 311.33,304.82
L 306.22,301.81
L 301.78,298.66
"/>
<path stroke="black" fill="transparent" d="
M 437.12,320.06
L 428.10,321.17
L 418.86,321.97
"/>
<path stroke="black" fill="transparent" d="
M 434.75,469.14
L 417.46,470.28
"/>
<path stroke="black" fill="transparent" d="
M 579.21,349.54
L 578.51,356.01
L 576.64,362.52
"/>
<path stroke="black" fill="transparent" d="
M 236.23,381.74
L 230.71,375.43
L 226.43,369.01
L 223.36,362.52
"/>
<path stroke="black" fill="transparent" d="
M 440.49,279.67
L 436.08,280.88
L 431.42,281.94
"/>
<path stroke="black" fill="transparent" d="
M 448.42,276.88
L 444.61,278.34
"/>
<path stroke="black" fill="transparent" d="
M 511.69,329.93
L 504.59,333.70
L 496.70,337.23
L 488.05,340.49
"/>
<path stroke="black" fill="transparent" d="
M 539.76,474.20
L 527.61,480.13
L 514.33,485.54
L 500.04,490.37
"/>
<path stroke="black" fill="transparent" d="
M 298.96,533.54
L 287.12,528.42
"/>
<path stroke="black" fill="transparent" d="
M 556.56,496.48
L 550.05,503.51
L 542.39,510.28
"/>
<path stroke="black" fill="transparent" d="
M 585.74,360.77
L 587.79,365.71
"/>
<path stroke="black" fill="transparent" d="
M 510.45,434.27
L 496.62,438.59
"/>
<path stroke="black" fill="transparent" d="
M 521.89,383.96
L 511.16,388.43
L 499.50,392.51
"/>
<path stroke="black" fill="transparent" d="
M 230.93,327.68
L 232.27,321.89
L 234.60,316.23
"/>
<path stroke="black" fill="transparent" d="
M 500.17,474.63
L 484.95,478.73
"/>
<path stroke="black" fill="transparent" d="
M 452.29,484.87
L 435.14,486.84
L 417.66,488.03
L 400.00,488.42
L 382.34,488.03
"/>
<path stroke="black" fill="transparent" d="
M 511.19,361.55
L 501.33,365.47
"/>
<path stroke="black" fill="transparent" d="
M 451.59,244.07
L 454.56,245.61
L 457.23,247.25
"/>
<path stroke="black" fill="transparent" d="
M 404.90,234.62
L 409.77,234.83
"/>
<path stroke="black" fill="transparent" d="
M 395.10,234.62
L 400.00,234.55
L 404.90,234.62
"/>
<path stroke="black" fill="transparent" d="
M 295.41,333.70
L 288.31,329.93
"/>
<path stroke="black" fill="transparent" d="
M 528.16,352.79
L 520.15,357.31
L 511.19,361.55
"/>
<path stroke="black" fill="transparent" d="
M 235.84,485.45
L 230.32,478.00
"/>
<path stroke="black" fill="transparent" d="
M 547.84,368.61
L 540.28,374.00
L 531.61,379.13
L 521.89,383.96
"/>
<path stroke="black" fill="transparent" d="
M 565.70,482.58
L 561.91,489.26
"/>
<path stroke="black" fill="transparent" d="
M 506.81,268.15
L 508.57,271.47
"/>
<path stroke="black" fill="transparent" d="
M 428.49,237.02
L 432.86,237.90
L 437.05,238.91
L 441.04,240.03
"/>
<path stroke="black" fill="transparent" d="
M 360.62,560.58
L 348.03,558.30
"/>
<path stroke="black" fill="transparent" d="
M 505.69,536.81
L 494.57,541.65
"/>
<path stroke="black" fill="transparent" d="
M 494.57,541.65
L 482.65,545.97
L 470.02,549.71
"/>
<path stroke="black" fill="transparent" d="
M 352.87,350.24
L 341.84,348.35
"/>
<path stroke="black" fill="transparent" d="
M 387.96,353.47
L 376.03,352.82
L 364.30,351.74
L 352.87,350.24
"/>
<path stroke="black" fill="transparent" d="
M 371.10,557.08
L 356.97,555.29
L 343.23,552.83
L 329.98,549.71
"/>
<path stroke="black" fill="transparent" d="
M 294.04,414.20
L 281.67,409.70
L 270.32,404.77
"/>
<path stroke="black" fill="transparent" d="
M 530.02,278.62
L 535.99,282.81
"/>
<path stroke="black" fill="transparent" d="
M 264.10,304.26
L 263.19,299.77
"/>
<path stroke="black" fill="transparent" d="
M 250.46,296.59
L 254.20,291.81
"/>
<path stroke="black" fill="transparent" d="
M 468.18,464.63
L 451.71,467.25
L 434.75,469.14
"/>
<path stroke="black" fill="transparent" d="
M 358.79,379.06
L 345.62,377.25
L 332.92,374.95
"/>
<path stroke="black" fill="transparent" d="
M 214.02,364.98
L 214.56,358.15
L 216.22,351.45
"/>
<path stroke="black" fill="transparent" d="
M 577.16,462.26
L 577.04,462.75
"/>
<path stroke="black" fill="transparent" d="
M 576.64,362.52
L 573.57,369.01
L 569.29,375.43
"/>
<path stroke="black" fill="transparent" d="
M 535.18,348.05
L 528.16,352.79
"/>
<path stroke="black" fill="transparent" d="
M 504.43,264.93
L 506.81,268.15
"/>
<path stroke="black" fill="transparent" d="
M 290.09,281.74
L 289.86,278.28
L 290.31,274.85
L 291.43,271.47
"/>
<path stroke="black" fill="transparent" d="
M 506.22,523.79
L 492.90,528.52
"/>
<path stroke="black" fill="transparent" d="
M 589.61,421.81
L 589.00,429.57
L 587.14,437.37
"/>
<path stroke="black" fill="transparent" d="
M 536.81,299.77
L 535.90,304.26
L 534.10,308.73
L 531.41,313.18
"/>
<path stroke="black" fill="transparent" d="
M 351.58,276.88
L 348.10,275.32
"/>
<path stroke="black" fill="transparent" d="
M 212.32,394.46
L 210.47,387.16
L 209.87,379.91
L 210.46,372.75
"/>
<path stroke="black" fill="transparent" d="
M 290.48,263.45
L 296.80,260.24
L 300.87,258.45
"/>
<path stroke="black" fill="transparent" d="
M 465.58,262.35
L 464.84,264.33
L 463.68,266.29
"/>
<path stroke="black" fill="transparent" d="
M 250.55,499.70
L 242.59,492.71
L 235.84,485.45
"/>
<path stroke="black" fill="transparent" d="
M 336.27,424.59
L 321.45,421.68
"/>
<path stroke="black" fill="transparent" d="
M 240.43,357.26
L 236.28,351.39
"/>
<path stroke="black" fill="transparent" d="
M 373.46,282.86
L 368.58,281.94
L 363.92,280.88
L 359.51,279.67
"/>
<path stroke="black" fill="transparent" d="
M 583.78,351.45
L 585.44,358.15
"/>
<path stroke="black" fill="transparent" d="
M 532.04,282.35
L 534.44,286.58
L 536.06,290.91
"/>
<path stroke="black" fill="transparent" d="
M 232.68,423.02
L 225.62,416.09
L 219.88,408.98
"/>
<path stroke="black" fill="transparent" d="
M 339.85,270.09
L 337.88,268.21
"/>
<path stroke="black" fill="transparent" d="
M 535.09,424.13
L 523.30,429.43
L 510.45,434.27
"/>
<path stroke="black" fill="transparent" d="
M 557.41,492.71
L 549.45,499.70
"/>
<path stroke="black" fill="transparent" d="
M 339.97,242.15
L 346.83,240.51
L 353.95,239.08
"/>
<path stroke="black" fill="transparent" d="
M 584.90,442.60
L 583.04,450.38
"/>
<path stroke="black" fill="transparent" d="
M 505.96,414.20
L 492.67,418.21
L 478.55,421.68
L 463.73,424.58
"/>
<path stroke="black" fill="transparent" d="
M 239.35,445.94
L 230.92,439.00
"/>
<path stroke="black" fill="transparent" d="
M 330.38,312.77
L 323.44,310.32
"/>
<path stroke="black" fill="transparent" d="
M 577.04,462.75
L 573.97,470.41
L 569.68,478.00
"/>
<path stroke="black" fill="transparent" d="
M 579.94,458.16
L 575.57,465.87
"/>
<path stroke="black" fill="transparent" d="
M 230.63,333.56
L 230.93,327.68
"/>
<path stroke="black" fill="transparent" d="
M 335.54,254.49
L 336.80,252.59
"/>
<path stroke="black" fill="transparent" d="
M 457.23,247.25
L 459.57,248.96
L 461.56,250.74
"/>
<path stroke="black" fill="transparent" d="
M 514.48,469.90
L 500.17,474.63
"/>
<path stroke="black" fill="transparent" d="
M 279.52,270.49
L 284.70,266.88
L 290.48,263.45
"/>
<path stroke="black" fill="transparent" d="
M 417.02,450.81
L 400.00,451.17
L 382.98,450.81
"/>
<path stroke="black" fill="transparent" d="
M 441.04,240.03
L 444.81,241.27
L 448.33,242.62
"/>
<path stroke="black" fill="transparent" d="
M 554.83,322.28
L 552.97,327.57
L 550.08,332.83
L 546.16,338.02
"/>
<path stroke="black" fill="transparent" d="
M 382.34,488.03
L 364.86,486.84
L 347.71,484.87
"/>
<path stroke="black" fill="transparent" d="
M 484.95,478.73
L 468.95,482.16
L 452.29,484.87
"/>
<path stroke="black" fill="transparent" d="
M 469.62,312.77
L 462.16,314.98
"/>
<path stroke="black" fill="transparent" d="
M 332.64,555.83
L 322.85,552.26
"/>
<path stroke="black" fill="transparent" d="
M 231.40,339.50
L 230.63,333.56
"/>
<path stroke="black" fill="transparent" d="
M 479.20,372.21
L 467.08,374.95
L 454.38,377.25
L 441.21,379.06
"/>
<path stroke="black" fill="transparent" d="
M 321.30,343.45
L 311.95,340.49
"/>
<path stroke="black" fill="transparent" d="
M 426.54,282.86
L 421.46,283.62
L 416.23,284.21
L 410.89,284.64
"/>
<path stroke="black" fill="transparent" d="
M 291.43,271.47
L 293.19,268.15
L 295.57,264.93
"/>
<path stroke="black" fill="transparent" d="
M 365.36,517.18
L 348.46,515.16
L 332.04,512.37
"/>
<path stroke="black" fill="transparent" d="
M 535.99,282.81
L 541.27,287.21
L 545.80,291.81
"/>
<path stroke="black" fill="transparent" d="
M 476.56,310.32
L 469.62,312.77
"/>
<path stroke="black" fill="transparent" d="
M 549.09,393.81
L 539.96,399.45
L 529.68,404.77
"/>
<path stroke="black" fill="transparent" d="
M 261.57,442.13
L 250.69,436.10
L 241.05,429.71
L 232.68,423.02
"/>
<path stroke="black" fill="transparent" d="
M 302.08,258.80
L 306.16,255.93
L 310.74,253.20
"/>
<path stroke="black" fill="transparent" d="
M 323.44,310.32
L 317.08,307.66
"/>
<path stroke="black" fill="transparent" d="
M 268.39,379.13
L 259.72,374.00
"/>
<path stroke="black" fill="transparent" d="
M 359.51,279.67
L 355.39,278.34
L 351.58,276.88
"/>
<path stroke="black" fill="transparent" d="
M 508.99,285.20
L 507.35,288.65
L 505.01,292.06
"/>
<path stroke="black" fill="transparent" d="
M 222.96,462.75
L 222.84,462.26
"/>
<path stroke="black" fill="transparent" d="
M 331.14,498.07
L 315.16,494.57
L 299.96,490.37
"/>
<path stroke="black" fill="transparent" d="
M 230.32,478.00
L 226.03,470.41
L 222.96,462.75
"/>
<path stroke="black" fill="transparent" d="
M 518.62,518.48
L 506.22,523.79
"/>
<path stroke="black" fill="transparent" d="
M 575.57,465.87
L 569.92,473.44
L 562.99,480.82
"/>
<path stroke="black" fill="transparent" d="
M 489.26,253.20
L 493.84,255.93
L 497.92,258.80
"/>
<path stroke="black" fill="transparent" d="
M 358.96,240.03
L 362.95,238.91
L 367.14,237.90
L 371.51,237.02
"/>
<path stroke="black" fill="transparent" d="
M 348.03,558.30
L 335.88,555.43
L 324.28,551.97
"/>
<path stroke="black" fill="transparent" d="
M 488.67,304.82
L 482.92,307.66
L 476.56,310.32
"/>
<path stroke="black" fill="transparent" d="
M 457.01,558.91
L 446.19,561.48
L 434.99,563.51
"/>
<path stroke="black" fill="transparent" d="
M 241.52,475.05
L 233.18,467.90
L 226.13,460.49
"/>
<path stroke="black" fill="transparent" d="
M 432.55,540.74
L 416.35,541.92
L 400.00,542.32
"/>
<path stroke="black" fill="transparent" d="
M 506.39,538.57
L 496.93,543.50
"/>
<path stroke="black" fill="transparent" d="
M 499.50,392.51
L 486.98,396.14
L 473.71,399.28
L 459.78,401.91
"/>
<path stroke="black" fill="transparent" d="
M 400.00,284.99
L 394.54,284.90
L 389.11,284.64
"/>
<path stroke="black" fill="transparent" d="
M 249.92,332.83
L 247.03,327.57
L 245.17,322.28
"/>
<path stroke="black" fill="transparent" d="
M 218.24,439.08
L 213.79,431.43
L 210.66,423.71
"/>
<path stroke="black" fill="transparent" d="
M 581.76,439.08
L 575.98,446.61
L 568.88,453.96
L 560.45,461.05
"/>
<path stroke="black" fill="transparent" d="
M 315.99,461.33
L 300.93,457.38
L 286.77,452.82
L 273.62,447.72
L 261.57,442.13
"/>
<path stroke="black" fill="transparent" d="
M 562.99,480.82
L 554.80,487.95
L 545.37,494.74
L 534.75,501.14
L 522.99,507.09
"/>
<path stroke="black" fill="transparent" d="
M 400.00,518.82
L 382.60,518.41
"/>
<path stroke="black" fill="transparent" d="
M 210.46,372.75
L 212.21,365.71
L 214.26,360.77
"/>
<path stroke="black" fill="transparent" d="
M 447.13,350.24
L 435.70,351.74
L 423.97,352.82
"/>
<path stroke="black" fill="transparent" d="
M 497.92,258.80
L 501.46,261.80
L 504.43,264.93
"/>
<path stroke="black" fill="transparent" d="
M 351.67,242.62
L 355.19,241.27
L 358.96,240.03
"/>
<path stroke="black" fill="transparent" d="
M 496.93,543.50
L 486.69,547.98
L 475.72,551.97
"/>
<path stroke="black" fill="transparent" d="
M 367.45,540.74
L 351.56,538.77
L 336.11,536.06
L 321.25,532.63
"/>
<path stroke="black" fill="transparent" d="
M 584.96,441.86
L 584.90,442.60
"/>
<path stroke="black" fill="transparent" d="
M 472.85,246.02
L 478.74,248.24
L 484.22,250.63
L 489.26,253.20
"/>
<path stroke="black" fill="transparent" d="
M 499.13,258.45
L 503.20,260.24
L 509.52,263.45
"/>
<path stroke="black" fill="transparent" d="
M 563.72,351.39
L 559.58,357.26
L 554.28,363.01
L 547.84,368.61
"/>
<path stroke="black" fill="transparent" d="
M 533.54,519.60
L 525.24,525.72
L 515.94,531.48
L 505.69,536.81
"/>
<path stroke="black" fill="transparent" d="
M 224.01,392.65
L 219.64,385.78
L 216.53,378.84
L 214.67,371.89
L 214.02,364.98
"/>
<path stroke="black" fill="transparent" d="
M 382.98,450.81
L 366.13,449.73
L 349.59,447.94
"/>
<path stroke="black" fill="transparent" d="
M 245.20,487.95
L 237.01,480.82
L 230.08,473.44
L 224.43,465.87
"/>
<path stroke="black" fill="transparent" d="
M 580.36,385.78
L 575.99,392.65
"/>
<path stroke="black" fill="transparent" d="
M 512.88,528.42
L 501.04,533.54
"/>
<path stroke="black" fill="transparent" d="
M 242.06,305.40
L 247.08,300.28
L 248.18,299.36
"/>
<path stroke="black" fill="transparent" d="
M 263.94,290.91
L 265.56,286.58
L 267.96,282.35
L 271.11,278.25
"/>
<path stroke="black" fill="transparent" d="
M 334.17,258.39
L 334.66,256.42
L 335.54,254.49
"/>
<path stroke="black" fill="transparent" d="
M 367.53,428.54
L 351.68,426.88
L 336.27,424.58
"/>
<path stroke="black" fill="transparent" d="
M 311.95,340.49
L 303.30,337.23
L 295.41,333.70
"/>
<path stroke="black" fill="transparent" d="
M 413.90,381.16
L 400.00,381.42
L 386.10,381.15
L 372.32,380.36
L 358.79,379.06
"/>
<path stroke="black" fill="transparent" d="
M 591.78,408.31
L 591.19,415.99
L 589.34,423.71
L 586.21,431.43
L 581.76,439.08
"/>
<path stroke="black" fill="transparent" d="
M 416.31,429.55
L 400.00,429.88
L 383.69,429.55
L 367.53,428.54
"/>
<path stroke="black" fill="transparent" d="
M 271.11,278.25
L 274.98,274.29
L 279.52,270.49
"/>
<path stroke="black" fill="transparent" d="
M 457.78,271.91
L 455.03,273.66
L 451.90,275.32
L 448.42,276.88
"/>
<path stroke="black" fill="transparent" d="
M 430.44,405.48
L 415.29,406.39
L 400.00,406.69
L 384.71,406.39
"/>
<path stroke="black" fill="transparent" d="
M 234.60,316.23
L 237.88,310.73
L 242.06,305.40
"/>
<path stroke="black" fill="transparent" d="
M 260.06,458.81
L 249.08,452.56
L 239.35,445.94
"/>
<path stroke="black" fill="transparent" d="
M 272.19,317.55
L 268.60,313.18
L 265.90,308.73
L 264.10,304.26
"/>
<path stroke="black" fill="transparent" d="
M 223.36,362.52
L 221.49,356.01
L 220.79,349.54
L 221.22,343.14
L 222.75,336.84
L 225.32,330.69
"/>
<path stroke="black" fill="transparent" d="
M 560.45,461.05
L 550.73,467.82
L 539.76,474.20
"/>
<path stroke="black" fill="transparent" d="
M 276.25,522.79
L 266.39,516.73
L 257.61,510.28
L 249.95,503.51
L 243.44,496.48
L 238.09,489.26
L 234.30,482.58
"/>
<path stroke="black" fill="transparent" d="
M 371.90,321.17
L 362.88,320.06
L 354.15,318.65
"/>
<path stroke="black" fill="transparent" d="
M 369.07,549.86
L 353.97,547.97
L 339.28,545.36
L 325.14,542.06
L 311.66,538.10
L 298.96,533.54
"/>
<path stroke="black" fill="transparent" d="
M 417.40,518.41
L 400.00,518.82
"/>
<path stroke="black" fill="transparent" d="
M 548.86,481.88
L 538.01,488.32
L 525.99,494.29
"/>
<path stroke="black" fill="transparent" d="
M 454.21,316.95
L 445.85,318.65
L 437.12,320.06
"/>
<path stroke="black" fill="transparent" d="
M 481.71,521.54
L 466.30,525.04
L 450.28,527.82
"/>
<path stroke="black" fill="transparent" d="
M 522.71,527.55
L 515.00,533.23
L 506.39,538.57
"/>
<path stroke="black" fill="transparent" d="
M 551.82,299.36
L 552.92,300.28
L 557.94,305.40
"/>
<path stroke="black" fill="transparent" d="
M 438.47,237.84
L 438.71,237.87
"/>
<path stroke="black" fill="transparent" d="
M 384.71,406.39
L 369.56,405.48
L 354.69,403.98
L 340.22,401.91
L 326.29,399.28
L 313.02,396.14
"/>
<path stroke="black" fill="transparent" d="
M 295.57,264.93
L 298.54,261.80
L 302.08,258.80
"/>
<path stroke="black" fill="transparent" d="
M 546.16,338.02
L 541.18,343.11
L 535.18,348.05
"/>
<path stroke="black" fill="transparent" d="
M 261.99,488.32
L 251.14,481.88
"/>
<path stroke="black" fill="transparent" d="
M 529.68,404.77
L 518.33,409.70
L 505.96,414.20
"/>
<path stroke="black" fill="transparent" d="
M 313.02,396.14
L 300.50,392.51
L 288.84,388.43
L 278.11,383.96
"/>
<path stroke="black" fill="transparent" d="
M 224.02,446.61
L 218.24,439.08
"/>
<path stroke="black" fill="transparent" d="
M 208.59,401.86
L 208.00,394.35
"/>
<path stroke="black" fill="transparent" d="
M 540.80,513.16
L 533.54,519.60
"/>
<path stroke="black" fill="transparent" d="
M 390.23,234.83
L 395.10,234.62
"/>
<path stroke="black" fill="transparent" d="
M 348.10,275.32
L 344.97,273.66
L 342.22,271.91
"/>
<path stroke="black" fill="transparent" d="
M 327.15,246.02
L 333.39,243.99
L 339.97,242.15
"/>
<path stroke="black" fill="transparent" d="
M 423.97,352.82
L 412.04,353.47
L 400.00,353.69
"/>
<path stroke="black" fill="transparent" d="
M 317.35,545.97
L 305.43,541.65
L 294.31,536.81
"/>
<path stroke="black" fill="transparent" d="
M 303.07,543.50
L 293.61,538.57
L 285.00,533.23
L 277.29,527.55
"/>
<path stroke="black" fill="transparent" d="
M 591.16,400.73
L 591.78,408.31
"/>
<path stroke="black" fill="transparent" d="
M 416.97,531.04
L 400.00,531.44
L 383.03,531.04
L 366.22,529.82
L 349.72,527.82
"/>
<path stroke="black" fill="transparent" d="
M 239.55,461.05
L 231.12,453.96
L 224.02,446.61
"/>
<path stroke="black" fill="transparent" d="
M 567.03,319.48
L 571.12,324.72
"/>
<path stroke="black" fill="transparent" d="
M 459.78,401.91
L 445.31,403.98
L 430.44,405.48
"/>
<path stroke="black" fill="transparent" d="
M 215.98,445.16
L 212.86,437.37
"/>
<path stroke="black" fill="transparent" d="
M 236.28,351.39
L 233.28,345.45
L 231.40,339.50
"/>
<path stroke="black" fill="transparent" d="
M 264.82,348.05
L 258.82,343.11
L 253.84,338.02
L 249.92,332.83
"/>
<path stroke="black" fill="transparent" d="
M 505.01,292.06
L 501.97,295.41
L 498.22,298.66
"/>
<path stroke="black" fill="transparent" d="
M 438.71,237.87
L 446.05,239.08
L 453.17,240.51
L 460.03,242.15
"/>
<path stroke="black" fill="transparent" d="
M 373.55,562.22
L 360.62,560.58
"/>
<path stroke="black" fill="transparent" d="
M 484.84,494.57
L 468.86,498.07
L 452.22,500.84
"/>
<path stroke="black" fill="transparent" d="
M 259.72,374.00
L 252.16,368.61
L 245.72,363.01
L 240.42,357.26
"/>
<path stroke="black" fill="transparent" d="
M 292.65,288.65
L 291.01,285.20
L 290.09,281.74
"/>
<path stroke="black" fill="transparent" d="
M 353.95,239.08
L 361.29,237.87
L 361.53,237.84
"/>
<path stroke="black" fill="transparent" d="
M 526.38,447.72
L 513.23,452.82
L 499.07,457.38
"/>
<path stroke="black" fill="transparent" d="
M 244.46,311.75
L 245.55,306.59
L 247.57,301.52
L 250.46,296.59
"/>
<path stroke="black" fill="transparent" d="
M 278.11,383.96
L 268.39,379.13
"/>
<path stroke="black" fill="transparent" d="
M 508.57,271.47
L 509.69,274.85
L 510.14,278.28
"/>
<path stroke="black" fill="transparent" d="
M 547.01,506.48
L 540.80,513.16
"/>
<path stroke="black" fill="transparent" d="
M 266.46,519.60
L 259.20,513.16
L 252.99,506.47
L 250.74,503.45
"/>
<path stroke="black" fill="transparent" d="
M 276.70,429.43
L 264.91,424.13
L 254.26,418.42
"/>
<path stroke="black" fill="transparent" d="
M 552.43,301.52
L 554.45,306.59
L 555.54,311.75
L 555.68,317.00
"/>
<path stroke="black" fill="transparent" d="
M 496.62,438.59
L 481.92,442.33
L 466.47,445.46
"/>
<path stroke="black" fill="transparent" d="
M 470.02,549.71
L 456.77,552.83
L 443.03,555.29
"/>
<path stroke="black" fill="transparent" d="
M 468.71,346.08
L 458.16,348.35
"/>
<path stroke="black" fill="transparent" d="
M 434.99,563.51
L 423.49,564.98
L 411.80,565.86
"/>
<path stroke="black" fill="transparent" d="
M 310.74,253.20
L 315.78,250.63
L 321.26,248.24
L 327.15,246.02
"/>
<path stroke="black" fill="transparent" d="
M 566.82,467.90
L 558.48,475.05
L 548.86,481.88
"/>
<path stroke="black" fill="transparent" d="
M 583.47,378.84
L 580.36,385.78
"/>
<path stroke="black" fill="transparent" d="
M 316.25,508.84
L 301.24,504.61
L 287.12,499.75
L 274.01,494.29
L 261.99,488.32
"/>
<path stroke="black" fill="transparent" d="
M 332.92,374.95
L 320.80,372.21
L 309.35,369.03
L 298.66,365.47
L 288.81,361.55
"/>
<path stroke="black" fill="transparent" d="
M 555.18,412.35
L 545.74,418.42
L 535.09,424.13
"/>
<path stroke="black" fill="transparent" d="
M 285.52,469.90
L 272.23,464.61
L 260.06,458.81
"/>
<path stroke="black" fill="transparent" d="
M 293.78,523.79
L 281.38,518.48
L 270.00,512.65
"/>
<path stroke="black" fill="transparent" d="
M 425.08,564.12
L 419.90,564.78
L 409.99,565.53
L 400.00,565.78
L 390.01,565.53
"/>
<path stroke="black" fill="transparent" d="
M 303.38,438.59
L 289.55,434.27
L 276.70,429.43
"/>
<path stroke="black" fill="transparent" d="
M 341.84,348.35
L 331.29,346.08
L 321.30,343.45
"/>
<path stroke="black" fill="transparent" d="
M 365.01,563.51
L 353.81,561.48
L 342.99,558.92
L 332.64,555.83
"/>
<path stroke="black" fill="transparent" d="
M 371.51,237.02
L 376.02,236.27
L 380.67,235.66
L 385.41,235.17
L 390.23,234.83
"/>
<path stroke="black" fill="transparent" d="
M 418.86,321.97
L 409.47,322.46
L 400.00,322.62
"/>
<path stroke="black" fill="transparent" d="
M 349.59,447.94
L 333.53,445.46
L 318.08,442.33
L 303.38,438.59
"/>
<path stroke="black" fill="transparent" d="
M 337.88,268.21
L 336.32,266.29
L 335.16,264.33
L 334.42,262.35
"/>
<path stroke="black" fill="transparent" d="
M 549.26,503.45
L 547.01,506.48
"/>
<path stroke="black" fill="transparent" d="
M 419.33,235.66
L 423.98,236.27
L 428.49,237.02
"/>
<path stroke="black" fill="transparent" d="
M 533.61,516.73
L 523.75,522.79
L 512.88,528.41
"/>
<path stroke="black" fill="transparent" d="
M 501.04,533.54
L 488.34,538.10
L 474.86,542.06
"/>
<path stroke="black" fill="transparent" d="
M 587.14,437.37
L 584.02,445.16
L 579.60,452.89
L 573.87,460.49
L 566.82,467.90
"/>
<path stroke="black" fill="transparent" d="
M 465.34,256.42
L 465.83,258.39
"/>
<path stroke="black" fill="transparent" d="
M 450.28,527.82
L 433.78,529.82
L 416.97,531.04
"/>
<path stroke="black" fill="transparent" d="
M 461.56,250.74
L 463.20,252.59
L 464.46,254.48
L 465.34,256.42
"/>
<path stroke="black" fill="transparent" d="
M 342.77,247.25
L 345.44,245.61
L 348.41,244.07
L 351.67,242.62
"/>
<path stroke="black" fill="transparent" d="
M 415.53,551.00
L 400.00,551.38
L 384.47,551.00
L 369.07,549.86
"/>
<path stroke="black" fill="transparent" d="
M 494.82,543.82
L 486.33,548.25
L 477.15,552.26
L 467.36,555.83
"/>
<path stroke="black" fill="transparent" d="
M 400.00,563.54
L 386.72,563.21
L 373.55,562.22
"/>
<path stroke="black" fill="transparent" d="
M 329.98,549.71
L 317.35,545.97
"/>
<path stroke="black" fill="transparent" d="
M 219.88,408.98
L 215.45,401.75
L 212.32,394.46
"/>
<path stroke="black" fill="transparent" d="
M 465.83,258.39
L 465.91,260.37
L 465.58,262.35
"/>
<path stroke="black" fill="transparent" d="
M 254.20,291.81
L 258.73,287.21
L 264.01,282.81
L 269.98,278.62
"/>
<path stroke="black" fill="transparent" d="
M 439.38,560.58
L 426.45,562.22
L 413.28,563.21
L 400.00,563.54
"/>
<path stroke="black" fill="transparent" d="
M 578.32,340.31
L 581.04,344.90
L 583.78,351.45
"/>
<path stroke="black" fill="transparent" d="
M 230.92,439.00
L 223.80,431.82
L 218.02,424.45
L 213.57,416.96
L 210.44,409.41
L 208.59,401.86
"/>
<path stroke="black" fill="transparent" d="
M 564.16,485.45
L 557.41,492.71
"/>
<path stroke="black" fill="transparent" d="
M 569.37,333.56
L 568.60,339.50
L 566.72,345.45
L 563.72,351.39
"/>
<path stroke="black" fill="transparent" d="
M 349.72,527.82
L 333.70,525.04
L 318.29,521.54
"/>
<path stroke="black" fill="transparent" d="
M 495.31,543.52
L 494.82,543.82
"/>
<path stroke="black" fill="transparent" d="
M 539.94,458.81
L 527.77,464.61
L 514.48,469.90
"/>
<path stroke="black" fill="transparent" d="
M 299.96,490.37
L 285.67,485.54
L 272.39,480.13
"/>
<path stroke="black" fill="transparent" d="
M 488.05,340.49
L 478.70,343.45
L 468.71,346.08
"/>
<path stroke="black" fill="transparent" d="
M 301.78,298.66
L 298.03,295.41
L 294.99,292.06
L 292.65,288.65
"/>
<path stroke="black" fill="transparent" d="
M 592.00,394.35
L 591.41,401.86
L 589.56,409.41
L 586.43,416.96
"/>
<path stroke="black" fill="transparent" d="
M 483.75,508.84
L 467.96,512.37
L 451.54,515.16
L 434.64,517.19
L 417.40,518.41
"/>
<path stroke="black" fill="transparent" d="
M 466.47,445.46
L 450.41,447.94
L 433.87,449.73
L 417.02,450.81
"/>
<path stroke="black" fill="transparent" d="
M 522.99,507.09
L 510.17,512.51
L 496.37,517.34
L 481.71,521.54
"/>
<path stroke="black" fill="transparent" d="
M 354.15,318.65
L 345.79,316.95
L 337.84,314.98
L 330.38,312.77
"/>
<path stroke="black" fill="transparent" d="
M 585.44,358.15
L 585.98,364.98
L 585.33,371.89
L 583.47,378.84
"/>
<path stroke="black" fill="transparent" d="
M 410.89,284.64
L 405.46,284.90
L 400.00,284.99
"/>
<path stroke="black" fill="transparent" d="
M 562.12,310.73
L 565.40,316.23
L 567.73,321.89
L 569.07,327.68
L 569.37,333.56
"/>
<path stroke="red" fill="transparent" d="
M 0.00,0.00
L 800.00,0.00
L 800.00,800.00
L 0.00,800.00
L 0.00,0.00
"/>
</svg>
