<svg viewBox="0 0 800 800" xmlns="http://www.w3.org/2000/svg" style="background-color:white">
<path stroke="black" fill="transparent" d="
M 686.71,489.08
L 682.91,488.00
"/>
<path stroke="black" fill="transparent" d="
M 489.13,485.88
L 492.31,446.15
"/>
<path stroke="black" fill="transparent" d="
M 357.14,250.00
L 369.87,254.95
"/>
<path stroke="black" fill="transparent" d="
M 496.00,304.00
L 550.00,325.00
"/>
<path stroke="black" fill="transparent" d="
M 707.22,322.70
L 705.89,321.42
"/>
<path stroke="black" fill="transparent" d="
M 722.03,464.64
L 711.98,463.18
"/>
<path stroke="black" fill="transparent" d="
M 119.15,336.17
L 160.00,360.00
"/>
<path stroke="black" fill="transparent" d="
M 181.82,372.73
L 228.57,400.00
"/>
<path stroke="black" fill="transparent" d="
M 253.66,414.63
L 307.69,446.15
"/>
<path stroke="black" fill="transparent" d="
M 434.29,520.00
L 509.09,563.64
"/>
<path stroke="black" fill="transparent" d="
M 377.22,293.82
L 352.00,304.00
"/>
<path stroke="black" fill="transparent" d="
M 776.66,486.82
L 769.74,488.47
"/>
<path stroke="black" fill="transparent" d="
M 648.46,324.04
L 649.54,323.50
"/>
<path stroke="black" fill="transparent" d="
M 719.48,329.67
L 716.98,328.63
"/>
<path stroke="black" fill="transparent" d="
M 430.97,206.45
L 400.00,217.22
"/>
<path stroke="black" fill="transparent" d="
M 676.04,327.92
L 675.10,325.74
"/>
<path stroke="black" fill="transparent" d="
M 609.60,400.44
L 608.88,398.76
"/>
<path stroke="black" fill="transparent" d="
M 253.25,352.61
L 250.00,325.00
"/>
<path stroke="black" fill="transparent" d="
M 783.12,484.83
L 776.66,486.82
"/>
<path stroke="black" fill="transparent" d="
M 428.07,336.84
L 400.00,349.70
"/>
<path stroke="black" fill="transparent" d="
M 369.84,245.40
L 357.14,250.00
"/>
<path stroke="black" fill="transparent" d="
M 800.21,475.14
L 795.95,477.19
"/>
<path stroke="black" fill="transparent" d="
M 800.91,423.83
L 795.16,425.09
"/>
<path stroke="black" fill="transparent" d="
M 212.00,330.97
L 208.00,304.00
"/>
<path stroke="black" fill="transparent" d="
M 234.07,438.46
L 228.57,400.00
"/>
<path stroke="black" fill="transparent" d="
M 589.47,557.89
L 600.00,500.00
"/>
<path stroke="black" fill="transparent" d="
M 694.47,490.93
L 686.71,489.08
"/>
<path stroke="black" fill="transparent" d="
M 660.43,406.98
L 653.32,403.40
"/>
<path stroke="black" fill="transparent" d="
M 796.41,461.33
L 788.41,463.18
"/>
<path stroke="black" fill="transparent" d="
M 447.17,326.29
L 448.00,304.00
"/>
<path stroke="black" fill="transparent" d="
M 588.00,330.97
L 592.00,304.00
"/>
<path stroke="black" fill="transparent" d="
M 429.53,278.15
L 470.59,294.12
"/>
<path stroke="black" fill="transparent" d="
M 706.67,443.89
L 700.52,442.53
"/>
<path stroke="black" fill="transparent" d="
M 651.50,355.35
L 648.64,352.11
"/>
<path stroke="black" fill="transparent" d="
M 430.19,241.51
L 400.00,252.90
"/>
<path stroke="black" fill="transparent" d="
M 371.26,306.59
L 400.00,319.02
"/>
<path stroke="black" fill="transparent" d="
M 422.78,293.82
L 448.00,304.00
"/>
<path stroke="black" fill="transparent" d="
M 681.79,492.20
L 678.61,491.13
"/>
<path stroke="black" fill="transparent" d="
M 639.72,519.86
L 640.00,520.00
L 652.64,463.16
"/>
<path stroke="black" fill="transparent" d="
M 321.85,388.60
L 320.00,360.00
"/>
<path stroke="black" fill="transparent" d="
M 760.98,306.35
L 765.62,307.59
"/>
<path stroke="black" fill="transparent" d="
M 689.16,306.15
L 689.78,306.04
"/>
<path stroke="black" fill="transparent" d="
M 623.63,379.53
L 621.03,375.41
"/>
<path stroke="black" fill="transparent" d="
M 642.88,339.33
L 642.86,336.27
L 643.39,333.30
"/>
<path stroke="black" fill="transparent" d="
M 680.78,402.66
L 673.00,399.69
"/>
<path stroke="black" fill="transparent" d="
M 302.72,481.32
L 302.70,481.08
"/>
<path stroke="black" fill="transparent" d="
M 721.79,425.09
L 712.20,423.41
"/>
<path stroke="black" fill="transparent" d="
M 656.41,331.39
L 656.32,328.74
"/>
<path stroke="black" fill="transparent" d="
M 210.53,557.89
L 200.00,500.00
"/>
<path stroke="black" fill="transparent" d="
M 712.20,423.41
L 702.78,421.40
L 693.58,419.06
L 684.69,416.43
"/>
<path stroke="black" fill="transparent" d="
M 275.51,479.27
L 289.36,488.02
"/>
<path stroke="black" fill="transparent" d="
M 615.94,383.91
L 614.62,380.98
"/>
<path stroke="black" fill="transparent" d="
M 546.75,352.61
L 550.00,325.00
"/>
<path stroke="black" fill="transparent" d="
M 339.07,503.29
L 336.84,463.16
"/>
<path stroke="black" fill="transparent" d="
M 329.70,646.86
L 329.41,647.06
L 400.00,700.00
"/>
<path stroke="black" fill="transparent" d="
M 734.55,457.32
L 724.41,456.28
"/>
<path stroke="black" fill="transparent" d="
M 790.05,387.49
L 783.39,388.50
"/>
<path stroke="black" fill="transparent" d="
M 611.23,367.43
L 612.75,364.92
"/>
<path stroke="black" fill="transparent" d="
M 369.03,206.45
L 400.00,217.22
"/>
<path stroke="black" fill="transparent" d="
M 727.31,401.05
L 718.71,399.60
"/>
<path stroke="black" fill="transparent" d="
M 716.98,328.63
L 714.65,327.52
L 712.49,326.37
"/>
<path stroke="black" fill="transparent" d="
M 369.81,241.51
L 400.00,252.90
"/>
<path stroke="black" fill="transparent" d="
M 469.40,316.14
L 470.59,294.12
"/>
<path stroke="black" fill="transparent" d="
M 712.49,326.37
L 710.53,325.18
L 708.77,323.95
L 707.22,322.70
"/>
<path stroke="black" fill="transparent" d="
M 708.12,307.58
L 709.74,306.75
"/>
<path stroke="black" fill="transparent" d="
M 780.98,486.93
L 775.47,489.08
"/>
<path stroke="black" fill="transparent" d="
M 763.88,479.98
L 754.98,480.59
L 745.80,480.80
L 736.41,480.59
"/>
<path stroke="black" fill="transparent" d="
M 428.50,439.00
L 422.99,442.01
"/>
<path stroke="black" fill="transparent" d="
M 338.16,488.27
L 325.55,495.15
"/>
<path stroke="black" fill="transparent" d="
M 232.46,545.93
L 210.53,557.89
"/>
<path stroke="black" fill="transparent" d="
M 736.41,480.59
L 726.89,479.98
L 717.30,478.95
L 707.74,477.53
"/>
<path stroke="black" fill="transparent" d="
M 393.52,233.00
L 369.81,241.51
"/>
<path stroke="black" fill="transparent" d="
M 708.04,496.34
L 700.90,495.25
"/>
<path stroke="black" fill="transparent" d="
M 707.74,477.53
L 698.26,475.73
L 693.31,474.57
"/>
<path stroke="black" fill="transparent" d="
M 700.69,365.05
L 694.83,362.97
"/>
<path stroke="black" fill="transparent" d="
M 709.32,434.04
L 704.17,432.92
"/>
<path stroke="black" fill="transparent" d="
M 772.37,489.84
L 771.52,490.26
"/>
<path stroke="black" fill="transparent" d="
M 752.20,416.21
L 743.01,415.67
L 733.75,414.77
"/>
<path stroke="black" fill="transparent" d="
M 310.87,485.88
L 307.69,446.15
"/>
<path stroke="black" fill="transparent" d="
M 613.35,363.50
L 614.87,359.77
L 616.08,357.77
"/>
<path stroke="black" fill="transparent" d="
M 800.97,346.61
L 798.74,348.33
"/>
<path stroke="black" fill="transparent" d="
M 372.57,365.71
L 400.00,378.95
"/>
<path stroke="black" fill="transparent" d="
M 695.45,486.82
L 687.05,484.83
"/>
<path stroke="black" fill="transparent" d="
M 374.93,359.27
L 374.80,352.76
"/>
<path stroke="black" fill="transparent" d="
M 411.47,329.58
L 428.07,336.84
"/>
<path stroke="black" fill="transparent" d="
M 654.92,358.57
L 651.50,355.35
"/>
<path stroke="black" fill="transparent" d="
M 761.60,466.33
L 751.97,466.54
"/>
<path stroke="black" fill="transparent" d="
M 694.83,362.97
L 689.28,360.75
L 684.08,358.39
"/>
<path stroke="black" fill="transparent" d="
M 799.20,477.03
L 794.42,479.92
"/>
<path stroke="black" fill="transparent" d="
M 428.53,444.58
L 429.27,414.63
"/>
<path stroke="black" fill="transparent" d="
M 749.63,335.64
L 746.49,335.48
"/>
<path stroke="black" fill="transparent" d="
M 779.15,328.63
L 778.03,329.67
L 776.68,330.65
"/>
<path stroke="black" fill="transparent" d="
M 619.79,352.22
L 621.85,348.80
L 624.51,345.55
L 626.95,343.26
"/>
<path stroke="black" fill="transparent" d="
M 633.34,374.53
L 630.15,370.63
"/>
<path stroke="black" fill="transparent" d="
M 673.00,399.69
L 665.67,396.51
L 658.84,393.15
"/>
<path stroke="black" fill="transparent" d="
M 736.19,497.60
L 729.32,497.76
"/>
<path stroke="black" fill="transparent" d="
M 628.91,399.42
L 625.96,396.78
L 621.91,392.50
L 618.57,388.20
L 615.94,383.91
"/>
<path stroke="black" fill="transparent" d="
M 662.97,316.90
L 665.62,314.89
"/>
<path stroke="black" fill="transparent" d="
M 769.96,311.56
L 772.01,312.69
"/>
<path stroke="black" fill="transparent" d="
M 751.91,305.32
L 754.78,306.00
"/>
<path stroke="black" fill="transparent" d="
M 575.97,355.61
L 578.72,336.17
"/>
<path stroke="black" fill="transparent" d="
M 220.04,430.23
L 220.00,430.00
L 273.68,463.16
"/>
<path stroke="black" fill="transparent" d="
M 228.57,520.00
L 302.70,481.08
L 365.71,520.00
"/>
<path stroke="black" fill="transparent" d="
M 771.52,490.26
L 766.55,492.19
L 761.16,493.86
"/>
<path stroke="black" fill="transparent" d="
M 761.25,416.39
L 752.20,416.21
"/>
<path stroke="black" fill="transparent" d="
M 751.03,486.42
L 742.24,486.62
L 733.25,486.42
"/>
<path stroke="black" fill="transparent" d="
M 453.26,401.57
L 453.67,401.76
"/>
<path stroke="black" fill="transparent" d="
M 542.66,444.48
L 550.45,448.22
"/>
<path stroke="black" fill="transparent" d="
M 722.41,386.21
L 714.69,384.66
L 707.15,382.86
"/>
<path stroke="black" fill="transparent" d="
M 167.19,397.17
L 160.00,360.00
"/>
<path stroke="black" fill="transparent" d="
M 708.67,302.21
L 713.06,301.82
"/>
<path stroke="black" fill="transparent" d="
M 400.00,364.50
L 427.75,351.45
L 428.07,336.84
"/>
<path stroke="black" fill="transparent" d="
M 428.18,321.80
L 428.40,321.89
L 428.74,306.59
"/>
<path stroke="black" fill="transparent" d="
M 400.00,235.29
L 430.57,224.20
L 430.97,206.45
"/>
<path stroke="black" fill="transparent" d="
M 357.70,267.47
L 357.14,250.00
"/>
<path stroke="black" fill="transparent" d="
M 674.85,353.33
L 670.87,350.68
"/>
<path stroke="black" fill="transparent" d="
M 612.50,367.37
L 613.35,363.50
"/>
<path stroke="black" fill="transparent" d="
M 617.39,363.36
L 617.54,359.52
L 618.34,355.80
L 619.79,352.22
"/>
<path stroke="black" fill="transparent" d="
M 800.41,368.67
L 795.75,370.19
"/>
<path stroke="black" fill="transparent" d="
M 677.71,313.78
L 679.46,312.07
"/>
<path stroke="black" fill="transparent" d="
M 763.25,357.16
L 758.07,357.25
"/>
<path stroke="black" fill="transparent" d="
M 794.66,413.53
L 786.86,414.77
"/>
<path stroke="black" fill="transparent" d="
M 626.92,383.65
L 623.63,379.53
"/>
<path stroke="black" fill="transparent" d="
M 748.99,304.73
L 751.91,305.32
"/>
<path stroke="black" fill="transparent" d="
M 729.13,437.18
L 719.18,435.80
L 709.32,434.04
"/>
<path stroke="black" fill="transparent" d="
M 636.03,334.49
L 638.37,331.62
L 641.24,328.91
"/>
<path stroke="black" fill="transparent" d="
M 208.00,304.00
L 250.00,325.00
"/>
<path stroke="black" fill="transparent" d="
M 272.34,336.17
L 320.00,360.00
"/>
<path stroke="black" fill="transparent" d="
M 346.74,401.66
L 345.45,372.73
L 400.00,400.00
"/>
<path stroke="black" fill="transparent" d="
M 546.34,414.63
L 483.72,386.05
L 429.27,414.63
L 492.31,446.15
"/>
<path stroke="black" fill="transparent" d="
M 522.88,494.08
L 526.32,463.16
L 600.00,500.00
"/>
<path stroke="black" fill="transparent" d="
M 657.32,318.20
L 661.25,316.25
L 665.58,314.47
L 666.17,314.27
"/>
<path stroke="black" fill="transparent" d="
M 645.78,493.98
L 663.41,502.44
L 676.92,446.15
"/>
<path stroke="black" fill="transparent" d="
M 571.43,400.00
L 509.09,372.73
L 556.52,347.83
L 618.18,372.73
L 571.43,400.00
"/>
<path stroke="black" fill="transparent" d="
M 541.54,453.52
L 546.34,414.63
L 492.31,446.15
"/>
<path stroke="black" fill="transparent" d="
M 463.16,463.16
L 400.00,500.00
"/>
<path stroke="black" fill="transparent" d="
M 365.71,520.00
L 290.91,563.64
"/>
<path stroke="black" fill="transparent" d="
M 600.00,500.00
L 652.63,463.16
L 580.00,430.00
L 526.32,463.16
"/>
<path stroke="black" fill="transparent" d="
M 614.74,408.30
L 612.23,404.93
L 609.60,400.44
"/>
<path stroke="black" fill="transparent" d="
M 766.72,334.38
L 764.18,334.85
"/>
<path stroke="black" fill="transparent" d="
M 373.69,335.82
L 326.53,314.29
L 272.34,336.17
"/>
<path stroke="black" fill="transparent" d="
M 746.03,389.23
L 738.14,388.50
"/>
<path stroke="black" fill="transparent" d="
M 624.81,348.18
L 626.15,344.79
"/>
<path stroke="black" fill="transparent" d="
M 733.31,372.59
L 726.50,371.50
"/>
<path stroke="black" fill="transparent" d="
M 724.01,498.64
L 718.00,498.50
L 711.91,498.09
"/>
<path stroke="black" fill="transparent" d="
M 524.49,479.27
L 510.64,488.02
"/>
<path stroke="black" fill="transparent" d="
M 659.65,339.62
L 658.07,336.84
"/>
<path stroke="black" fill="transparent" d="
M 684.69,416.43
L 676.16,413.52
L 668.05,410.36
L 660.43,406.98
"/>
<path stroke="black" fill="transparent" d="
M 780.04,327.52
L 779.15,328.63
"/>
<path stroke="black" fill="transparent" d="
M 396.21,197.48
L 369.03,206.45
"/>
<path stroke="black" fill="transparent" d="
M 799.91,399.60
L 793.04,401.05
"/>
<path stroke="black" fill="transparent" d="
M 372.73,372.73
L 372.57,365.71
"/>
<path stroke="black" fill="transparent" d="
M 290.91,372.73
L 228.57,400.00
"/>
<path stroke="black" fill="transparent" d="
M 641.24,328.91
L 644.61,326.38
L 648.46,324.04
"/>
<path stroke="black" fill="transparent" d="
M 715.53,351.40
L 710.63,349.93
L 705.94,348.33
L 701.49,346.61
"/>
<path stroke="black" fill="transparent" d="
M 747.40,356.87
L 741.98,356.40
L 736.55,355.74
"/>
<path stroke="black" fill="transparent" d="
M 674.67,319.46
L 675.31,317.49
"/>
<path stroke="black" fill="transparent" d="
M 293.04,396.66
L 290.91,372.73
"/>
<path stroke="black" fill="transparent" d="
M 782.86,481.72
L 775.53,483.46
"/>
<path stroke="black" fill="transparent" d="
M 601.92,430.37
L 593.31,435.81
"/>
<path stroke="black" fill="transparent" d="
M 433.57,536.69
L 413.42,549.42
"/>
<path stroke="black" fill="transparent" d="
M 726.23,495.08
L 718.30,494.55
"/>
<path stroke="black" fill="transparent" d="
M 561.87,578.21
L 562.16,578.38
"/>
<path stroke="black" fill="transparent" d="
M 766.50,448.78
L 756.83,448.98
L 746.93,448.78
"/>
<path stroke="black" fill="transparent" d="
M 425.07,359.27
L 425.20,352.76
"/>
<path stroke="black" fill="transparent" d="
M 635.54,391.81
L 630.90,387.75
L 626.92,383.65
"/>
<path stroke="black" fill="transparent" d="
M 659.64,379.06
L 654.22,375.69
"/>
<path stroke="black" fill="transparent" d="
M 473.85,604.54
L 502.86,622.85
L 509.09,563.64
"/>
<path stroke="black" fill="transparent" d="
M 524.84,364.11
L 527.66,336.17
"/>
<path stroke="black" fill="transparent" d="
M 738.34,491.47
L 729.86,491.29
"/>
<path stroke="black" fill="transparent" d="
M 736.55,355.74
L 731.15,354.91
L 725.82,353.90
"/>
<path stroke="black" fill="transparent" d="
M 370.42,258.30
L 370.19,258.39
"/>
<path stroke="black" fill="transparent" d="
M 800.00,466.71
L 792.70,468.92
L 784.83,470.76
"/>
<path stroke="black" fill="transparent" d="
M 367.02,561.27
L 365.71,520.00
"/>
<path stroke="black" fill="transparent" d="
M 793.10,351.40
L 789.73,352.73
"/>
<path stroke="black" fill="transparent" d="
M 709.74,306.75
L 711.55,306.00
L 713.53,305.32
"/>
<path stroke="black" fill="transparent" d="
M 738.14,388.50
L 730.25,387.49
L 722.41,386.21
"/>
<path stroke="black" fill="transparent" d="
M 793.04,401.05
L 785.74,402.19
L 778.04,403.01
"/>
<path stroke="black" fill="transparent" d="
M 771.29,333.15
L 769.10,333.81
L 766.72,334.38
"/>
<path stroke="black" fill="transparent" d="
M 391.41,266.79
L 370.55,274.85
"/>
<path stroke="black" fill="transparent" d="
M 741.14,427.36
L 731.46,426.41
L 721.79,425.09
"/>
<path stroke="black" fill="transparent" d="
M 388.53,329.58
L 371.93,336.84
"/>
<path stroke="black" fill="transparent" d="
M 759.55,485.82
L 751.03,486.42
"/>
<path stroke="black" fill="transparent" d="
M 744.64,457.96
L 734.55,457.32
"/>
<path stroke="black" fill="transparent" d="
M 700.03,468.92
L 694.03,467.53
"/>
<path stroke="black" fill="transparent" d="
M 670.87,350.68
L 667.35,347.96
L 664.30,345.20
"/>
<path stroke="black" fill="transparent" d="
M 765.62,307.59
L 770.12,308.97
L 774.46,310.46
"/>
<path stroke="black" fill="transparent" d="
M 702.90,316.32
L 702.74,315.08
L 702.83,313.87
"/>
<path stroke="black" fill="transparent" d="
M 776.68,330.65
L 775.10,331.57
L 773.30,332.40
L 771.29,333.15
"/>
<path stroke="black" fill="transparent" d="
M 432.98,561.27
L 434.29,520.00
"/>
<path stroke="black" fill="transparent" d="
M 733.25,486.42
L 724.13,485.82
L 714.96,484.83
"/>
<path stroke="black" fill="transparent" d="
M 684.08,358.39
L 679.26,355.91
L 674.85,353.33
"/>
<path stroke="black" fill="transparent" d="
M 749.27,496.34
L 742.85,497.12
L 736.19,497.60
"/>
<path stroke="black" fill="transparent" d="
M 618.16,401.09
L 614.80,396.67
L 612.16,392.25
L 611.32,390.33
"/>
<path stroke="black" fill="transparent" d="
M 779.35,318.86
L 780.17,320.14
"/>
<path stroke="black" fill="transparent" d="
M 18.18,372.73
L 34.78,426.09
L 72.73,454.55
L 57.14,400.00
"/>
<path stroke="black" fill="transparent" d="
M 181.82,372.73
L 243.48,347.83
L 290.91,372.73
"/>
<path stroke="black" fill="transparent" d="
M 400.00,500.00
L 336.84,463.16
L 400.00,430.00
L 463.16,463.16
"/>
<path stroke="black" fill="transparent" d="
M 434.29,520.00
L 497.30,481.08
L 571.43,520.00
"/>
<path stroke="black" fill="transparent" d="
M 643.47,342.46
L 642.88,339.33
"/>
<path stroke="black" fill="transparent" d="
M 782.57,313.78
L 786.28,315.59
L 789.74,317.49
"/>
<path stroke="black" fill="transparent" d="
M 746.62,491.29
L 738.34,491.47
"/>
<path stroke="black" fill="transparent" d="
M 772.42,478.95
L 763.88,479.98
"/>
<path stroke="black" fill="transparent" d="
M 794.42,479.92
L 789.05,482.52
L 783.12,484.83
"/>
<path stroke="black" fill="transparent" d="
M 725.82,353.90
L 720.60,352.73
L 715.53,351.40
"/>
<path stroke="black" fill="transparent" d="
M 702.03,461.33
L 695.30,459.80
"/>
<path stroke="black" fill="transparent" d="
M 160.28,519.86
L 160.00,520.00
"/>
<path stroke="black" fill="transparent" d="
M 800.13,460.21
L 796.41,461.33
"/>
<path stroke="black" fill="transparent" d="
M 732.10,465.69
L 722.03,464.64
"/>
<path stroke="black" fill="transparent" d="
M 693.81,479.65
L 663.41,502.44
"/>
<path stroke="black" fill="transparent" d="
M 640.00,520.00
L 589.47,557.90
"/>
<path stroke="black" fill="transparent" d="
M 638.35,361.50
L 635.91,357.90
L 634.10,354.33
"/>
<path stroke="black" fill="transparent" d="
M 778.30,317.58
L 779.35,318.86
"/>
<path stroke="black" fill="transparent" d="
M 767.76,310.48
L 769.96,311.56
"/>
<path stroke="black" fill="transparent" d="
M 714.96,484.83
L 705.80,483.46
L 696.73,481.72
L 692.55,480.73
"/>
<path stroke="black" fill="transparent" d="
M 147.37,463.16
L 200.00,500.00
"/>
<path stroke="black" fill="transparent" d="
M 228.57,520.00
L 290.91,563.64
"/>
<path stroke="black" fill="transparent" d="
M 325.00,587.50
L 400.00,640.00
"/>
<path stroke="black" fill="transparent" d="
M 675.31,317.49
L 676.33,315.59
L 677.71,313.78
"/>
<path stroke="black" fill="transparent" d="
M 746.02,304.22
L 748.99,304.73
"/>
<path stroke="black" fill="transparent" d="
M 624.08,351.71
L 624.81,348.18
"/>
<path stroke="black" fill="transparent" d="
M 35.05,425.98
L 34.78,426.09
"/>
<path stroke="black" fill="transparent" d="
M 758.51,473.88
L 749.05,474.09
L 739.37,473.88
L 729.55,473.25
"/>
<path stroke="black" fill="transparent" d="
M 621.22,404.39
L 618.16,401.09
"/>
<path stroke="black" fill="transparent" d="
M 130.61,387.76
L 135.98,391.15
"/>
<path stroke="black" fill="transparent" d="
M 198.08,430.37
L 206.69,435.81
"/>
<path stroke="black" fill="transparent" d="
M 366.43,536.69
L 386.58,549.42
"/>
<path stroke="black" fill="transparent" d="
M 795.79,321.51
L 798.34,323.60
L 800.55,325.74
"/>
<path stroke="black" fill="transparent" d="
M 634.23,337.51
L 636.03,334.49
"/>
<path stroke="black" fill="transparent" d="
M 703.70,311.56
L 704.48,310.48
"/>
<path stroke="black" fill="transparent" d="
M 689.86,340.84
L 686.63,338.77
L 683.75,336.65
"/>
<path stroke="black" fill="transparent" d="
M 668.37,367.87
L 663.37,364.85
"/>
<path stroke="black" fill="transparent" d="
M 753.82,374.43
L 747.02,374.06
L 740.17,373.44
L 733.31,372.59
"/>
<path stroke="black" fill="transparent" d="
M 712.63,489.78
L 704.00,488.48
L 695.45,486.82
"/>
<path stroke="black" fill="transparent" d="
M 800.16,412.35
L 794.66,413.53
"/>
<path stroke="black" fill="transparent" d="
M 718.30,494.55
L 710.32,493.68
L 702.36,492.47
L 694.47,490.93
"/>
<path stroke="black" fill="transparent" d="
M 726.77,447.13
L 716.67,445.70
L 706.67,443.89
"/>
<path stroke="black" fill="transparent" d="
M 442.30,267.47
L 442.86,250.00
L 430.13,254.95
"/>
<path stroke="black" fill="transparent" d="
M 370.47,278.15
L 329.41,294.12
"/>
<path stroke="black" fill="transparent" d="
M 304.00,304.00
L 250.00,325.00
"/>
<path stroke="black" fill="transparent" d="
M 224.03,355.61
L 221.28,336.17
L 160.00,360.00
"/>
<path stroke="black" fill="transparent" d="
M 372.48,351.35
L 372.25,351.45
L 371.93,336.84
L 400.00,349.70
"/>
<path stroke="black" fill="transparent" d="
M 786.30,437.18
L 777.46,438.18
"/>
<path stroke="black" fill="transparent" d="
M 800.24,476.25
L 799.20,477.03
"/>
<path stroke="black" fill="transparent" d="
M 687.63,493.86
L 681.79,492.20
"/>
<path stroke="black" fill="transparent" d="
M 686.71,307.59
L 689.75,306.35
"/>
<path stroke="black" fill="transparent" d="
M 791.26,454.83
L 782.69,456.28
"/>
<path stroke="black" fill="transparent" d="
M 796.31,386.21
L 790.05,387.49
"/>
<path stroke="black" fill="transparent" d="
M 199.40,439.40
L 195.12,414.63
"/>
<path stroke="black" fill="transparent" d="
M 780.67,326.37
L 780.04,327.52
"/>
<path stroke="black" fill="transparent" d="
M 258.46,453.52
L 253.66,414.63
"/>
<path stroke="black" fill="transparent" d="
M 799.31,452.98
L 791.26,454.82
"/>
<path stroke="black" fill="transparent" d="
M 751.97,466.54
L 742.11,466.33
L 732.10,465.69
"/>
<path stroke="black" fill="transparent" d="
M 731.85,301.82
L 736.73,302.20
L 741.64,302.74
"/>
<path stroke="black" fill="transparent" d="
M 773.07,356.40
L 768.26,356.87
L 763.25,357.16
"/>
<path stroke="black" fill="transparent" d="
M 781.98,354.91
L 777.66,355.74
L 773.07,356.40
"/>
<path stroke="black" fill="transparent" d="
M 329.41,647.06
L 325.00,587.50
"/>
<path stroke="black" fill="transparent" d="
M 305.39,322.76
L 304.00,304.00
"/>
<path stroke="black" fill="transparent" d="
M 148.88,386.27
L 148.84,386.05
"/>
<path stroke="black" fill="transparent" d="
M 646.05,327.70
L 648.16,325.10
"/>
<path stroke="black" fill="transparent" d="
M 797.95,322.79
L 799.58,323.69
L 800.57,324.31
"/>
<path stroke="black" fill="transparent" d="
M 764.18,334.85
L 761.49,335.22
L 758.67,335.48
"/>
<path stroke="black" fill="transparent" d="
M 665.59,382.30
L 659.64,379.06
"/>
<path stroke="black" fill="transparent" d="
M 57.14,400.00
L 18.18,372.73
L 86.96,347.83
L 127.27,372.73
L 57.14,400.00
"/>
<path stroke="black" fill="transparent" d="
M 188.50,410.33
L 181.82,372.73
"/>
<path stroke="black" fill="transparent" d="
M 746.93,448.78
L 736.89,448.16
L 726.77,447.13
"/>
<path stroke="black" fill="transparent" d="
M 130.85,387.66
L 130.61,387.76
"/>
<path stroke="black" fill="transparent" d="
M 775.86,448.15
L 766.50,448.78
"/>
<path stroke="black" fill="transparent" d="
M 686.10,376.16
L 679.76,373.54
L 673.84,370.77
L 668.37,367.87
"/>
<path stroke="black" fill="transparent" d="
M 729.89,498.50
L 724.01,498.64
"/>
<path stroke="black" fill="transparent" d="
M 368.88,188.16
L 368.63,188.24
"/>
<path stroke="black" fill="transparent" d="
M 579.96,430.23
L 580.00,430.00
"/>
<path stroke="black" fill="transparent" d="
M 746.49,335.48
L 743.32,335.22
L 740.15,334.85
L 736.99,334.38
L 733.86,333.81
"/>
<path stroke="black" fill="transparent" d="
M 429.58,258.30
L 429.81,258.39
"/>
<path stroke="black" fill="transparent" d="
M 780.55,477.53
L 772.42,478.95
"/>
<path stroke="black" fill="transparent" d="
M 684.44,307.18
L 689.16,306.15
"/>
<path stroke="black" fill="transparent" d="
M 672.10,311.32
L 675.89,309.77
L 680.01,308.39
L 684.44,307.18
"/>
<path stroke="black" fill="transparent" d="
M 773.37,374.06
L 767.04,374.43
"/>
<path stroke="black" fill="transparent" d="
M 770.09,416.21
L 761.25,416.39
"/>
<path stroke="black" fill="transparent" d="
M 754.78,306.00
L 757.59,306.75
L 760.30,307.58
"/>
<path stroke="black" fill="transparent" d="
M 406.48,233.00
L 430.19,241.51
"/>
<path stroke="black" fill="transparent" d="
M 428.40,321.89
L 400.00,334.55
"/>
<path stroke="black" fill="transparent" d="
M 754.66,490.72
L 746.62,491.29
"/>
<path stroke="black" fill="transparent" d="
M 725.63,303.24
L 728.39,303.10
L 731.23,303.05
L 734.13,303.10
"/>
<path stroke="black" fill="transparent" d="
M 788.19,475.73
L 780.55,477.53
"/>
<path stroke="black" fill="transparent" d="
M 387.72,358.73
L 372.57,365.71
"/>
<path stroke="black" fill="transparent" d="
M 733.86,333.81
L 730.80,333.15
L 727.80,332.40
L 724.91,331.57
"/>
<path stroke="black" fill="transparent" d="
M 653.32,403.40
L 646.78,399.66
L 640.85,395.79
L 635.54,391.81
"/>
<path stroke="black" fill="transparent" d="
M 746.66,496.41
L 746.35,496.48
"/>
<path stroke="black" fill="transparent" d="
M 475.00,587.50
L 400.00,541.18
L 325.00,587.50
"/>
<path stroke="black" fill="transparent" d="
M 663.37,364.85
L 658.88,361.74
L 654.92,358.57
"/>
<path stroke="black" fill="transparent" d="
M 431.12,188.16
L 431.37,188.24
"/>
<path stroke="black" fill="transparent" d="
M 453.26,401.66
L 454.55,372.73
"/>
<path stroke="black" fill="transparent" d="
M 783.39,388.50
L 776.40,389.23
L 769.10,389.67
L 761.57,389.82
L 753.86,389.67
L 746.03,389.23
"/>
<path stroke="black" fill="transparent" d="
M 643.39,333.30
L 644.46,330.44
L 646.05,327.70
"/>
<path stroke="black" fill="transparent" d="
M 740.05,303.47
L 743.04,303.80
L 746.02,304.22
"/>
<path stroke="black" fill="transparent" d="
M 346.74,401.57
L 346.33,401.76
"/>
<path stroke="black" fill="transparent" d="
M 257.34,444.48
L 249.55,448.22
"/>
<path stroke="black" fill="transparent" d="
M 154.22,493.98
L 136.59,502.44
"/>
<path stroke="black" fill="transparent" d="
M 664.30,345.20
L 661.73,342.41
L 659.65,339.62
"/>
<path stroke="black" fill="transparent" d="
M 470.30,646.86
L 470.59,647.06
"/>
<path stroke="black" fill="transparent" d="
M 744.66,403.01
L 735.99,402.19
L 727.31,401.05
"/>
<path stroke="black" fill="transparent" d="
M 707.15,382.86
L 699.84,380.84
L 692.80,378.59
L 686.10,376.16
"/>
<path stroke="black" fill="transparent" d="
M 769.74,488.48
L 762.38,489.78
L 754.66,490.72
"/>
<path stroke="black" fill="transparent" d="
M 400.00,700.00
L 400.00,640.00
"/>
<path stroke="black" fill="transparent" d="
M 400.00,541.42
L 400.00,541.18
"/>
<path stroke="black" fill="transparent" d="
M 400.00,540.91
L 400.00,500.00
"/>
<path stroke="black" fill="transparent" d="
M 400.00,430.23
L 400.00,430.00
"/>
<path stroke="black" fill="transparent" d="
M 400.00,429.61
L 400.00,400.00
"/>
<path stroke="black" fill="transparent" d="
M 400.00,386.05
L 400.00,378.95
"/>
<path stroke="black" fill="transparent" d="
M 400.00,364.50
L 400.00,349.70
"/>
<path stroke="black" fill="transparent" d="
M 371.26,306.59
L 371.60,321.89
L 400.00,334.55
L 400.00,319.02
"/>
<path stroke="black" fill="transparent" d="
M 429.45,274.85
L 429.09,290.91
L 400.00,303.11
L 400.00,286.79
"/>
<path stroke="black" fill="transparent" d="
M 369.81,241.51
L 370.19,258.39
L 400.00,270.06
L 400.00,252.90
"/>
<path stroke="black" fill="transparent" d="
M 369.03,206.45
L 369.43,224.20
L 400.00,235.29
L 400.00,217.22
"/>
<path stroke="black" fill="transparent" d="
M 739.09,438.18
L 729.13,437.18
"/>
<path stroke="black" fill="transparent" d="
M 275.16,364.11
L 272.34,336.17
"/>
<path stroke="black" fill="transparent" d="
M 795.75,370.19
L 790.68,371.50
L 785.23,372.59
L 779.45,373.44
L 773.37,374.06
"/>
<path stroke="black" fill="transparent" d="
M 400.00,198.66
L 431.37,188.24
L 431.79,169.54
L 400.00,179.59
"/>
<path stroke="black" fill="transparent" d="
M 800.25,452.71
L 799.31,452.98
"/>
<path stroke="black" fill="transparent" d="
M 786.86,414.77
L 778.65,415.67
L 770.09,416.21
"/>
<path stroke="black" fill="transparent" d="
M 286.79,275.47
L 329.41,294.12
"/>
<path stroke="black" fill="transparent" d="
M 352.83,326.29
L 352.00,304.00
L 371.03,312.33
"/>
<path stroke="black" fill="transparent" d="
M 428.39,337.42
L 480.00,360.00
"/>
<path stroke="black" fill="transparent" d="
M 637.52,394.47
L 604.88,414.63
L 676.92,446.15
"/>
<path stroke="black" fill="transparent" d="
M 705.89,321.42
L 704.79,320.14
L 703.92,318.86
"/>
<path stroke="black" fill="transparent" d="
M 630.63,338.47
L 633.71,335.56
L 637.09,333.02
"/>
<path stroke="black" fill="transparent" d="
M 704.24,452.98
L 697.45,451.46
"/>
<path stroke="black" fill="transparent" d="
M 746.35,496.48
L 741.10,497.42
L 735.60,498.09
L 729.89,498.50
"/>
<path stroke="black" fill="transparent" d="
M 373.21,273.80
L 334.55,258.18
L 286.79,275.47
"/>
<path stroke="black" fill="transparent" d="
M 304.00,304.00
L 261.54,284.62
L 208.00,304.00
"/>
<path stroke="black" fill="transparent" d="
M 221.28,336.17
L 179.59,314.29
L 119.15,336.17
"/>
<path stroke="black" fill="transparent" d="
M 795.16,425.09
L 787.01,426.41
L 778.42,427.36
L 769.47,427.94
L 760.22,428.13
L 750.75,427.94
L 741.14,427.36
"/>
<path stroke="black" fill="transparent" d="
M 430.19,241.51
L 429.81,258.39
L 400.00,270.06
"/>
<path stroke="black" fill="transparent" d="
M 506.96,396.66
L 509.09,372.73
"/>
<path stroke="black" fill="transparent" d="
M 789.74,317.49
L 792.92,319.46
L 795.79,321.51
"/>
<path stroke="black" fill="transparent" d="
M 617.87,374.47
L 618.18,372.73
"/>
<path stroke="black" fill="transparent" d="
M 630.14,370.63
L 627.61,366.75
L 625.74,362.89
L 624.53,359.08
L 623.98,355.35
L 624.07,351.71
"/>
<path stroke="black" fill="transparent" d="
M 497.28,481.32
L 497.30,481.08
"/>
<path stroke="black" fill="transparent" d="
M 389.83,298.93
L 371.26,306.59
"/>
<path stroke="black" fill="transparent" d="
M 717.97,304.22
L 720.40,303.80
"/>
<path stroke="black" fill="transparent" d="
M 704.48,310.48
L 705.48,309.45
L 706.70,308.48
L 708.12,307.58
"/>
<path stroke="black" fill="transparent" d="
M 770.94,465.69
L 761.60,466.33
"/>
<path stroke="black" fill="transparent" d="
M 758.67,335.48
L 755.74,335.64
L 752.72,335.70
L 749.63,335.64
"/>
<path stroke="black" fill="transparent" d="
M 592.00,304.00
L 550.00,325.00
"/>
<path stroke="black" fill="transparent" d="
M 418.00,356.04
L 454.54,372.73
L 400.00,400.00
"/>
<path stroke="black" fill="transparent" d="
M 277.12,494.08
L 273.68,463.16
L 200.00,500.00
"/>
<path stroke="black" fill="transparent" d="
M 600.60,439.40
L 604.88,414.63
"/>
<path stroke="black" fill="transparent" d="
M 729.55,473.25
L 719.66,472.21
L 709.80,470.76
L 700.03,468.92
"/>
<path stroke="black" fill="transparent" d="
M 720.40,303.80
L 722.96,303.47
L 725.63,303.24
"/>
<path stroke="black" fill="transparent" d="
M 702.83,313.87
L 703.15,312.69
L 703.70,311.56
"/>
<path stroke="black" fill="transparent" d="
M 756.27,493.68
L 749.13,494.55
L 741.71,495.08
"/>
<path stroke="black" fill="transparent" d="
M 648.16,325.10
L 650.75,322.64
L 653.81,320.34
L 657.32,318.20
"/>
<path stroke="black" fill="transparent" d="
M 777.46,438.18
L 768.24,438.78
L 758.73,438.98
L 748.98,438.78
L 739.09,438.18
"/>
<path stroke="black" fill="transparent" d="
M 798.74,348.33
L 796.11,349.93
L 793.10,351.40
"/>
<path stroke="black" fill="transparent" d="
M 565.93,438.46
L 571.43,400.00
"/>
<path stroke="black" fill="transparent" d="
M 764.28,457.96
L 754.57,458.17
L 744.64,457.96
"/>
<path stroke="black" fill="transparent" d="
M 729.86,491.29
L 721.27,490.72
L 712.63,489.78
"/>
<path stroke="black" fill="transparent" d="
M 781.07,325.18
L 780.67,326.37
"/>
<path stroke="black" fill="transparent" d="
M 460.93,503.29
L 463.16,463.16
"/>
<path stroke="black" fill="transparent" d="
M 733.75,414.77
L 724.50,413.53
L 715.32,411.96
"/>
<path stroke="black" fill="transparent" d="
M 288.63,296.98
L 286.79,275.47
"/>
<path stroke="black" fill="transparent" d="
M 648.64,352.11
L 646.35,348.87
L 644.62,345.64
L 643.47,342.46
"/>
<path stroke="black" fill="transparent" d="
M 371.50,439.00
L 377.01,442.01
"/>
<path stroke="black" fill="transparent" d="
M 461.84,488.27
L 474.45,495.15
"/>
<path stroke="black" fill="transparent" d="
M 567.54,545.93
L 589.47,557.89
"/>
<path stroke="black" fill="transparent" d="
M 478.15,388.60
L 480.00,360.00
"/>
<path stroke="black" fill="transparent" d="
M 711.98,463.18
L 702.03,461.33
"/>
<path stroke="black" fill="transparent" d="
M 658.07,336.84
L 656.99,334.09
L 656.41,331.39
"/>
<path stroke="black" fill="transparent" d="
M 800.72,399.39
L 799.91,399.60
"/>
<path stroke="black" fill="transparent" d="
M 677.38,330.10
L 676.04,327.92
"/>
<path stroke="black" fill="transparent" d="
M 758.07,357.25
L 752.78,357.16
L 747.40,356.87
"/>
<path stroke="black" fill="transparent" d="
M 688.97,405.40
L 680.78,402.66
"/>
<path stroke="black" fill="transparent" d="
M 494.61,322.76
L 496.00,304.00
"/>
<path stroke="black" fill="transparent" d="
M 800.19,471.67
L 795.30,473.56
L 788.19,475.73
"/>
<path stroke="black" fill="transparent" d="
M 237.84,578.38
L 228.57,520.00
"/>
<path stroke="black" fill="transparent" d="
M 793.37,445.70
L 784.84,447.13
L 775.86,448.15
"/>
<path stroke="black" fill="transparent" d="
M 626.15,344.79
L 628.10,341.55
L 630.63,338.47
"/>
<path stroke="black" fill="transparent" d="
M 408.59,266.79
L 429.45,274.85
L 400.00,286.79
"/>
<path stroke="black" fill="transparent" d="
M 427.27,372.73
L 427.43,365.71
L 400.00,378.95
"/>
<path stroke="black" fill="transparent" d="
M 656.32,328.74
L 656.72,326.17
L 657.60,323.69
L 658.94,321.31
"/>
<path stroke="black" fill="transparent" d="
M 93.02,469.77
L 78.05,414.63
"/>
<path stroke="black" fill="transparent" d="
M 715.32,411.96
L 706.30,410.07
L 697.49,407.87
L 688.97,405.40
"/>
<path stroke="black" fill="transparent" d="
M 774.46,310.46
L 778.62,312.07
L 782.57,313.78
"/>
<path stroke="black" fill="transparent" d="
M 780.17,320.14
L 780.76,321.42
L 781.11,322.70
"/>
<path stroke="black" fill="transparent" d="
M 760.30,307.58
L 762.91,308.48
L 765.40,309.45
L 767.76,310.48
"/>
<path stroke="black" fill="transparent" d="
M 726.50,371.50
L 719.78,370.19
L 713.21,368.67
L 706.84,366.95
L 700.69,365.05
"/>
<path stroke="black" fill="transparent" d="
M 654.22,375.69
L 649.36,372.22
L 645.09,368.69
L 641.41,365.11
L 638.35,361.51
"/>
<path stroke="black" fill="transparent" d="
M 724.91,331.57
L 722.13,330.65
L 719.48,329.67
"/>
<path stroke="black" fill="transparent" d="
M 511.37,296.98
L 513.21,275.47
L 470.59,294.12
"/>
<path stroke="black" fill="transparent" d="
M 448.00,304.00
L 428.97,312.33
"/>
<path stroke="black" fill="transparent" d="
M 371.61,337.42
L 320.00,360.00
"/>
<path stroke="black" fill="transparent" d="
M 123.08,446.15
L 78.05,414.63
L 148.84,386.05
L 195.12,414.63
L 123.08,446.15
L 136.58,502.44
L 93.02,469.77
L 93.30,469.65
"/>
<path stroke="black" fill="transparent" d="
M 789.73,352.73
L 786.01,353.90
L 781.98,354.91
"/>
<path stroke="black" fill="transparent" d="
M 700.90,495.25
L 693.81,493.86
L 686.85,492.19
L 680.05,490.26
"/>
<path stroke="black" fill="transparent" d="
M 795.95,477.19
L 789.69,479.62
L 782.86,481.72
"/>
<path stroke="black" fill="transparent" d="
M 238.13,578.21
L 237.84,578.38
L 297.14,622.86
L 290.91,563.64
"/>
<path stroke="black" fill="transparent" d="
M 800.39,444.12
L 793.37,445.70
"/>
<path stroke="black" fill="transparent" d="
M 708.70,423.91
L 676.92,446.15
"/>
<path stroke="black" fill="transparent" d="
M 502.86,622.86
L 562.16,578.38
L 571.43,520.00
L 509.09,563.64
"/>
<path stroke="black" fill="transparent" d="
M 400.00,700.00
L 470.59,647.06
L 475.00,587.50
L 400.00,640.00
"/>
<path stroke="black" fill="transparent" d="
M 480.00,360.00
L 527.66,336.17
L 473.47,314.29
L 426.31,335.82
"/>
<path stroke="black" fill="transparent" d="
M 382.00,356.04
L 345.46,372.73
"/>
<path stroke="black" fill="transparent" d="
M 307.69,446.15
L 370.73,414.63
L 316.28,386.05
L 253.66,414.63
"/>
<path stroke="black" fill="transparent" d="
M 220.00,430.00
L 147.37,463.16
"/>
<path stroke="black" fill="transparent" d="
M 370.91,290.91
L 400.00,303.11
"/>
<path stroke="black" fill="transparent" d="
M 658.84,393.15
L 652.54,389.63
L 646.82,385.98
L 641.69,382.23
"/>
<path stroke="black" fill="transparent" d="
M 679.46,312.07
L 681.55,310.46
L 683.98,308.97
L 686.71,307.59
"/>
<path stroke="black" fill="transparent" d="
M 751.42,304.26
L 756.24,305.23
L 760.98,306.35
"/>
<path stroke="black" fill="transparent" d="
M 800.68,385.04
L 796.31,386.21
"/>
<path stroke="black" fill="transparent" d="
M 412.28,358.73
L 427.43,365.71
"/>
<path stroke="black" fill="transparent" d="
M 641.69,382.23
L 637.20,378.40
L 633.34,374.53
"/>
<path stroke="black" fill="transparent" d="
M 609.82,411.28
L 608.20,408.47
L 607.49,406.78
"/>
<path stroke="black" fill="transparent" d="
M 371.14,290.82
L 370.91,290.91
L 370.55,274.85
L 400.00,286.79
"/>
<path stroke="black" fill="transparent" d="
M 711.91,498.09
L 705.78,497.42
L 699.66,496.48
L 693.60,495.29
L 687.63,493.86
"/>
<path stroke="black" fill="transparent" d="
M 713.06,301.82
L 717.60,301.59
L 722.26,301.51
L 727.02,301.59
L 731.85,301.82
"/>
<path stroke="black" fill="transparent" d="
M 778.04,403.01
L 770.03,403.50
L 761.75,403.67
L 753.27,403.50
L 744.66,403.01
"/>
<path stroke="black" fill="transparent" d="
M 781.11,322.70
L 781.21,323.95
L 781.07,325.18
"/>
<path stroke="black" fill="transparent" d="
M 734.13,303.10
L 737.07,303.24
L 740.05,303.47
"/>
<path stroke="black" fill="transparent" d="
M 791.16,481.27
L 790.43,481.82
L 785.97,484.51
L 780.98,486.93
"/>
<path stroke="black" fill="transparent" d="
M 775.47,489.08
L 769.49,490.93
L 763.08,492.47
L 756.27,493.68
"/>
<path stroke="black" fill="transparent" d="
M 210.53,557.89
L 160.00,520.00
L 147.37,463.16
"/>
<path stroke="black" fill="transparent" d="
M 131.75,392.87
L 119.15,336.17
"/>
<path stroke="black" fill="transparent" d="
M 400.00,179.59
L 400.00,198.66
L 368.63,188.24
L 368.21,169.54
L 400.00,179.59
"/>
<path stroke="black" fill="transparent" d="
M 612.36,370.36
L 612.50,367.37
"/>
<path stroke="black" fill="transparent" d="
M 326.15,604.54
L 297.14,622.85
"/>
<path stroke="black" fill="transparent" d="
M 683.75,336.65
L 681.25,334.48
L 679.12,332.30
L 677.38,330.10
"/>
<path stroke="black" fill="transparent" d="
M 701.49,346.61
L 697.31,344.77
L 693.43,342.85
L 689.86,340.84
"/>
<path stroke="black" fill="transparent" d="
M 761.16,493.86
L 755.38,495.25
L 749.27,496.34
"/>
<path stroke="black" fill="transparent" d="
M 767.04,374.43
L 760.51,374.56
L 753.82,374.43
"/>
<path stroke="black" fill="transparent" d="
M 772.01,312.69
L 773.88,313.87
L 775.56,315.08
L 777.03,316.32
L 778.30,317.58
"/>
<path stroke="black" fill="transparent" d="
M 784.83,470.76
L 776.47,472.21
L 767.67,473.25
L 758.51,473.88
"/>
<path stroke="black" fill="transparent" d="
M 430.33,224.12
L 430.57,224.20
"/>
<path stroke="black" fill="transparent" d="
M 665.62,314.89
L 668.67,313.03
L 672.10,311.32
"/>
<path stroke="black" fill="transparent" d="
M 741.64,302.74
L 746.54,303.43
L 751.42,304.26
"/>
<path stroke="black" fill="transparent" d="
M 675.10,325.74
L 674.56,323.60
L 674.42,321.51
L 674.67,319.46
"/>
<path stroke="black" fill="transparent" d="
M 713.53,305.32
L 715.67,304.73
L 717.97,304.22
"/>
<path stroke="black" fill="transparent" d="
M 775.53,483.46
L 767.74,484.83
L 759.55,485.82
"/>
<path stroke="black" fill="transparent" d="
M 788.41,463.18
L 779.90,464.64
L 770.94,465.69
"/>
<path stroke="black" fill="transparent" d="
M 330.60,316.14
L 329.41,294.12
"/>
<path stroke="black" fill="transparent" d="
M 372.25,351.45
L 400.00,364.50
"/>
<path stroke="black" fill="transparent" d="
M 428.86,290.82
L 429.09,290.91
"/>
<path stroke="black" fill="transparent" d="
M 431.79,169.54
L 400.00,160.00
L 368.21,169.54
"/>
<path stroke="black" fill="transparent" d="
M 610.46,369.34
L 611.23,367.43
"/>
<path stroke="black" fill="transparent" d="
M 187.59,405.32
L 183.17,407.21
"/>
<path stroke="black" fill="transparent" d="
M 86.97,448.44
L 72.73,454.55
"/>
<path stroke="black" fill="transparent" d="
M 782.69,456.28
L 773.68,457.33
L 764.28,457.96
"/>
<path stroke="black" fill="transparent" d="
M 800.62,434.48
L 794.70,435.80
L 786.30,437.18
"/>
<path stroke="black" fill="transparent" d="
M 704.45,302.74
L 708.67,302.21
"/>
<path stroke="black" fill="transparent" d="
M 430.16,245.40
L 442.86,250.00
"/>
<path stroke="black" fill="transparent" d="
M 426.79,273.80
L 465.45,258.18
L 513.21,275.47
"/>
<path stroke="black" fill="transparent" d="
M 496.00,304.00
L 538.46,284.62
L 592.00,304.00
"/>
<path stroke="black" fill="transparent" d="
M 620.03,352.23
L 578.72,336.17
L 620.41,314.29
L 648.11,324.32
"/>
<path stroke="black" fill="transparent" d="
M 621.03,375.41
L 619.13,371.33
L 617.92,367.31
L 617.39,363.36
"/>
<path stroke="black" fill="transparent" d="
M 658.94,321.31
L 660.74,319.04
L 662.97,316.90
"/>
<path stroke="black" fill="transparent" d="
M 729.32,497.76
L 722.31,497.60
L 715.20,497.12
L 708.04,496.34
"/>
<path stroke="black" fill="transparent" d="
M 686.27,391.06
L 678.95,388.33
L 672.04,385.40
L 665.59,382.30
"/>
<path stroke="black" fill="transparent" d="
M 689.75,306.35
L 693.06,305.23
L 696.63,304.26
L 700.43,303.43
L 704.45,302.74
"/>
<path stroke="black" fill="transparent" d="
M 718.71,399.60
L 710.25,397.87
L 701.98,395.85
L 693.97,393.58
L 686.27,391.06
"/>
<path stroke="black" fill="transparent" d="
M 703.92,318.86
L 703.29,317.58
L 702.90,316.32
"/>
<path stroke="black" fill="transparent" d="
M 369.67,224.12
L 369.43,224.20
"/>
<path stroke="black" fill="transparent" d="
M 410.17,298.93
L 428.74,306.59
L 400.00,319.02
"/>
<path stroke="black" fill="transparent" d="
M 741.71,495.08
L 734.05,495.25
L 726.23,495.08
"/>
<path stroke="black" fill="transparent" d="
M 371.47,444.58
L 370.73,414.63
"/>
<path stroke="black" fill="transparent" d="
M 724.41,456.28
L 714.27,454.82
L 704.24,452.98
"/>
<path stroke="black" fill="transparent" d="
M 634.10,354.33
L 632.90,350.79
L 632.33,347.33
L 632.37,343.95
L 633.01,340.67
L 634.23,337.51
"/>
<path stroke="black" fill="transparent" d="
M 427.52,351.35
L 427.75,351.45
"/>
<path stroke="black" fill="transparent" d="
M 371.82,321.80
L 371.60,321.89
"/>
<path stroke="black" fill="transparent" d="
M 403.79,197.48
L 430.97,206.45
"/>
<path stroke="red" fill="transparent" d="
M 0.00,0.00
L 800.00,0.00
L 800.00,800.00
L 0.00,800.00
L 0.00,0.00
"/>
</svg>
